<svg width="376" height="332" viewBox="0 0 376 332" fill="none" xmlns="http://www.w3.org/2000/svg">
<path d="M66.2949 306.955C66.2949 306.955 43.0095 289.351 38.6106 266.959C36.8268 257.555 32.0419 248.982 24.9738 242.527C21.5926 239.49 17.9406 236.769 14.0635 234.398" stroke="#535461" stroke-width="2"/>
<path d="M11.2144 220.291C13.255 223.051 14.1779 234.749 14.1779 234.749C14.1779 234.749 3.26766 230.452 1.22281 227.696C-0.822025 224.937 -0.242916 221.042 2.51616 218.998C5.27525 216.953 9.16955 217.532 11.2144 220.291Z" fill="#0031C1"/>
<path d="M30.7825 229.47C30.9942 232.895 25.4184 243.217 25.4184 243.217C25.4184 243.217 18.5894 233.674 18.3735 230.249C18.1579 226.823 20.7606 223.871 24.1864 223.656C27.6121 223.441 30.5636 226.044 30.7788 229.47H30.7825Z" fill="#0031C1"/>
<path d="M49.7497 255.854C48.2086 258.92 38.1789 265.016 38.1789 265.016C38.1789 265.016 37.1077 253.331 38.6488 250.266C40.1914 247.199 43.928 245.965 46.9939 247.509C50.0598 249.052 51.2931 252.789 49.7497 255.854Z" fill="#0031C1"/>
<path d="M59.61 279.038C58.6067 282.32 49.7538 290.021 49.7538 290.021C49.7538 290.021 46.7183 278.687 47.7217 275.402C48.726 272.119 52.2014 270.272 55.4843 271.276C58.7671 272.28 60.6143 275.756 59.61 279.038Z" fill="#0031C1"/>
<path d="M15.3253 251.515C18.7122 251.972 29.4193 247.137 29.4193 247.137C29.4193 247.137 20.3846 239.652 16.9807 239.195C13.5786 238.737 10.45 241.125 9.99291 244.527C9.53579 247.929 11.9232 251.057 15.3253 251.515Z" fill="#0031C1"/>
<path d="M27.2008 278.488C30.5878 277.908 39.3389 270.097 39.3389 270.097C39.3389 270.097 28.4751 265.66 25.0924 266.24C21.71 266.824 19.4419 270.04 20.0265 273.422C20.6111 276.805 23.827 279.073 27.2093 278.488L27.2008 278.488Z" fill="#0031C1"/>
<path d="M42.3364 303.124C45.7699 303.124 55.7192 296.905 55.7192 296.905C55.7192 296.905 45.7656 290.694 42.3321 290.694C38.8996 290.694 36.117 293.476 36.117 296.909C36.117 300.341 38.8996 303.124 42.3321 303.124H42.3364Z" fill="#0031C1"/>
<path d="M294.948 154.698C294.948 154.698 309.3 129.274 330.935 121.95C340.019 118.933 347.881 113.052 353.34 105.189C355.9 101.429 358.109 97.4429 359.94 93.2793" stroke="#535461" stroke-width="2"/>
<path d="M373.522 88.6223C371.058 91.0102 359.588 93.4826 359.588 93.4826C359.588 93.4826 362.404 82.0939 364.868 79.7019C367.331 77.3112 371.266 77.3709 373.656 79.8346C376.046 82.2983 375.985 86.2323 373.522 88.6223Z" fill="#0031C1"/>
<path d="M367.036 109.211C363.649 109.88 352.696 105.722 352.696 105.722C352.696 105.722 361.248 97.6783 364.614 97.022C366.814 96.5338 369.106 97.2746 370.604 98.9582C372.102 100.642 372.571 103.004 371.83 105.132C371.09 107.261 369.255 108.821 367.036 109.211Z" fill="#0031C1"/>
<path d="M343.428 131.514C340.185 130.392 332.814 121.264 332.814 121.264C332.814 121.264 344.245 118.648 347.497 119.77C350.74 120.893 352.459 124.433 351.335 127.677C350.212 130.92 346.672 132.638 343.428 131.514Z" fill="#0031C1"/>
<path d="M321.735 144.368C318.348 143.809 309.559 136.04 309.559 136.04C309.559 136.04 320.393 131.527 323.775 132.086C327.166 132.643 329.463 135.844 328.905 139.234C328.347 142.625 325.146 144.921 321.756 144.364L321.735 144.368Z" fill="#0031C1"/>
<path d="M343.132 96.819C343.128 100.252 349.356 110.214 349.356 110.214C349.356 110.214 355.575 100.265 355.575 96.8358C355.634 94.5774 354.463 92.4646 352.517 91.3179C350.57 90.1712 348.154 90.1712 346.208 91.3179C344.261 92.4646 343.09 94.5774 343.149 96.8358L343.132 96.819Z" fill="#0031C1"/>
<path d="M317.971 112.17C318.996 115.447 327.903 123.089 327.903 123.089C327.903 123.089 330.867 111.734 329.834 108.457C328.72 105.302 325.308 103.594 322.115 104.594C318.922 105.595 317.094 108.943 317.979 112.17H317.971Z" fill="#0031C1"/>
<path d="M295.13 130.447C295.587 133.834 303.072 142.882 303.072 142.882C303.072 142.882 307.903 132.192 307.445 128.792C307.199 126.55 305.756 124.617 303.676 123.743C301.597 122.869 299.207 123.19 297.432 124.582C295.657 125.975 294.776 128.22 295.13 130.447Z" fill="#0031C1"/>
<path opacity="0.25" d="M373.522 88.6223C371.058 91.0102 359.588 93.4826 359.588 93.4826C359.588 93.4826 362.404 82.0939 364.868 79.7019C367.331 77.3112 371.266 77.3709 373.656 79.8346C376.046 82.2983 375.985 86.2323 373.522 88.6223Z" fill="black"/>
<path opacity="0.25" d="M367.036 109.211C363.649 109.88 352.696 105.722 352.696 105.722C352.696 105.722 361.248 97.6783 364.614 97.022C366.814 96.5338 369.106 97.2746 370.604 98.9582C372.102 100.642 372.571 103.004 371.83 105.132C371.09 107.261 369.255 108.821 367.036 109.211Z" fill="black"/>
<path opacity="0.25" d="M343.428 131.514C340.185 130.392 332.814 121.264 332.814 121.264C332.814 121.264 344.245 118.648 347.497 119.77C350.74 120.893 352.459 124.433 351.335 127.677C350.212 130.92 346.672 132.638 343.428 131.514Z" fill="black"/>
<path opacity="0.25" d="M321.735 144.368C318.348 143.809 309.559 136.04 309.559 136.04C309.559 136.04 320.393 131.527 323.775 132.086C327.166 132.643 329.463 135.844 328.905 139.234C328.347 142.625 325.146 144.921 321.756 144.364L321.735 144.368Z" fill="black"/>
<path opacity="0.25" d="M343.132 96.819C343.128 100.252 349.356 110.214 349.356 110.214C349.356 110.214 355.575 100.265 355.575 96.8358C355.634 94.5774 354.463 92.4646 352.517 91.3179C350.57 90.1712 348.154 90.1712 346.208 91.3179C344.261 92.4646 343.09 94.5774 343.149 96.8358L343.132 96.819Z" fill="black"/>
<path opacity="0.25" d="M317.971 112.17C318.996 115.447 327.903 123.089 327.903 123.089C327.903 123.089 330.867 111.734 329.834 108.457C328.72 105.302 325.308 103.594 322.115 104.594C318.922 105.595 317.094 108.943 317.979 112.17H317.971Z" fill="black"/>
<path opacity="0.25" d="M295.13 130.447C295.587 133.834 303.072 142.882 303.072 142.882C303.072 142.882 307.903 132.192 307.445 128.792C307.199 126.55 305.756 124.617 303.676 123.743C301.597 122.869 299.207 123.19 297.432 124.582C295.657 125.975 294.776 128.22 295.13 130.447Z" fill="black"/>
<path d="M295.774 154.194C295.774 154.194 298.593 125.134 315.384 109.681C322.466 103.241 327.27 94.6784 329.076 85.2777C329.898 80.8088 330.307 76.2737 330.299 71.7299" stroke="#535461" stroke-width="2"/>
<path d="M340.825 61.9245C339.554 65.1083 330.054 72.0177 330.054 72.0177C330.054 72.0177 328.013 60.4639 329.296 57.2802C330.582 54.0967 334.206 52.5584 337.389 53.8445C340.573 55.1305 342.111 58.7537 340.825 61.9372V61.9245Z" fill="#0031C1"/>
<path d="M343.242 83.398C340.435 85.371 328.72 86.0187 328.72 86.0187C328.72 86.0187 333.285 75.2058 336.091 73.2329C337.904 71.8765 340.31 71.6128 342.374 72.5446C344.437 73.4763 345.83 75.4562 346.011 77.7128C346.191 79.9693 345.131 82.1457 343.242 83.3939V83.398Z" fill="#0031C1"/>
<path d="M330.685 113.364C327.264 113.652 316.824 108.284 316.824 108.284C316.824 108.284 326.223 101.256 329.643 100.968C333.064 100.68 336.07 103.22 336.358 106.641C336.646 110.062 334.106 113.068 330.685 113.356V113.364Z" fill="#0031C1"/>
<path d="M316.075 133.894C312.751 134.74 301.557 131.239 301.557 131.239C301.557 131.239 309.631 122.725 312.954 121.861C316.277 121 319.669 122.995 320.53 126.317C321.392 129.64 319.397 133.032 316.075 133.894Z" fill="#0031C1"/>
<path d="M316.371 81.7552C317.759 84.8924 327.472 91.4928 327.472 91.4928C327.472 91.4928 329.123 79.8755 327.734 76.7383C326.295 73.6857 322.683 72.3393 319.597 73.7052C316.511 75.0712 315.079 78.6502 316.371 81.7679L316.371 81.7552Z" fill="#0031C1"/>
<path d="M299.162 105.981C301.427 108.559 312.664 111.938 312.664 111.938C312.664 111.938 310.767 100.358 308.502 97.7801C306.238 95.2004 302.311 94.9454 299.731 97.2101C297.152 99.475 296.898 103.401 299.162 105.981Z" fill="#0031C1"/>
<path d="M285.99 131.772C287.785 134.694 298.289 139.922 298.289 139.922C298.289 139.922 298.378 128.19 296.596 125.265C294.751 122.457 291.008 121.623 288.146 123.382C285.283 125.142 284.338 128.859 286.011 131.772H285.99Z" fill="#0031C1"/>
<path d="M273.528 40.3876C274.231 37.8093 275.078 35.2183 275.671 32.6061C274.959 35.2183 274.108 37.8178 273.528 40.3876Z" fill="url(#paint0_linear_94_4871)"/>
<path d="M270.329 65.2227C270.269 65.121 270.227 65.0195 270.18 64.9263C270.18 64.884 270.137 64.8501 270.12 64.8077C270.027 64.8513 269.931 64.8894 269.834 64.9221C269.646 64.994 269.454 65.0618 269.258 65.1168C269.062 65.1719 268.981 65.2015 268.831 65.2354C268.708 65.2777 268.581 65.3102 268.452 65.3327L268.486 65.409C268.644 65.3751 268.797 65.3454 268.955 65.3031L268.998 65.8281C269.177 65.8281 269.343 65.8027 269.505 65.8027C269.582 65.7985 269.659 65.7985 269.736 65.8027C270.069 65.8027 270.359 65.8027 270.589 65.8027C270.5 65.6122 270.406 65.4132 270.329 65.2227ZM356.944 202.027C354.939 199.347 350.937 170.583 350.937 170.583C350.937 170.583 343.065 150.13 345.211 141.967C347.357 133.805 339.348 112.92 339.348 112.92C339.348 112.92 334.058 110.638 333.772 107.251C333.772 107.251 312.169 100.477 311.158 95.3964C310.338 91.2304 296.941 88.2414 292.128 87.2973C290.66 81.4209 289.184 75.9382 288.096 72.945C287.801 72.0135 287.524 71.2091 287.268 70.5741C285.429 65.917 279.746 65.4936 275.624 65.8662C275.445 65.0725 275.114 64.3205 274.647 63.652C274.579 63.4221 274.444 63.2174 274.259 63.0634C274.17 62.9887 274.076 62.9207 273.977 62.8602C273.902 62.723 273.804 62.5998 273.687 62.4962C273.57 62.3915 273.441 62.3006 273.303 62.2252C273.204 62.172 273.101 62.1253 272.996 62.0855C272.748 61.992 272.493 61.9225 272.232 61.878C271.928 61.816 271.62 61.7764 271.31 61.7595C272.063 61.4326 272.735 60.9455 273.277 60.3327C273.646 59.9025 273.921 59.4007 274.084 58.8594C274.219 58.4092 274.279 57.9402 274.263 57.4707C274.152 57.6642 274.024 57.847 273.879 58.0169C274.058 56.1413 273.06 54.2362 272.488 52.3691C271.795 49.9384 271.667 47.3835 272.113 44.8966C272.684 41.1455 274.101 37.3521 275.061 33.5333C275.063 33.5122 275.063 33.4909 275.061 33.4698C275.564 31.5733 275.876 29.6317 275.991 27.6738C276.157 23.7238 275.138 19.7822 273.499 16.1835C272.044 12.9955 269.898 9.85833 266.613 8.56283C264.172 7.58483 261.437 7.74147 258.809 7.58058C252.912 7.2165 247.288 5.15891 241.682 3.28761C236.075 1.41629 230.307 -0.285672 224.406 0.0403263C218.505 0.366325 212.433 3.19022 209.741 8.3723C208.887 9.98956 208.397 11.7889 207.377 13.3088C205.466 16.175 202.043 17.6103 199.189 19.5874C196.335 21.5646 193.822 24.3715 192.789 27.7204C192.225 29.5246 192.146 31.4437 192.559 33.2877C192.651 33.7042 192.771 34.1143 192.917 34.5155C193.322 35.6342 193.954 36.6586 194.773 37.5257C195.391 38.1665 196.101 38.713 196.881 39.1472C197.86 39.6856 198.907 40.09 199.996 40.3496C199.957 40.4766 199.919 40.6121 199.876 40.7433C199.808 40.9592 199.748 41.1667 199.684 41.3995C199.543 41.9203 199.411 42.4495 199.3 42.9829C199.296 43.0209 199.296 43.0593 199.3 43.0972C198.776 45.5054 198.513 47.9622 198.515 50.4258C198.514 51.5909 198.574 52.7554 198.694 53.9144C200.401 71.0948 214.695 84.647 232.355 85.5276C232.961 85.5573 233.571 85.5742 234.189 85.5742C234.471 85.5742 234.748 85.5742 235.043 85.5742C235.32 85.9383 235.593 86.3108 235.854 86.6749C236.114 87.039 236.353 87.4116 236.579 87.7757L235.96 87.1406L235.342 86.5776C235.174 86.806 234.987 87.0198 234.782 87.2169C234.379 87.076 233.967 86.9601 233.549 86.8697C231.779 86.4802 229.082 86.3362 225.532 87.3989C222.268 88.3684 218.279 90.3625 213.611 94.1517L190.865 107.7L178.559 115.126L174.126 125.879C174.126 125.879 170.794 138.657 167.086 153.297C166.941 153.339 166.8 153.381 166.659 153.432C166.359 153.398 166.057 153.381 165.755 153.381C161.284 153.371 157.605 156.87 157.426 161.303C150.053 170.193 149.635 179.084 151.367 183.166C151.524 183.548 151.721 183.913 151.956 184.254C153.091 185.879 155.212 190.071 157.362 194.537C157.307 194.906 157.272 195.215 157.255 195.448C157.251 195.524 157.251 195.6 157.255 195.676C157.255 195.676 158.535 214.859 154.269 220.359C153.334 221.557 153.475 223.132 154.269 224.876C157.127 231.151 168.43 239.529 168.43 239.529C168.43 239.529 181.986 239.457 189.538 238.64C189.516 239.394 189.499 240.143 189.482 240.875C189.312 248.276 189.312 254.478 189.312 254.478L189.03 262.239C189.03 262.239 186.47 278.594 185.19 283.103C184.384 285.931 185.314 312.116 186.124 331.367H319.683C321.253 319.978 319.038 285.376 319.038 285.376C319.038 285.376 316.935 276.43 316.858 268.632C316.85 268.614 316.85 268.594 316.858 268.577C316.858 267.895 316.858 267.23 316.884 266.578L317.852 266.545L319.593 266.485H319.751C319.751 266.485 319.794 266.324 319.892 266.062C320.122 265.408 320.436 264.786 320.826 264.212C321.569 263.124 322.729 262.057 324.474 261.985C325.439 261.947 326.932 261.172 328.617 260.029C328.629 260.031 328.64 260.031 328.651 260.029C333.187 256.985 339.182 251.367 340.637 250.444C342.638 249.174 352.221 240.706 352.221 240.706C352.221 240.706 353.65 238.911 355.174 236.748L355.229 236.671C357.124 233.962 359.138 230.723 358.643 229.703C357.789 227.874 359.214 223.5 359.214 223.5C363.665 215.418 358.95 204.707 356.944 202.027ZM274.438 71.8061C274.479 71.9325 274.505 72.0632 274.515 72.1956C274.408 72.0559 274.301 71.9077 274.195 71.7722L274.092 71.6367L274.02 71.5352L274.182 71.315C274.182 71.315 274.182 71.315 274.182 71.3446C274.295 71.4819 274.381 71.6382 274.438 71.8061ZM273.004 68.055C272.539 68.1482 272.172 68.2328 271.933 68.2963C271.63 67.7629 271.34 67.2295 271.08 66.6875C271.764 67.0813 272.408 67.5392 273.004 68.055ZM272.202 68.7239C272.201 68.7155 272.201 68.707 272.202 68.6985L272.236 68.7239C272.411 68.8383 272.582 68.9483 272.74 69.0626C272.88 69.1643 273.009 69.2616 273.137 69.3632C273.051 69.5114 272.957 69.6638 272.863 69.7866C272.714 69.5538 272.573 69.3294 272.437 69.0965C272.351 69.0034 272.275 68.8764 272.202 68.7239ZM269.642 63.4995C270.466 63.4189 271.297 63.4189 272.121 63.4995C272.236 63.4995 272.339 63.5207 272.441 63.5376C272.672 63.5731 272.9 63.6313 273.119 63.7112C273.624 64.4112 273.934 65.2301 274.02 66.0863L273.789 66.1202L273.563 66.1626C273.137 66.2345 272.71 66.3065 272.377 66.3742L271.95 66.4631C271.383 66.5859 271.054 66.6791 271.041 66.6833C270.986 66.569 270.931 66.4631 270.871 66.3531C270.777 66.171 270.679 65.9847 270.593 65.8027C270.508 65.6207 270.397 65.4132 270.308 65.2227C270.248 65.1211 270.205 65.0195 270.158 64.9263C270.158 64.884 270.116 64.8501 270.099 64.8078C270.074 64.7628 270.052 64.7162 270.034 64.668C269.774 64.1431 269.535 63.6181 269.305 63.1016C269.279 63.0508 269.258 62.9958 269.237 62.9449L269.561 62.9238V63.0338L269.642 63.4995ZM167.841 326.134C167.807 319.83 167.346 313.01 166.066 306.608C165.52 303.886 164.957 301.164 164.385 298.488C164.24 297.819 164.099 297.159 163.958 296.498L162.644 296.672H162.525C158.941 279.902 155.194 265.126 155.194 265.126C155.194 265.126 147.753 236.934 148.615 234.686C148.726 234.394 148.585 233.606 148.269 232.45C146.469 226.04 138.951 208.377 136.323 202.34C136.323 202.315 136.301 202.285 136.293 202.264C135.866 201.252 135.559 200.57 135.465 200.371L136.084 191.362L136.118 190.82L136.199 189.669L136.165 189.639L136.199 189.105C136.199 189.105 129.705 183.822 118.705 180.007C118.278 179.855 117.826 179.707 117.378 179.563C117.928 175.917 118.658 171.802 119.61 167.793C119.699 167.391 119.797 167.001 119.9 166.608C119.989 166.214 120.092 165.833 120.194 165.447C120.356 164.821 120.531 164.203 120.71 163.593C121.304 163.407 121.888 163.199 122.464 162.979L122.686 162.895C137.361 157.229 145.561 141.678 141.886 126.485C140.873 122.318 139.002 118.404 136.391 114.99C136.194 114.728 135.985 114.465 135.776 114.207C135.567 113.949 135.316 113.661 135.081 113.398C136.314 110.617 137.769 107.971 137.888 105.265C137.91 104.923 137.91 104.579 137.888 104.236V104.194C137.73 102.454 136.954 100.693 135.145 98.8427C132.504 96.1288 128.745 94.7529 124.986 94.0924C121.227 93.432 117.395 93.415 113.615 92.9705C107.347 92.2254 101.241 90.3074 94.9733 89.719C87.2529 89.0096 79.4801 90.3235 72.432 93.5293C67.7684 95.6462 63.045 99.3465 62.7634 104.423C62.533 108.618 65.477 112.64 64.7346 116.785C63.9964 120.858 59.815 124.063 60.182 128.182C60.3228 129.791 61.1548 131.231 62.1959 132.513C62.5543 132.937 62.9341 133.36 63.3266 133.784C64.8457 135.38 66.5182 136.912 67.3673 138.923C67.4014 139.008 67.4354 139.093 67.4653 139.177C68.1864 141.163 67.8622 143.673 66.0787 144.812C66.0885 144.82 66.0959 144.83 66.1 144.842C66.1257 144.876 66.1513 144.901 66.1726 144.935C66.1752 144.928 66.1752 144.921 66.1726 144.914C66.8049 145.658 67.6574 146.185 68.6089 146.421L68.9716 146.531C68.6772 146.849 68.3998 147.179 68.1182 147.526L67.9348 147.768C67.4645 148.395 67.0369 149.052 66.6547 149.736C66.4371 150.117 66.228 150.498 66.0531 150.879C65.4682 152.041 65.0449 153.276 64.7944 154.55C64.3378 157.353 64.9821 160.274 64.2909 163.017C63.4375 166.404 60.7367 169.004 59.2135 172.15C56.3291 178.077 57.9632 185.033 58.5435 191.578C59.333 200.469 58.0529 209.398 56.7771 218.229C56.1001 222.926 55.4232 227.627 54.7461 232.332C53.0394 244.141 51.3327 255.95 49.626 267.76C49.0031 272.086 48.2649 276.65 45.3592 279.991H45.3891C45.3891 279.991 45.3891 280.016 45.3592 280.025C46.2315 280.403 47.1591 280.64 48.1071 280.728C51.9002 281.104 55.9196 279.284 59.3329 277.294C62.0361 275.744 64.5961 273.96 66.9832 271.964C66.6334 273.234 66.2579 274.618 65.8569 276.108C65.858 276.123 65.858 276.137 65.8569 276.151C61.0396 294.356 53.2912 327.73 53.2912 327.73C53.2912 327.73 52.5872 329.182 51.6741 331.346H171.997C170.589 329.652 169.279 328.031 168.255 326.723L167.841 326.134ZM78.751 157.801C78.7809 157.751 78.8023 157.704 78.8322 157.657C78.8322 157.793 78.8322 157.924 78.8322 158.051C78.8322 158.178 78.8322 158.292 78.8322 158.411C78.8322 158.53 78.8322 158.517 78.8322 158.576C78.8322 158.75 78.7936 158.923 78.7638 159.097C78.7638 159.097 78.7638 159.118 78.7638 159.135L79.1905 159.292L79.6854 159.495C82.6096 160.641 85.5707 161.678 88.5689 162.607C88.8761 162.704 89.1876 162.797 89.4989 162.886L89.563 163.411C89.6398 163.949 89.7124 164.495 89.7807 165.041C89.7807 165.041 89.7807 165.066 89.7807 165.083C89.9725 166.595 90.1604 168.102 90.3268 169.575C90.3268 169.575 82.493 166.612 82.5911 171.112C82.5867 171.193 82.5867 171.273 82.5911 171.354C82.5825 171.461 82.5825 171.568 82.5911 171.675C82.6637 175.181 83.7688 177.26 83.9906 178.326C83.9773 178.371 83.954 178.411 83.9222 178.445C83.7331 178.854 83.6678 179.308 83.7346 179.753C83.7272 180.511 83.7871 181.267 83.9139 182.014C83.6834 182.154 83.4573 182.293 83.2313 182.437C83.0604 182.543 82.8984 182.662 82.7319 182.78C81.6852 179.178 80.3158 175.675 78.6401 172.315C77.4667 169.918 76.1483 167.42 76.1611 164.791C76.1611 164.622 76.1611 164.448 76.1824 164.275C76.23 163.513 76.3763 162.76 76.6176 162.035C76.7157 161.76 76.8225 161.489 76.9419 161.222C77.2208 160.588 77.5327 159.969 77.8763 159.368C78.0983 158.97 78.3329 158.576 78.559 158.178C78.6316 158.06 78.6998 157.937 78.7681 157.818L78.751 157.801ZM270.329 65.2227C270.269 65.121 270.227 65.0195 270.18 64.9263C270.18 64.884 270.137 64.8501 270.12 64.8077C270.027 64.8513 269.931 64.8894 269.834 64.9221C269.646 64.994 269.454 65.0618 269.258 65.1168C269.062 65.1719 268.981 65.2015 268.831 65.2354L268.452 65.3327L268.486 65.409C268.644 65.3751 268.797 65.3454 268.955 65.3031L268.998 65.8281C269.177 65.8281 269.343 65.8027 269.505 65.8027H269.736C270.069 65.8027 270.359 65.8027 270.589 65.8027C270.5 65.6122 270.406 65.4132 270.329 65.2227Z" fill="url(#paint1_linear_94_4871)"/>
<path d="M177.235 127.408L174.694 128.529C174.694 128.529 158.136 192.857 158.136 198.056C158.136 203.255 193.246 232.184 193.246 232.184L198.725 195.206C198.725 195.206 190.859 110.409 177.235 127.408Z" fill="#E8F5FF"/>
<path d="M254.82 106.946L240.15 99.2913C239.329 95.7885 237.871 92.4664 235.849 89.4903C233.703 86.3912 230.849 83.3472 227.293 81.7595C218.305 77.729 265.312 56.5731 265.312 56.5731C266.052 59.1145 266.924 61.6158 267.924 64.0668C270.345 70.0448 274.363 77.7756 279.541 79.9771C288.343 83.7239 254.82 106.946 254.82 106.946Z" fill="#FFC1C7"/>
<path opacity="0.1" d="M267.856 64.0668C263.737 78.5524 250.824 88.7873 235.781 89.4902C233.634 86.3912 230.781 83.3471 227.225 81.7595C218.236 77.729 265.243 56.5731 265.243 56.5731C265.984 59.1145 266.856 61.6157 267.856 64.0668Z" fill="black"/>
<path d="M269.114 53.3851C269.114 72.7393 253.429 88.4215 234.084 88.4192C214.742 88.4192 199.06 72.7351 199.063 53.3893C199.063 34.0479 214.747 18.3657 234.092 18.368C243.393 18.325 252.325 22.0003 258.902 28.5766C265.479 35.1528 269.155 44.0845 269.114 53.3851Z" fill="#FFC1C7"/>
<path d="M274.253 102.45L264.702 124.736L256.277 139.528H229.308L221.442 119.304L224.63 98.3302H245.227L258.525 97.5807L263.017 96.082L265.913 97.7247L274.253 102.45Z" fill="#575A89"/>
<path opacity="0.1" d="M271.042 72.7418C271.042 72.7418 276.999 74.0119 271.664 78.3854C266.33 82.7588 247.926 96.6666 247.926 96.6666C247.926 96.6666 254.391 102.424 253.053 109.169L274.471 97.2297L278.282 78.1271C278.282 78.1271 278.709 72.3862 271.042 72.7418Z" fill="black"/>
<path opacity="0.1" d="M252.005 96.6664L238.381 98.9145C238.381 98.9145 241.192 109.308 239.786 112.259C239.744 112.351 239.709 112.446 239.68 112.543L234.122 127.568L238.288 139.368L252.708 119.702L247.792 112.259C247.792 112.259 252.987 105.375 256.078 102.987C259.168 100.6 252.005 96.6664 252.005 96.6664Z" fill="black"/>
<path d="M252.005 96.0864L238.381 98.3303C238.381 98.3303 241.192 108.724 239.786 111.675C239.744 111.767 239.709 111.861 239.68 111.959L234.122 126.984L238.288 138.783L252.708 119.105L247.792 111.662C247.792 111.662 252.987 104.778 256.078 102.39C259.168 100.003 252.005 96.0864 252.005 96.0864Z" fill="#DCE6F2"/>
<path d="M271.617 71.6197C271.617 71.6197 277.573 72.8898 272.235 77.2633C266.896 81.6368 247.929 96.6664 247.929 96.6664C247.929 96.6664 254.953 101.302 253.619 108.042L275.037 96.1076L278.848 77.0051C278.848 77.0051 279.271 71.2642 271.617 71.6197Z" fill="#575A89"/>
<path opacity="0.1" d="M236.591 90.8156C236.591 90.8156 237.891 93.2457 243.628 97.6276C243.628 97.6276 234.076 102.708 237.73 109.85L223.119 106.04L220.871 99.0162L236.591 90.8156Z" fill="black"/>
<path d="M236.024 90.2566C236.024 90.2566 237.324 92.6867 243.061 97.0686C243.061 97.0686 233.509 102.124 237.163 109.287L222.557 105.477L220.309 98.4572L236.024 90.2566Z" fill="#575A89"/>
<path opacity="0.1" d="M274.253 102.45L264.702 124.736L256.294 139.528H229.308L221.442 119.304L224.625 98.3301H230.354C230.261 103.224 232.047 108.974 231.933 111.112C231.738 114.626 237.174 133.584 237.174 133.584C237.174 133.584 248.55 115.185 253.042 113.546C255.866 112.517 261.848 103.957 265.909 97.7247L274.253 102.45Z" fill="black"/>
<path d="M312.645 219.728L311.675 220.947C311.675 220.947 318.699 256.201 316.756 264.207C316.426 265.65 316.237 267.122 316.193 268.602V268.665C315.85 276.811 318.31 287.383 318.31 287.383C318.31 287.383 320.274 318.543 319.156 331.358H187.649C186.878 312.408 186.048 287.857 186.802 285.135C188.072 280.643 190.612 264.347 190.612 264.347L190.892 256.625C190.892 256.625 190.892 249.161 191.12 240.846C191.218 237.107 191.362 233.183 191.569 229.703C191.836 225.325 192.208 221.637 192.721 219.825C193.036 218.452 193.218 217.051 193.263 215.642C193.263 215.511 193.263 215.376 193.288 215.24C193.288 214.817 193.33 214.359 193.347 213.89C193.347 213.758 193.347 213.627 193.347 213.466C193.428 210.74 193.398 207.505 193.309 204.152C193.309 203.97 193.309 203.784 193.309 203.597C193.237 201.083 193.131 198.517 193.013 196.078C192.644 188.458 192.166 182.014 192.166 182.014L176.014 128.5L180.367 117.78L192.445 110.379L214.778 96.895C225.672 87.9407 232.844 89.016 235.579 89.9982C235.844 90.089 236.104 90.1949 236.358 90.3158C236.442 90.3581 236.51 90.392 236.573 90.4301C236.661 90.4713 236.744 90.5194 236.823 90.5741C236.074 90.9343 235.424 91.4704 234.927 92.1364C234.367 92.8942 233.967 93.7587 233.754 94.6765C233.611 95.2455 233.51 95.8242 233.453 96.408C233.398 97.022 233.377 97.6571 233.377 98.2964C233.407 99.6984 233.527 101.097 233.737 102.484C233.737 102.509 233.737 102.543 233.737 102.577C233.877 103.567 234.05 104.537 234.22 105.447C234.218 105.463 234.218 105.478 234.22 105.494C234.414 106.556 234.609 107.539 234.74 108.385C234.766 108.538 234.787 108.677 234.808 108.809C234.901 109.368 234.945 109.935 234.939 110.502C234.987 111.872 235.171 113.233 235.49 114.566C235.6 115.125 235.727 115.722 235.867 116.345C236.057 117.191 236.265 118.114 236.489 119.054C236.611 119.571 236.743 120.104 236.878 120.633C236.929 120.845 236.984 121.057 237.035 121.273L237.12 121.607C238.021 125.193 238.999 128.762 239.601 130.921C239.956 132.192 240.181 132.975 240.181 132.975C240.181 132.975 246.556 122.666 251.645 116.798C251.722 116.713 251.789 116.633 251.861 116.556C252.365 115.976 252.861 115.447 253.335 114.981C254.372 113.948 255.304 113.212 256.053 112.941C256.213 112.882 256.367 112.81 256.514 112.725C258.597 111.544 261.959 107.255 265.104 102.763C265.413 102.34 265.714 101.878 266.019 101.442C266.718 100.434 267.395 99.4225 268.034 98.4531C268.525 97.7121 268.995 96.9924 269.44 96.3065C271.557 93.0127 273.047 90.5571 273.047 90.5571L275.985 90.4258L276.497 90.4005H276.84L290.181 89.7823C290.181 89.7823 290.757 89.8798 291.705 90.0703C291.756 90.0703 291.807 90.0703 291.862 90.1041C296.595 91.044 309.745 94.0203 310.549 98.1482C311.531 103.203 332.742 109.948 332.742 109.948C333.022 113.334 338.217 115.566 338.217 115.566C338.217 115.566 346.083 136.353 343.979 144.499C341.9 152.543 349.389 172.441 349.588 173L348.153 174.812L312.645 219.728Z" fill="#E8F5FF"/>
<path opacity="0.1" d="M271.146 71.264C271.146 71.264 284.131 67.5807 287.082 75.1633C290.033 82.7459 296.633 113.368 296.633 113.368C296.633 113.368 279.495 116.599 275.003 113.368C272.368 111.451 269.107 110.598 265.871 110.981L256.18 117.581L253.318 116.734C253.318 116.734 268.822 93.6858 272.192 85.8535C275.562 78.0211 276.701 74.5198 271.146 71.264Z" fill="black"/>
<path d="M270.579 69.5706C270.579 69.5706 283.572 65.8873 286.536 73.4698C289.5 81.0524 296.087 111.675 296.087 111.675C296.087 111.675 278.953 114.905 274.457 111.675C271.824 109.758 268.564 108.905 265.329 109.287L255.63 115.887L252.768 115.041C252.768 115.041 268.272 91.9923 271.642 84.16C275.012 76.3276 276.134 72.8347 270.579 69.5706Z" fill="#E8F5FF"/>
<path opacity="0.1" d="M182.787 191.735C182.787 191.735 192.478 194.122 194.307 199.601C196.135 205.079 187.143 205.219 187.143 205.219C187.143 205.219 181.665 195.528 182.787 191.735Z" fill="black"/>
<path opacity="0.1" d="M219.027 232.184C219.027 232.184 195.293 280.783 200.771 285.419C206.249 290.055 219.027 232.184 219.027 232.184Z" fill="black"/>
<path opacity="0.1" d="M252.132 196.371C252.132 196.371 271.095 243.577 267.302 250.867C263.508 258.157 275.447 250.867 275.447 250.867L252.132 196.371Z" fill="black"/>
<path d="M278.571 243C278.571 243 214.524 246.091 233.207 266.036C251.89 285.981 290.231 266.883 290.231 266.883L278.571 243Z" fill="#FFC1C7"/>
<path opacity="0.1" d="M269.117 53.3849C269.122 57.9786 268.22 62.5281 266.462 66.7719C265.874 66.8397 265.285 66.882 264.718 66.9074C263.871 65.0488 264.324 62.9023 264.341 60.8574C264.358 58.8126 263.604 56.4078 261.636 55.8574C257.711 54.7524 255.002 62.0894 251.132 60.7643C248.168 59.7567 248.943 55.2605 247.237 52.6652C245.886 50.6118 243.181 50.0318 241.077 48.7448C236.602 45.9971 236.737 41.6025 234.658 37.445C232.482 33.0885 227.884 34.3755 223.892 36.9454C220.861 38.9014 218.244 41.5221 215.001 43.0801C212.194 44.4348 209.04 44.9259 205.928 44.998C204.013 45.0722 202.096 44.8697 200.238 44.3968C204.759 27.4016 221.181 16.3935 238.619 18.6692C256.058 20.945 269.105 35.7988 269.112 53.3849H269.117Z" fill="black"/>
<path d="M223.917 35.8237C220.882 37.7797 218.27 40.3962 215.026 41.9626C212.22 43.3132 209.065 43.8043 205.954 43.8763C202.143 43.9609 198.041 43.292 195.437 40.5401C193.045 37.9999 192.474 34.0922 193.485 30.7602C194.497 27.4283 196.923 24.6636 199.773 22.6611C202.622 20.6586 205.928 19.2741 207.817 16.4079C208.816 14.8922 209.298 13.1056 210.128 11.4926C212.783 6.33165 218.752 3.53739 224.523 3.19022C230.293 2.84307 236.013 4.56196 241.508 6.42479C247.004 8.28763 252.542 10.3367 258.342 10.722C260.924 10.8829 263.609 10.722 266.005 11.7C269.227 13.0082 271.339 16.137 272.779 19.3207C274.392 22.9109 275.395 26.8313 275.226 30.7517C274.87 39.1218 269.341 47.3352 271.771 55.3539C272.415 57.4919 273.621 59.685 272.978 61.823C272.038 64.9433 268.012 65.6545 264.756 65.8027C263.909 63.9441 264.362 61.7934 264.379 59.7527C264.396 57.7121 263.642 55.3031 261.678 54.7527C257.749 53.6562 255.039 60.9805 251.178 59.6596C248.236 58.6477 248.998 54.1557 247.287 51.5605C245.937 49.5029 243.227 48.9271 241.128 47.6401C236.653 44.8923 236.788 40.4977 234.709 36.3403C232.516 31.9626 227.914 33.2497 223.917 35.8237Z" fill="#99607E"/>
<path d="M161.33 196.93L158.1 198.056C158.1 198.056 159.37 217.158 155.136 222.637C150.903 228.115 169.04 241.735 169.04 241.735C169.04 241.735 193.9 241.595 194.603 239.618C195.306 237.641 193.333 204.224 193.333 204.224C193.333 204.224 179.989 199.025 181.11 190.74C181.11 190.74 177.037 210.262 171 209.419C164.963 208.576 158.108 203.534 161.33 196.93Z" fill="#E8F5FF"/>
<ellipse opacity="0.1" cx="172.094" cy="207.535" rx="8.52248" ry="7.79428" fill="black"/>
<path d="M181.368 197.492C181.368 197.492 179.675 145.807 164.933 157.323C150.191 168.839 150.047 182.611 152.854 186.68C155.661 190.748 164.662 211.117 164.662 211.117C167.518 212.772 170.995 212.958 174.011 211.617C177.027 210.277 179.218 207.572 179.904 204.343L181.368 197.492Z" fill="#FFC1C7"/>
<path opacity="0.1" d="M273.755 66.573C273.686 66.346 273.554 66.1432 273.374 65.9888C272.646 65.3241 271.08 65.0913 268.717 65.2945L268.814 66.4121C271.964 66.1412 272.587 66.7678 272.667 66.8736V66.9795L272.764 67.1191C273.559 68.1865 273.866 69.5391 273.611 70.8449C272.921 74.2954 268.683 77.043 268.641 77.0727L268.539 77.1319L268.476 77.2293C266.647 79.9431 256.304 87.6019 253.599 89.5833L253.361 89.3123C252.151 90.3623 241.507 99.6807 240.931 103.25C240.559 105.489 238.035 106.357 237.121 106.599C236.156 105.866 233.023 103.373 231.393 100.578C229.864 97.9491 236.016 92.8178 236.558 90.8153L235.711 89.9474C235.622 90.2692 227.722 97.6528 229.919 101.425C231.68 104.452 234.898 107.043 236.024 107.898C235.664 111.167 233.425 130.358 229.983 134.905C225.707 140.557 222.112 169.042 222.51 178.987C222.862 187.822 220.554 204.512 212.849 211.68C210.146 214.304 206.394 215.551 202.658 215.067H202.565H202.472C202.362 215.067 191.185 216.21 181.795 208.293C174.11 201.828 169.758 191.277 168.852 176.925H168.666L168.59 172.746C172.92 172.07 175.94 168.091 175.427 163.739C174.913 159.387 171.05 156.22 166.682 156.57C162.313 156.92 159.004 160.662 159.19 165.04C159.377 169.419 162.992 172.866 167.375 172.844L167.468 172.844L167.544 176.997L167.171 177.022C168.103 191.84 172.675 202.802 180.719 209.571C186.833 214.638 194.643 217.193 202.569 216.722C203.132 216.783 203.697 216.814 204.263 216.815C207.896 216.834 211.392 215.428 214.001 212.899C222.117 205.342 224.585 188.038 224.199 178.902C223.776 168.364 227.548 140.904 231.333 135.904C235.042 130.998 237.29 111.878 237.684 108.174C239.026 107.797 242.062 106.607 242.578 103.516C242.951 101.281 250.059 94.3928 254.432 90.5782L254.301 90.4259C256.655 88.7069 263.975 83.2878 267.604 79.8077C268.73 78.7281 269.848 77.6485 271.016 76.6197C272.422 75.3749 274.208 73.3979 274.678 71.0608C275.002 69.5016 274.668 67.8779 273.755 66.573Z" fill="black"/>
<path d="M235.906 107.632C235.728 107.509 231.511 104.491 229.399 100.858C227.206 97.0856 235.106 89.7064 235.19 89.3846L236.037 90.2524C235.499 92.2508 229.348 97.3863 230.876 100.011C232.803 103.326 236.858 106.226 236.901 106.256L235.906 107.632Z" fill="#353146"/>
<path d="M253.297 90.4046L252.637 89.4944C252.772 89.397 266.07 79.778 268.166 76.6662L268.234 76.5731L268.331 76.5096C268.373 76.4799 272.611 73.7365 273.302 70.2817C273.559 68.9773 273.251 67.6249 272.455 66.5603L272.357 66.4164V66.3148C272.273 66.2047 271.65 65.5823 268.501 65.8533L268.403 64.7314C270.77 64.5281 272.332 64.761 273.06 65.4257C273.242 65.5817 273.375 65.7857 273.446 66.0142C274.371 67.3152 274.717 68.941 274.402 70.5061C273.932 72.8474 272.15 74.8246 270.74 76.065C269.576 77.0938 268.454 78.1819 267.332 79.253C263.077 83.3301 253.763 90.0701 253.297 90.4046Z" fill="#E8F5FF"/>
<rect x="166.51" y="178.087" width="1.46213" height="6.82052" transform="rotate(-1.04972 166.51 178.087)" fill="#E8F5FF"/>
<circle cx="166.408" cy="164.114" r="8.19225" fill="#0031C1"/>
<circle cx="166.409" cy="164.114" r="6.80359" fill="#E8F5FF"/>
<path d="M203.645 216.269C203.079 216.27 202.514 216.24 201.951 216.18C194.026 216.647 186.218 214.091 180.101 209.029C172.057 202.255 167.493 191.307 166.553 176.476L168.247 176.37C169.153 190.723 173.505 201.277 181.193 207.738C190.584 215.634 201.757 214.512 201.867 214.512H201.96H202.053C205.79 214.994 209.542 213.747 212.248 211.125C219.949 203.957 222.256 187.268 221.905 178.432C221.481 168.479 225.076 139.994 229.356 134.346C233.103 129.397 235.427 107.09 235.453 106.865L235.516 106.23L236.143 106.12C236.181 106.12 239.839 105.426 240.296 102.691C240.889 99.1262 251.515 89.8077 252.722 88.7535L253.827 90.0237C249.437 93.834 242.328 100.726 241.973 102.966C241.456 106.065 238.421 107.251 237.083 107.623C236.659 111.332 234.428 130.447 230.732 135.354C226.947 140.354 223.175 167.814 223.598 178.352C223.962 187.488 221.52 204.796 213.403 212.348C210.79 214.884 207.286 216.292 203.645 216.269Z" fill="#353146"/>
<g opacity="0.1">
<path d="M272.735 43.3766C273.43 40.811 274.268 38.2284 274.852 35.6289C274.153 38.2411 273.311 40.811 272.735 43.3766Z" fill="black"/>
<path d="M265.652 63.5376C264.806 61.679 265.259 59.5283 265.276 57.4876C265.293 55.447 264.539 53.0591 262.574 52.4876C258.646 51.3911 255.936 58.7196 252.075 57.3945C249.111 56.3826 249.894 51.8907 248.184 49.2954C246.834 47.2378 244.128 46.662 242.028 45.3749C237.549 42.6273 237.684 38.2327 235.61 34.0751C233.43 29.7144 228.836 31.0015 224.839 33.5756C221.804 35.5316 219.192 38.1522 215.949 39.7145C213.142 41.065 209.987 41.5561 206.876 41.6281C203.087 41.717 198.963 41.0438 196.359 38.2919C194.352 36.1751 193.628 33.0718 194.043 30.1632C193.971 30.3622 193.908 30.5612 193.844 30.7601C192.828 34.0921 193.421 38.0083 195.796 40.5401C198.4 43.2919 202.523 43.9609 206.313 43.8763C209.429 43.8043 212.579 43.3131 215.39 41.9626C218.641 40.3961 221.254 37.7796 224.281 35.8237C228.277 33.2496 232.875 31.9626 235.051 36.3233C237.126 40.4808 236.994 44.8754 241.469 47.623C243.586 48.8932 246.275 49.4859 247.629 51.5435C249.323 54.1472 248.573 58.6307 251.52 59.6426C255.377 60.9635 258.087 53.6392 262.016 54.7357C263.98 55.2861 264.738 57.6993 264.717 59.7357C264.696 61.7721 264.255 63.9271 265.094 65.7857C268.349 65.6375 272.376 64.939 273.32 61.806C273.45 61.3564 273.51 60.8895 273.497 60.4216C272.122 62.7967 268.582 63.4064 265.652 63.5376Z" fill="black"/>
</g>
<path opacity="0.1" d="M343.005 167.857L347.92 173.056C347.92 173.056 351.853 201.705 353.818 204.385C355.782 207.065 360.422 217.726 356.066 225.732C356.066 225.732 354.66 230.088 355.503 231.913C356.346 233.737 349.186 242.87 349.186 242.87C349.186 242.87 339.775 251.295 337.806 252.561C335.837 253.826 325.448 263.937 321.938 264.076C318.428 264.216 317.281 268.573 317.281 268.573L297.476 269.275C297.476 269.275 286.536 268.704 284.156 270.249C284.156 270.249 285.426 253.534 273.204 242.578L288.792 236.959C288.792 236.959 294.694 234.419 296.519 231.765C297.667 230.137 299.295 228.91 301.176 228.255C301.176 228.255 305.528 225.164 305.668 223.479C305.808 221.794 310.99 219.728 310.99 219.728L308.056 194.686L309.601 153.111C309.601 153.111 314.516 118.276 324.91 120.244C335.304 122.213 343.005 167.857 343.005 167.857Z" fill="black"/>
<path d="M344.699 167.857L349.614 173.056C349.614 173.056 353.547 201.705 355.512 204.385C357.476 207.065 362.116 217.726 357.76 225.732C357.76 225.732 356.358 230.088 357.201 231.913C358.043 233.737 350.88 242.87 350.88 242.87C350.88 242.87 341.468 251.295 339.5 252.561C337.531 253.826 327.141 263.937 323.632 264.076C320.122 264.216 318.975 268.573 318.975 268.573L299.169 269.275C299.169 269.275 288.221 268.704 285.85 270.249C285.85 270.249 287.12 253.534 274.897 242.578L290.486 236.959C290.486 236.959 296.388 234.419 298.212 231.765C299.36 230.137 300.989 228.91 302.869 228.255C302.869 228.255 307.222 225.164 307.361 223.479C307.501 221.794 312.683 219.728 312.683 219.728L309.749 194.686L311.295 153.111C311.295 153.111 316.21 118.276 326.604 120.244C336.997 122.213 344.699 167.857 344.699 167.857Z" fill="#E8F5FF"/>
<path opacity="0.1" d="M326.426 209.855C326.426 209.855 340.892 206.045 344.686 210.702C348.479 215.359 326.426 209.855 326.426 209.855Z" fill="black"/>
<path opacity="0.1" d="M323.056 216.243C327.971 219.686 343.14 219.825 343.14 219.825L323.056 216.243Z" fill="black"/>
<path opacity="0.1" d="M330.499 233.45C330.922 233.589 340.926 244.267 345.126 241.037C349.326 237.806 330.499 233.45 330.499 233.45Z" fill="black"/>
<path opacity="0.1" d="M194.605 143.838C194.605 143.838 197.543 164.067 196.095 172.306C194.647 180.545 199.931 190.752 199.931 190.752L194.605 143.838Z" fill="black"/>
<path d="M128.922 152.064C125.535 154.719 123.063 161.002 121.272 167.907C118.147 179.952 117.127 193.919 117.127 193.919C117.127 193.919 90.1581 187.738 92.1225 184.931C93.3587 183.166 91.6991 169.863 90.3147 160.219C89.489 154.52 88.7524 150.096 88.7524 150.096C88.7524 150.096 138.194 144.757 128.922 152.064Z" fill="#FFCCD0"/>
<path opacity="0.1" d="M128.922 151.502C125.535 154.16 123.063 160.439 121.272 167.344C110.325 170.668 98.4366 167.717 90.3147 159.66C89.489 153.957 88.7524 149.533 88.7524 149.533C88.7524 149.533 138.194 144.198 128.922 151.502Z" fill="black"/>
<path d="M143.402 136.37C143.407 151.574 132.451 164.568 117.464 167.13C102.477 169.692 87.8266 161.076 82.7812 146.734C77.7357 132.391 83.7656 116.5 97.0556 109.115C110.346 101.73 127.024 105.002 136.539 116.861C140.979 122.394 143.4 129.276 143.402 136.37Z" fill="#FFCCD0"/>
<path opacity="0.1" d="M168.416 331.359H159.526L158.776 315.656L157.993 299.403C157.993 299.403 160.013 299.102 163.23 298.653L164.53 298.479H164.636C165.339 301.778 166.033 305.165 166.702 308.548C167.815 314.553 168.395 320.645 168.433 326.752C168.433 327.176 168.433 327.599 168.433 327.997C168.459 329.128 168.433 330.258 168.416 331.359Z" fill="black"/>
<path d="M165.652 331.358H54.1527C54.6353 330.262 54.9571 329.597 54.9571 329.597C54.9571 329.597 63.8776 290.571 68.4118 274.059C68.4132 274.045 68.4132 274.031 68.4118 274.017C68.9784 271.774 69.6623 269.562 70.461 267.391C70.5126 267.243 70.5793 267.101 70.66 266.968C72.9038 263.318 75.7151 259.385 71.7819 253.767C67.8488 248.149 69.2417 223.428 69.2417 223.428C69.2417 223.428 74.0173 202.357 79.0724 191.121C79.8395 189.38 80.9283 187.8 82.2815 186.463C82.7215 186.033 83.1912 185.634 83.6872 185.27C84.0642 184.986 84.4571 184.725 84.8642 184.486L84.9445 184.435C87.068 183.232 89.4261 182.499 91.8582 182.289C93.5858 182.108 95.3296 182.157 97.0445 182.433C105.241 183.635 111.803 185.646 117.019 187.937C131.156 194.148 135.436 202.471 135.521 202.645L135.554 202.717C136.122 204.042 144.42 223.415 147.409 232.454C148.184 234.808 148.607 236.464 148.438 236.917C147.591 239.16 154.898 267.251 154.898 267.251C154.898 267.251 158.285 280.799 161.672 296.68C161.82 297.34 161.96 298.001 162.096 298.67C162.701 301.553 163.302 304.491 163.882 307.425C165.006 313.472 165.585 319.607 165.614 325.757C165.676 327.673 165.689 329.541 165.652 331.358Z" fill="#FF748E"/>
<path opacity="0.1" d="M91.8318 172.628C91.8318 172.628 84.1392 169.664 84.2323 174.161C84.3255 178.657 86.1079 180.807 85.5448 181.464C84.9817 182.12 85.8242 186.053 85.8242 186.053C85.8242 186.053 96.2179 186.053 100.994 188.204C105.769 190.354 123.373 194.664 125.621 195.977C127.869 197.289 136.205 203.174 136.205 203.174L136.955 192.031C136.955 192.031 128.339 184.914 114.203 181.265C100.066 177.615 91.8318 172.628 91.8318 172.628Z" fill="black"/>
<path d="M91.8318 172.064C91.8318 172.064 84.1392 169.101 84.2323 173.597C84.3255 178.093 86.1079 180.244 85.5448 180.9C84.9817 181.557 85.8242 185.49 85.8242 185.49C85.8242 185.49 96.2179 185.49 100.994 187.645C105.769 189.8 123.373 194.105 125.621 195.414C127.869 196.722 136.205 202.611 136.205 202.611L136.963 191.501C136.963 191.501 128.348 184.385 114.211 180.735C100.075 177.086 91.8318 172.064 91.8318 172.064Z" fill="#FF748E"/>
<path opacity="0.1" d="M115.195 198.881C115.195 198.881 129.894 214.796 129.145 219.203C128.396 223.61 115.195 198.881 115.195 198.881Z" fill="black"/>
<path opacity="0.1" d="M91.0591 256.371C91.0591 256.371 80.2842 266.299 77.1089 266.862C73.9336 267.425 79.5433 269.297 83.1927 267.802C86.8422 266.308 94.6238 262.375 94.6238 262.375L91.0591 256.371Z" fill="black"/>
<path d="M170.968 331.358H145.841C142.327 328.31 139.004 325.486 136.887 323.788C133.5 321.07 131.057 317.07 129.499 313.852C129.148 313.119 128.843 312.433 128.585 311.811C128.122 310.739 127.715 309.644 127.365 308.53L145.972 297.48C147.001 298.355 147.967 299.299 148.864 300.308L149.088 300.566C150.121 301.786 151.032 303.17 151.112 304.305C151.205 305.626 154.88 310.736 158.635 315.643C162.446 320.634 166.349 325.406 166.608 325.727C166.608 325.727 167.251 326.604 168.301 327.95C169.042 328.924 169.956 330.092 170.968 331.358Z" fill="#FFCCD0"/>
<path opacity="0.1" d="M136.525 116.861C135.632 118.877 134.831 120.968 134.713 123.212C134.379 129.69 134.92 144.173 127.749 147.425C124.196 149.025 120.395 145.511 116.499 145.426C113.697 145.367 111.127 147.145 109.416 149.368C107.706 151.59 106.643 154.228 105.403 156.743C104.274 159.026 102.973 161.219 101.512 163.305C101.075 163.944 100.594 164.551 100.073 165.121C88.092 160.066 80.5057 148.107 81.0372 135.115C81.5685 122.122 90.1062 110.823 102.46 106.763C114.813 102.703 128.389 106.734 136.525 116.878V116.861Z" fill="black"/>
<path d="M133.531 122.069C133.192 128.546 133.738 143.03 126.562 146.277C123.01 147.878 119.208 144.368 115.313 144.283C112.51 144.22 109.945 146.002 108.23 148.22C106.515 150.439 105.461 153.081 104.216 155.6C103.087 157.882 101.786 160.076 100.326 162.162C99.4535 163.398 98.4883 164.639 97.1462 165.333C94.8091 166.552 91.9768 165.867 89.4704 165.083C86.2189 164.059 83.0154 162.904 79.8598 161.62C79.9322 161.144 79.9691 160.663 79.9699 160.181C79.8768 160.359 79.7752 160.524 79.6736 160.702L79.4745 161.049C79.1147 161.684 78.7633 162.319 78.4416 162.971C78.3188 163.221 78.2003 163.479 78.0944 163.737C77.6687 164.698 77.4012 165.722 77.3027 166.768C77.0867 169.592 78.4797 172.272 79.7159 174.812C84.4704 184.639 87.4085 196.129 83.8311 206.438C82.2815 210.922 79.5974 214.906 77.6371 219.237C74.2106 226.908 73.2018 235.441 74.7455 243.699C75.7236 248.831 77.6837 253.911 77.2011 259.114C76.3543 268.069 68.6321 274.732 60.897 279.313C56.7184 281.777 51.604 283.97 47.1671 282.023C49.9952 278.721 50.7234 274.152 51.333 269.843C53.0011 258.087 54.6735 246.326 56.35 234.559C57.0189 229.876 57.6865 225.194 58.3526 220.511C59.5973 211.714 60.8589 202.819 60.0799 193.966C59.5126 187.442 57.9123 180.515 60.7403 174.609C62.2349 171.481 64.8979 168.89 65.7277 165.519C66.4093 162.78 65.7743 159.867 66.2231 157.077C66.4687 155.808 66.8845 154.578 67.4593 153.42C68.1912 151.848 69.1466 150.391 70.2958 149.093C69.1613 148.762 68.1029 148.309 67.4593 147.361C69.2797 146.176 69.5551 143.504 68.7294 141.497C67.9038 139.491 66.2527 137.962 64.7666 136.379C63.2806 134.795 61.8496 132.949 61.6634 130.79C61.3034 126.679 65.4102 123.496 66.1341 119.44C66.8666 115.312 63.9707 111.298 64.2036 107.12C64.4745 102.069 69.1147 98.3981 73.6956 96.2685C80.6083 93.0685 88.2446 91.7539 95.8295 92.4582C102.002 93.0424 107.976 94.9519 114.132 95.6927C117.845 96.1162 121.609 96.1585 125.296 96.8104C128.984 97.4624 132.68 98.8384 135.275 101.544C142.117 108.678 133.92 114.55 133.531 122.069Z" fill="#FFE0D0"/>
<path opacity="0.1" d="M128.437 313.856C126.278 312.921 122.349 313.479 115.605 311.426C108.861 309.373 107.561 300.092 107.561 300.092V300.063C107.48 299.851 106.854 298.471 102.612 293.636C97.9249 288.297 87.7936 261.333 87.7936 261.333C87.7936 261.333 78.8096 251.684 79.0933 248.128C79.377 244.571 77.4972 235.109 77.6835 224.525C77.8698 213.94 97.9079 206.921 97.9079 206.921C136.49 200.083 127.404 244.563 126.375 247.933C125.347 251.303 130.685 260.405 130.685 260.405C129.932 264.368 133.776 270.503 133.776 270.503C133.776 270.503 134.707 275.93 134.898 277.992C134.908 278.088 134.93 278.181 134.961 278.272C135.58 280.215 140.618 281.976 142.667 283.047C144.822 284.174 151.752 294.004 151.752 294.004C153.247 301.223 130.588 314.805 128.437 313.856Z" fill="black"/>
<path d="M129.568 312.163C127.413 311.223 123.48 311.786 116.74 309.729C110 307.671 108.696 298.399 108.696 298.399V298.369C108.62 298.154 107.989 296.778 103.747 291.943C99.06 286.604 88.9287 259.635 88.9287 259.635C88.9287 259.635 79.9448 249.991 80.2242 246.434C80.5036 242.878 78.6324 233.416 78.8187 222.84C79.0049 212.264 99.0304 205.249 99.0304 205.249C137.612 198.411 128.527 242.891 127.498 246.261C126.469 249.631 131.808 258.733 131.808 258.733C131.054 262.696 134.898 268.831 134.898 268.831C134.898 268.831 135.83 274.258 136.025 276.32C136.032 276.416 136.052 276.51 136.084 276.6C136.702 278.543 141.74 280.304 143.793 281.375C145.944 282.497 152.879 292.332 152.879 292.332C154.382 299.538 131.723 313.12 129.568 312.163Z" fill="#FF748E"/>
<path opacity="0.1" d="M99.8434 228.471C99.8434 228.471 116.698 246.252 121.097 246.252C125.495 246.252 99.8434 228.471 99.8434 228.471Z" fill="black"/>
<path d="M129.733 312.163C127.577 311.223 123.644 311.786 116.904 309.728C110.164 307.671 108.86 298.399 108.86 298.399V298.369C113.327 295.406 124.639 287.036 129.097 283.975C132.235 281.828 134.796 278.674 136.295 276.583C136.913 278.526 141.951 280.287 144.004 281.358C146.155 282.48 153.09 292.315 153.09 292.315C154.546 299.538 131.887 313.12 129.733 312.163Z" fill="#FF748E"/>
<g opacity="0.1">
<path d="M67.4846 147.408C67.5058 147.441 67.5355 147.471 67.5609 147.505C67.6879 147.344 67.8191 147.183 67.9546 147.031C67.8103 147.171 67.6529 147.297 67.4846 147.408Z" fill="black"/>
<path d="M77.3069 166.815C77.4848 164.465 78.7421 162.395 79.9191 160.329C79.1486 160.032 78.378 159.732 77.616 159.418C77.6885 158.943 77.7253 158.464 77.726 157.983C76.5364 160.1 75.2408 162.183 75.0588 164.566C74.8429 167.395 76.2357 170.07 77.4721 172.611C82.2308 182.433 85.1647 193.923 81.5872 204.236C80.0334 208.716 77.3534 212.704 75.3932 217.035C71.9679 224.705 70.9607 233.236 72.5059 241.493C73.4754 246.629 75.4399 251.705 74.9572 256.908C74.1105 265.862 66.3924 272.526 58.6531 277.103C55.4905 278.974 51.7945 280.689 48.2594 280.566C47.9321 281.093 47.5671 281.595 47.1671 282.069C51.6082 284.029 56.7184 281.824 60.8971 279.351C68.6404 274.779 76.3755 268.132 77.2222 259.16C77.7048 253.957 75.7405 248.881 74.7667 243.745C73.221 235.49 74.2252 226.959 77.6456 219.287C79.5931 214.961 82.3026 210.968 83.8395 206.489C87.4171 196.175 84.4788 184.685 79.7242 174.863C78.4923 172.306 77.091 169.643 77.3069 166.815Z" fill="black"/>
<path d="M135.267 101.594C134.85 101.167 134.403 100.771 133.929 100.409C139.06 107.064 131.651 112.72 131.283 119.884C130.952 126.362 131.494 140.849 124.318 144.092C120.77 145.697 116.964 142.183 113.073 142.098C110.266 142.039 107.701 143.821 105.986 146.04C104.272 148.258 103.217 150.9 101.977 153.415C100.845 155.697 99.5432 157.891 98.0818 159.977C97.2351 161.218 96.2445 162.454 94.8981 163.153C92.5695 164.368 89.7372 163.686 87.2266 162.899C84.7852 162.131 82.3662 161.284 79.97 160.358C79.9651 160.799 79.9282 161.239 79.8599 161.675C83.0182 162.962 86.2231 164.116 89.4747 165.138C91.981 165.926 94.8134 166.607 97.1461 165.392C98.4882 164.694 99.462 163.453 100.33 162.213C101.792 160.129 103.093 157.937 104.221 155.655C105.465 153.14 106.515 150.494 108.234 148.275C109.953 146.057 112.515 144.279 115.317 144.338C119.212 144.423 123.018 147.937 126.566 146.332C133.742 143.089 133.196 128.601 133.531 122.124C133.92 114.592 142.117 108.724 135.267 101.594Z" fill="black"/>
</g>
<path opacity="0.1" d="M79.9358 161.053C79.5759 161.688 79.2245 162.323 78.9028 162.975C78.78 163.225 78.6614 163.483 78.5556 163.741C76.3372 161.506 70.9349 156.192 67.9205 154.546C68.6535 152.975 69.6088 151.517 70.7571 150.219C70.7571 150.219 77.9418 154.016 79.9358 161.053Z" fill="black"/>
<path d="M80.1351 160.706C78.4713 153.174 70.7575 149.097 70.7575 149.097C69.6082 150.395 68.6528 151.852 67.9208 153.424C71.1004 155.164 76.9598 160.998 78.9031 162.975L80.1351 160.706Z" fill="#FF748E"/>
<defs>
<linearGradient id="paint0_linear_94_4871" x1="274.064" y1="34.5515" x2="274.064" y2="34.5515" gradientUnits="userSpaceOnUse">
<stop offset="1" stop-color="#808080" stop-opacity="0.101961"/>
<stop offset="0.54" stop-color="#808080" stop-opacity="0.121569"/>
<stop stop-color="#808080" stop-opacity="0.25098"/>
</linearGradient>
<linearGradient id="paint1_linear_94_4871" x1="124.286" y1="82.8417" x2="124.286" y2="82.8417" gradientUnits="userSpaceOnUse">
<stop offset="1" stop-color="#808080" stop-opacity="0.101961"/>
<stop offset="0.54" stop-color="#808080" stop-opacity="0.121569"/>
<stop stop-color="#808080" stop-opacity="0.25098"/>
</linearGradient>
</defs>
</svg>
