<svg width="809" height="957" viewBox="0 0 809 957" fill="none" xmlns="http://www.w3.org/2000/svg">
<path d="M173.58 699.316C172.109 700.028 168.26 698.592 166.597 698.36C164.401 698.055 162.14 698.01 159.927 698.073C155.388 698.2 150.865 698.972 146.531 700.319C137.926 702.993 129.871 708.014 124.378 715.24C117.49 724.304 117.067 733.665 116.944 744.489C116.913 747.224 117.058 749.965 117.474 752.671C117.601 753.491 118.476 759.7 119.276 759.816C119.664 759.873 120.011 759.592 120.292 759.319C124.435 755.295 125.929 749.505 128.848 744.678C130.532 741.89 132.834 739.444 134.71 736.744C139.197 730.285 143.751 723.871 148.299 717.453C150.429 714.447 152.562 711.442 154.698 708.439L173.58 699.316Z" fill="#4B742A"/>
<path d="M120.063 825.881V882.443H121.339V825.881C121.339 780.905 131.068 745.726 152.157 720.594L151.715 720.855C130.423 746.242 120.063 780.595 120.063 825.881Z" fill="#90CC6A"/>
<path d="M110.642 848.334C114.492 854.662 116.449 861.926 116.449 869.946V882.421H116.597C116.959 882.421 117.32 882.431 117.692 882.431H117.725V869.946C117.725 868.489 117.66 867.064 117.533 865.659C117.32 863.255 116.927 860.927 116.343 858.672C115.353 854.758 113.799 851.079 111.725 847.675L110.642 848.334Z" fill="#568336"/>
<path d="M124.774 783.213C124.821 780.54 126.303 777.319 127.008 774.685C127.821 771.649 128.615 768.607 129.391 765.56C130.765 760.168 132.668 755.685 135.075 750.667C136.89 746.873 139.243 743.47 141.06 739.686C141.902 737.934 142.746 736.18 143.747 734.513C145.544 731.525 147.648 729.027 149.177 725.901C150.738 722.711 152.867 719.798 155.44 717.349C158.254 714.671 161.08 712.037 163.51 709.051C166.468 705.415 169.893 702.204 173.579 699.316C172.115 700.463 167.492 700.465 165.601 700.914C162.817 701.577 160.057 702.346 157.336 703.233C155.428 703.857 153.546 704.085 151.764 705.091C149.964 706.107 148.416 707.524 146.728 708.703C143.532 710.936 139.856 712.361 136.383 714.135C132.054 716.347 126.606 720.474 125.047 725.126C123.313 730.307 119.616 734.197 118.483 739.666C117.302 745.367 117.488 751.243 118.289 756.982L119.472 765.448C119.914 768.6 120.467 771.633 121.526 774.641C122.33 776.927 124.815 780.864 124.774 783.213Z" fill="#699D46"/>
<path d="M28.5449 844.131C29.1304 841.501 32.1731 838.438 33.875 836.37C36.0039 833.784 38.3991 831.387 41.2274 829.564C43.5103 828.093 46.0266 827.025 48.4085 825.722C53.5255 822.924 58.2331 818.967 63.9829 817.998C67.3686 817.428 70.8299 817.956 74.2215 818.484C79.9891 819.382 85.81 820.294 91.2523 822.408C96.6932 824.519 101.801 827.958 104.868 832.926C109.441 840.33 113.335 848.286 115.72 856.691C110.099 848.296 84.9347 838.061 84.9347 838.061L66.4328 837.377L51.3833 839.957L42.5018 841.852C40.4349 842.294 38.3237 842.581 36.2405 842.945C33.9178 843.352 30.8381 844.43 28.5449 844.131Z" fill="#568336"/>
<path d="M115.72 856.69C115.157 855.806 114.966 854.365 114.562 853.386C113.538 850.894 112.268 848.929 110.65 846.846C107.062 842.221 103.916 837.835 99.2023 834.206C97.471 832.873 95.6377 831.652 93.6357 830.773C91.9326 830.025 90.1303 829.536 88.3354 829.048C82.9759 827.591 77.4994 826.122 71.9566 826.451C69.9398 826.57 67.9425 826.926 65.9258 827.044C64.2877 827.14 62.6406 827.078 61.0098 827.244C58.0129 827.547 55.1519 828.606 52.3282 829.657L43.9879 832.759C42.2315 833.412 40.4499 834.079 38.9492 835.2C35.2471 837.963 32.2752 841.56 28.4814 844.3C29.3789 843.652 32.7365 843.815 33.9298 843.622C36.2479 843.249 38.5722 842.894 40.9097 842.657C45.6705 842.177 50.5332 842.147 55.1978 843.345C56.7709 843.75 58.319 844.291 59.9335 844.479C61.9369 844.711 63.9579 844.388 65.9582 844.122C74.3414 843.01 82.9109 842.902 91.2141 844.5C95.7457 845.372 100.188 846.762 104.371 848.718C108.252 850.535 113.356 852.98 115.72 856.69Z" fill="#699D46"/>
<path d="M173.435 756.679C173.42 756.99 173.391 757.3 173.376 757.596L173.332 758.128C173.066 761.485 172.533 764.648 171.646 767.916C171.055 770.015 170.892 772.292 170.759 774.569C168.955 782.08 165.998 790.537 161.134 798.565C157.911 801.921 154.289 804.952 151.391 808.604C150.208 810.097 149.158 811.694 147.975 813.187C146.26 815.346 144.368 817.135 142.313 818.672C139.326 820.698 136.044 822.546 132.451 824.158C131.948 824.38 131.416 824.602 130.899 824.823C131.58 824.53 130.298 816.801 130.245 815.942C130.047 812.8 130.089 809.62 130.738 806.527C131.157 804.527 131.826 802.587 132.321 800.603C133.766 794.828 133.82 788.517 136.975 783.47C139.039 780.168 142.258 777.723 144.377 774.457C144.971 773.542 145.472 772.569 146.067 771.654C146.952 770.287 148.097 769.137 149.352 768.108C150.399 767.251 151.315 766.266 152.341 765.416C153.663 764.323 155.455 763.646 156.909 762.722C158.44 761.746 159.911 760.667 161.228 759.411C162.12 758.563 162.939 757.636 163.88 756.84C165.314 755.629 166.992 754.765 168.692 753.991C169.458 753.642 170.106 753.292 170.802 752.846C171.516 752.387 173.074 751.935 173.568 751.268C172.977 752.066 173.494 755.674 173.435 756.679Z" fill="#4B742A"/>
<path d="M124.84 882.421C125.276 882.421 125.702 882.41 126.116 882.4C126.169 879.443 126.234 876.529 126.298 873.699C126.585 861.352 126.988 850.589 127.574 844.515C130.349 815.618 149.367 787.093 168.606 760.355L167.574 759.611C148.228 786.487 129.105 815.182 126.298 844.398C125.712 850.493 125.309 861.299 125.02 873.678C124.957 876.519 124.893 879.443 124.84 882.421Z" fill="#90CC6A"/>
<path d="M173.435 756.665V756.679C173.42 756.99 173.391 757.3 173.376 757.596L173.331 758.128C173.065 761.485 172.533 764.648 171.646 767.916C171.054 770.015 170.892 772.292 170.759 774.569C170.655 776.728 170.552 778.886 170.167 780.941C169.369 785.17 168.024 789.339 165.687 792.976C164.386 795.017 162.819 796.835 161.134 798.565C157.91 801.921 154.288 804.952 151.39 808.604C150.208 810.097 149.158 811.694 147.975 813.187C146.26 815.346 144.367 817.135 142.327 818.658C142.327 818.672 142.312 818.672 142.312 818.672C139.326 820.92 136.014 822.621 132.451 824.158C131.948 824.38 131.416 824.602 130.898 824.823C138.631 798.728 173.568 751.268 173.568 751.268C172.976 752.066 173.494 755.674 173.435 756.665Z" fill="#699D46"/>
<path d="M111.597 805.261C59.2449 783.496 61.4906 718.901 61.4906 718.901C65.1351 720.937 68.2592 723.763 72.0499 725.674C75.8912 727.609 80.0901 729.151 83.05 732.273C84.4192 733.714 85.457 735.434 86.7137 736.974C90.9763 742.197 97.6162 745.23 101.309 750.871C104.365 755.541 104.987 761.377 107.278 766.467C108.335 768.818 109.753 771.017 110.534 773.472C111.332 775.986 111.428 778.66 111.517 781.297C111.791 789.321 111.52 797.242 111.597 805.261Z" fill="#4B742A"/>
<path d="M79.9255 750.103C96.3679 772.959 112.63 797.335 115.001 822.052C115.704 829.402 116.118 843.888 116.342 858.672C116.427 863.734 116.48 868.829 116.533 873.678C116.554 876.709 116.576 879.645 116.597 882.421C116.959 882.421 117.32 882.431 117.692 882.431C117.672 879.645 117.649 876.709 117.618 873.668C117.596 871.051 117.565 868.371 117.533 865.659C117.331 848.6 116.916 830.477 116.087 821.946C113.683 796.964 97.3466 772.449 80.8082 749.475C80.6264 749.231 80.2863 749.167 80.0423 749.348C79.7969 749.528 79.7437 749.868 79.9255 750.103Z" fill="#90CC6A"/>
<path d="M111.597 805.261C109.607 804.434 107.543 803.796 105.588 802.964C103.74 802.176 102.278 800.66 100.591 799.603C98.4736 798.277 96.006 797.597 93.8799 796.287C91.8381 795.029 90.1894 793.24 88.5675 791.475L81.7783 784.081C79.9171 782.053 78.0466 780.016 76.5401 777.713C74.8576 775.14 73.3007 772.038 72.5955 769.029C71.911 766.116 70.5744 763.742 69.2702 761.009C67.5803 757.47 66.9312 753.884 66.1093 750.047C65.7174 748.218 65.3242 746.386 64.7742 744.599C64.2833 742.999 63.6667 741.439 63.1405 739.85C61.8097 735.845 60.8118 731.581 61.2585 727.351C61.4994 725.07 63.0002 720.952 61.4905 718.901C61.5984 719.047 102.519 774.676 111.597 805.261Z" fill="#699D46"/>
<path d="M120.706 878.163H158.383L149.292 938.986H120.706H92.121L83.0303 878.163H120.706Z" fill="#9F5027"/>
<rect x="380.265" y="266.346" width="93.8969" height="119.048" fill="#CFD5EE"/>
<rect x="386.854" y="274.699" width="80.7199" height="102.341" fill="#E8ECF7"/>
<rect x="631.467" y="266.346" width="145.931" height="157.978" fill="#CFD5EE"/>
<rect x="638.055" y="274.699" width="139.343" height="141.272" fill="#E8ECF7"/>
<rect x="485.812" y="266.346" width="50.243" height="51.729" fill="#CFD5EE"/>
<rect x="491.044" y="271.734" width="39.7769" height="40.9533" fill="#E8ECF7"/>
<rect x="486.388" y="324.141" width="62.325" height="74.4431" fill="#CFD5EE"/>
<rect x="491.973" y="330.812" width="51.1538" height="61.0998" fill="#E8ECF7"/>
<rect x="392.753" y="283.086" width="22.6599" height="20.025" fill="#CFD5EE"/>
<rect x="392.753" y="334.72" width="5.81356" height="5.13749" fill="#CFD5EE"/>
<rect x="400.87" y="334.72" width="62.2075" height="5.13749" fill="#CFD5EE"/>
<rect x="392.753" y="343.45" width="5.81356" height="5.13749" fill="#CFD5EE"/>
<rect x="400.87" y="343.45" width="62.2075" height="5.13749" fill="#CFD5EE"/>
<rect x="392.753" y="352.18" width="5.81356" height="5.13762" fill="#CFD5EE"/>
<rect x="400.87" y="352.18" width="62.2075" height="5.13762" fill="#CFD5EE"/>
<rect x="392.753" y="360.91" width="5.81356" height="5.13762" fill="#CFD5EE"/>
<rect x="400.87" y="360.91" width="62.2075" height="5.13762" fill="#CFD5EE"/>
<rect x="392.753" y="310.739" width="37.0404" height="20.025" fill="#CFD5EE"/>
<rect x="433.775" y="310.739" width="29.3365" height="20.025" fill="#CFD5EE"/>
<rect x="418.52" y="283.086" width="45.8971" height="2.89464" fill="#CFD5EE"/>
<rect x="418.52" y="287.894" width="45.8971" height="2.89464" fill="#CFD5EE"/>
<rect x="418.52" y="292.703" width="28.4748" height="2.89464" fill="#CFD5EE"/>
<rect x="418.52" y="297.511" width="28.4748" height="2.89477" fill="#CFD5EE"/>
<rect x="497.181" y="337.112" width="18.0723" height="15.9707" fill="#CFD5EE"/>
<rect x="517.731" y="337.112" width="20.5185" height="2.30858" fill="#CFD5EE"/>
<rect x="517.731" y="340.947" width="20.5185" height="2.30871" fill="#CFD5EE"/>
<rect x="517.731" y="344.782" width="12.7298" height="2.30871" fill="#CFD5EE"/>
<rect x="517.731" y="348.616" width="12.7298" height="2.30858" fill="#CFD5EE"/>
<rect x="497.181" y="357.866" width="18.0723" height="15.9708" fill="#CFD5EE"/>
<rect x="497.181" y="377.047" width="41.4358" height="10.2958" fill="#CFD5EE"/>
<rect x="517.731" y="357.866" width="20.5185" height="2.30858" fill="#CFD5EE"/>
<rect x="517.731" y="361.701" width="20.5185" height="2.30858" fill="#CFD5EE"/>
<rect x="517.731" y="365.535" width="12.7298" height="2.30871" fill="#CFD5EE"/>
<rect x="517.731" y="369.37" width="12.7298" height="2.30871" fill="#CFD5EE"/>
<rect x="506.672" y="275.432" width="8.52209" height="8.52209" fill="#CFD5EE"/>
<rect x="495.388" y="288.531" width="6.23806" height="6.23806" fill="#CFD5EE"/>
<rect x="507.48" y="288.531" width="6.23806" height="6.23806" fill="#CFD5EE"/>
<rect x="520.239" y="288.531" width="6.23806" height="6.23806" fill="#CFD5EE"/>
<rect x="495.388" y="300.291" width="6.23806" height="6.23806" fill="#CFD5EE"/>
<rect x="507.48" y="300.291" width="6.23806" height="6.23806" fill="#CFD5EE"/>
<rect x="520.239" y="300.291" width="6.23806" height="6.23806" fill="#CFD5EE"/>
<path d="M510.43 283.877C510.469 285.509 510.596 287.139 510.806 288.757" stroke="#CFD5EE"/>
<path d="M499.062 289.342C498.469 288.501 498.642 287.217 499.436 286.562C499.842 286.227 500.36 286.061 500.873 285.94C502.54 285.548 504.273 285.576 505.985 285.604L520.231 285.845C520.691 285.853 521.172 285.866 521.572 286.092C522.756 286.76 522.374 288.545 522.837 289.822" stroke="#CFD5EE"/>
<path d="M498.332 294.235C498.342 296.697 498.464 299.16 498.694 301.611" stroke="#CFD5EE"/>
<path d="M498.426 297.067C500.893 296.724 503.402 296.686 505.88 296.954C506.829 297.056 507.865 297.252 508.469 297.991C509.144 298.816 509.041 300.01 509.351 301.03" stroke="#CFD5EE"/>
<path d="M523.762 294.114C523.579 296.491 523.485 298.875 523.482 301.258" stroke="#CFD5EE"/>
<rect x="691.275" y="347.704" width="25.6321" height="23.3435" transform="rotate(-9.67725 691.275 347.704)" fill="#98C4F9"/>
<rect x="743.376" y="403.511" width="21.5126" height="20.1395" transform="rotate(11.8535 743.376 403.511)" fill="white"/>
<rect x="653.523" y="310.329" width="21.5126" height="20.1394" fill="white"/>
<rect x="699.56" y="386.426" width="28.8361" height="18.3086" transform="rotate(13.6026 699.56 386.426)" fill="#F5A860"/>
<rect x="733.427" y="311.701" width="20.1396" height="20.5973" fill="#D09479"/>
<path d="M666.365 310.485C666.365 311.65 665.421 312.594 664.257 312.594C663.091 312.594 662.147 311.65 662.147 310.485C662.147 309.321 663.091 308.377 664.257 308.377C665.421 308.377 666.365 309.321 666.365 310.485Z" fill="#F5A860"/>
<rect x="769.82" y="663.818" width="741.224" height="76.8832" transform="rotate(-180 769.82 663.818)" fill="#ABB6D8"/>
<rect x="774.875" y="940.375" width="10.1089" height="367.225" transform="rotate(-180 774.875 940.375)" fill="#534E7A"/>
<rect x="33.6504" y="940.375" width="10.1094" height="367.225" transform="rotate(-180 33.6504 940.375)" fill="#534E7A"/>
<path d="M5.80092 597.554C16.2022 606.411 45.5411 600.719 58.9178 600.719H181.55H467.94H719.595C741.754 600.719 798.973 609.76 807.98 583.961C811.905 572.713 803.283 560.229 792.34 555.517C781.4 550.805 768.97 551.765 757.087 552.618C649.416 560.342 541.337 552.085 433.484 547.556C339.926 543.632 246.274 542.514 152.639 541.397C115.752 540.954 78.5599 540.54 42.3457 547.579C28.8348 550.204 14.5886 554.443 5.94624 565.157C-0.615301 573.298 -3.18362 589.905 5.80092 597.554Z" fill="#F1C8B9"/>
<path d="M207.948 457.029C189.206 477.639 175.009 502.357 166.646 528.926C164.2 536.696 166.269 548.773 168.584 556.498C173.789 573.883 182.272 586.105 198.55 589.868C205.984 591.586 213.663 591.33 221.259 591.065C239.647 590.424 267.994 569.012 288.132 569.077C317.708 569.171 339.371 590.548 366.156 586.652C376.854 585.096 379.468 577.397 386.516 568.404C394.956 557.641 401.145 537.751 397.809 524.015C389.942 491.632 346.331 470.682 341.933 444.324" fill="#191C26"/>
<path d="M315.333 121.375C315.333 121.375 320.082 155.893 306.462 162.979C295.626 168.617 301.095 127.509 301.095 127.509" fill="#191C26"/>
<path d="M233.147 233.729C233.147 233.729 242.289 242.514 245.949 250.959C262.937 254.747 272.551 255.13 284.546 251.475C291.506 249.338 304.598 240.823 305.533 235.57C302.911 230.625 294.177 229.601 290.512 228.264C289.234 228.042 287.693 227.86 287.208 227.489L287.082 227.372C286.521 226.979 286.108 226.631 285.996 226.192C285.247 223.727 284.982 222.615 284.931 221.326C284.853 220.286 284.899 219.154 284.893 217.122C284.74 212.057 284.702 206.45 284.702 206.45L275.048 201.653L236.152 171.145L236.896 182.704C236.896 182.704 241.314 216.008 238.837 230.87C238.609 232.172 234.191 232.877 233.147 233.729Z" fill="#FE9C70"/>
<path d="M256.988 197.563C256.988 197.563 261.423 213.597 284.931 221.327C284.854 220.287 284.899 219.154 284.894 217.122C284.739 212.057 284.702 206.45 284.702 206.45L275.048 201.653L256.988 197.563Z" fill="#D79580"/>
<path d="M311.271 172.824C311.249 173.323 311.231 173.839 311.199 174.36C310.735 183.863 309.832 197.734 303.874 204.498C297.239 212.054 290.808 211.256 280.863 209.762C273.002 208.582 264.131 205.455 256.532 201.043C250.857 197.737 245.883 193.68 242.571 189.183C238.98 184.303 232.788 183.257 230.365 177.769C223.195 161.611 229.103 147.179 241.169 134.23C252.316 122.249 285.971 106.35 302.181 112.324C312.389 116.101 311.99 157.514 311.271 172.824Z" fill="#FE9C70"/>
<path d="M302.663 132.164L302.475 132.24C293.639 135.829 284.167 137.645 274.638 137.722C271.095 137.75 267.543 138.446 264.043 138.164C261.951 137.995 258.217 136.14 256.293 137.545C253.882 139.307 255.697 150.07 255.546 152.857C255.164 159.314 254.141 166.106 251.846 170.122C249.731 173.83 250.153 156.709 240.872 154.938C235.135 153.846 239.493 178.99 236.431 180.686C237.811 187.923 239.61 204.703 239.504 213.693C234.764 217.29 234.319 192.874 230.334 188.447C226.358 184.035 204.812 158.547 202.5 144.252C199.955 128.541 206.422 116.82 220.76 114.802C216.75 105.002 224.614 95.2283 233.444 91.2976C242.095 87.4521 254.953 84.2113 269.285 91.3348C270.257 91.8164 277.175 88.5783 278.583 88.2306C281.958 87.3952 285.407 86.8253 288.875 86.5743C295.492 86.0952 302.517 86.6456 308.575 89.5528C322.388 96.1888 322.915 116.506 312.064 126.597C309.381 129.091 306.055 130.772 302.663 132.164Z" fill="#191C26"/>
<path d="M292.2 157.312C292.944 162.123 294.089 166.869 295.621 171.49C295.891 172.3 296.758 173.745 296.62 174.603C296.478 175.495 295.546 175.825 294.868 176.307C293.121 177.556 291.567 179.075 290.287 180.799" stroke="#EF8359"/>
<path d="M274.595 154.947C275.055 156.483 275.157 158.122 274.895 159.704C274.79 160.334 274.214 161.132 273.698 160.75C273.561 160.65 273.487 160.488 273.424 160.331C272.775 158.669 272.974 156.703 273.943 155.206C274.205 155.255 274.43 155.471 274.49 155.731" stroke="#191C26" stroke-width="0.98513"/>
<path d="M301.092 156.189C302.17 157.572 302.409 159.561 301.685 161.157C301.56 161.431 301.348 161.731 301.049 161.713C300.822 161.699 300.653 161.502 300.528 161.312C299.644 159.938 299.77 157.994 300.822 156.745C300.964 156.577 301.146 156.409 301.368 156.403C301.711 156.4 301.922 156.771 302.027 157.098C302.363 158.139 302.403 159.273 302.141 160.334C302.047 160.707 301.845 161.137 301.463 161.178C301.08 161.217 300.79 160.841 300.636 160.49C300.069 159.182 300.28 157.568 301.169 156.452" stroke="#191C26"/>
<path d="M277.605 145.187C275.835 143.024 272.666 142.784 269.869 142.793C265.89 142.807 261.712 143.035 258.319 145.119" stroke="#191C26"/>
<path d="M297.978 144.873C302.011 141.946 307.962 142.011 311.935 145.021" stroke="#191C26"/>
<path d="M245.145 159.091C245.145 159.091 252.997 178.468 265 179.368" stroke="white" stroke-width="0.561281"/>
<path d="M236.799 180.643C236.799 180.643 245.161 196.183 259.747 201.66" stroke="white" stroke-width="0.561281"/>
<path d="M311.468 169.418C311.468 177.365 311.28 196.106 303.874 204.498C297.222 212.04 290.808 211.256 280.864 209.763C273.002 208.583 264.132 205.456 256.532 201.043C258.693 196.334 261.526 187.789 259.833 177.844C259.833 177.844 274.165 175.031 283.417 172.528C292.661 170.008 296.361 169.107 300.081 168.608C303.803 168.127 308.748 169.367 311.468 169.418Z" fill="white"/>
<path d="M248.177 162.232C247.627 160.946 246.401 158.238 243.973 156.354C241.416 154.373 233.974 152.934 230.365 160.522C226.4 168.851 236.137 192.531 245.122 182.903C252.21 175.307 250.289 167.158 248.177 162.232Z" fill="#FE9C70"/>
<path d="M234.893 162.397C234.893 162.397 237.706 157.914 242.184 161.466C245.824 164.35 246.611 175.721 242.212 177.819C237.714 179.965 234.075 174.469 236.665 169.905C237.175 169.008 237.877 168.466 238.643 168.25C242.449 167.183 241.913 163.253 240.177 161.993C239.08 161.2 236.802 161.05 234.893 162.397Z" fill="#FE9C70"/>
<path d="M353.377 818.817C351.849 827.271 345.156 839.086 345.156 839.086L345.678 856.986L355.241 861.251L382.291 837.746C382.291 837.746 383.927 824.153 383.437 824.449L353.377 818.817Z" fill="#FE9C70"/>
<path d="M430.15 890.167C425.928 893.711 406.611 894.544 394.132 892.417C381.656 890.322 369.855 881.974 364.773 879.044C359.66 876.086 338.74 874.271 336.831 871.222C335.565 869.154 336.212 867.307 336.768 866.291C337.076 865.768 337.352 865.458 337.352 865.458C336.922 854.583 341.822 838.438 343.823 837.885C345.827 837.361 345.855 844.385 347.089 846.851C348.289 849.347 352.664 852.737 358.61 850.208C364.587 847.682 366.9 839.579 373.706 838.163C380.547 836.746 383.349 838.071 383.349 838.071C390.466 842.629 401.218 858.589 408.892 865.058C416.562 871.497 428.114 876.395 430.178 878.43C432.276 880.462 431.196 884.991 431.196 884.991C431.196 884.991 431.258 885.022 431.35 885.082C431.905 885.454 433.784 887.086 430.15 890.167Z" fill="#191C26"/>
<path d="M441.449 553.354C441.314 513.945 375.65 488.83 375.65 488.83L316.14 524.087C316.14 524.087 313.447 573.817 335.905 582.255C344.139 585.35 350.803 588.908 355.977 592.18C355.264 597.214 354.711 602.282 354.247 607.324C349.552 658.312 350.723 709.744 355.558 760.764C355.395 771.438 355.222 781.725 354.925 790.887C354.4 807.097 350.966 826.819 350.966 826.819C368.328 836.558 383.001 831.424 383.001 831.424C383.001 831.424 432.567 665.05 432.567 617.432L432.564 617.269C437.561 593.435 441.503 569.747 441.449 553.354Z" fill="#191C26"/>
<path d="M430.15 890.168C425.928 893.712 406.611 894.544 394.132 892.417C381.656 890.324 369.855 881.974 364.773 879.047C359.66 876.088 338.74 874.271 336.831 871.221C335.565 869.155 336.212 867.309 336.768 866.29C342.438 866.784 348.443 868.386 350.846 868.602C354.175 868.879 357.624 868.756 360.737 869.988C363.171 870.975 365.172 872.761 367.207 874.394C383.719 887.395 406.548 891.893 426.729 886.133C428.24 885.702 429.81 885.177 431.35 885.083C431.905 885.454 433.784 887.087 430.15 890.168Z" fill="white"/>
<path d="M342.934 469.946C367.436 483.466 391.527 499.251 411.867 518.469C421.132 527.219 429.095 538.387 431.895 550.818C433.901 559.728 428.465 581.815 427.274 590.868C416.918 669.528 399.5 745.815 382.34 823.272" stroke="#EEF2FA" stroke-width="0.896965" stroke-linecap="round" stroke-linejoin="round"/>
<path d="M362.163 459.246C362.634 461.167 362.827 463.145 362.959 465.399C363.024 466.543 362.539 478.483 362.528 478.477C338.727 470.18 312.284 469.656 288.173 477.001C273.531 481.462 257.425 481.813 242.432 478.648C234.802 477.038 227.359 474.498 220.345 471.086C217.996 469.943 201.147 461.677 201.609 458.961C203.482 447.922 206.854 437.149 209.904 426.395C212.19 418.337 214.046 410.236 215.513 402.207C224.084 356.028 220.801 312.202 221.91 292.013C224.458 245.891 234.095 233.139 234.414 232.737L239.163 234.786C257.91 242.858 279.442 241.017 296.53 229.872C296.53 229.872 298.827 232.517 302.413 241.128C303.548 243.856 304.808 247.194 306.179 251.236C309.1 259.946 312.481 271.938 315.984 288.276C324.182 326.603 330.065 388.926 336.615 407.301C341.113 419.927 347.604 431.922 354.079 443.626C356.155 447.377 358.526 451.019 360.496 454.819C361.279 456.327 361.801 457.769 362.163 459.246Z" fill="white"/>
<path d="M221.909 292.013C220.607 315.72 225.358 371.978 209.903 426.394C207.993 433.153 206.346 438.634 204.921 443.12C201.734 453.16 199.699 458.102 198.496 460.514C196.335 461.551 194.286 462.589 192.362 463.615C189.341 465.223 181.87 471.785 178.261 470.171C177.184 469.689 176.414 468.715 175.764 467.728C172.153 462.255 174.239 456.458 175.205 450.461C175.496 448.645 175.787 446.778 176.078 444.851C176.964 439.119 177.851 432.888 178.709 426.326C181.67 403.229 184.081 376.12 183.181 353.174C182.032 324.402 175.647 304.561 170.787 290.742C166.857 279.551 163.921 272.311 165.568 267.38C165.802 266.702 166.315 265.969 167.133 265.125C171.757 260.252 185.23 253.425 199.616 247.039C212.326 241.39 225.746 236.075 234.385 232.75C234.095 233.138 224.457 245.891 221.909 292.013Z" fill="#7A86DE"/>
<path d="M368.249 461.836C368.908 470.045 367.751 477.995 360.372 483.163C356.352 481.43 353.245 478.012 351.108 474.196C348.967 470.379 347.696 466.146 346.468 461.948C343.343 451.273 342.548 440.304 340.447 429.376C336.135 406.946 331.286 384.745 327.925 362.136C324.263 337.486 321.196 312.661 315.982 288.276C310.857 264.361 305.998 249.755 302.412 241.127C298.937 232.779 296.665 230.037 296.54 229.886C302.91 232.251 314.001 236.504 325.451 241.487C340.476 248.023 356.121 255.804 362.56 262.243C363.515 263.198 364.333 264.156 364.998 265.11C369.29 271.231 367.905 277.322 365.04 285.146C361.853 293.883 356.843 304.78 355.831 320.317C355.486 325.605 355.583 333.084 355.999 341.875C356.469 351.943 357.341 363.726 358.422 375.897C359.474 387.846 360.705 400.168 361.939 411.621C362.492 417.02 363.073 422.228 363.612 427.101C363.723 428.139 363.835 429.15 363.945 430.146C364.498 435.035 365.026 439.521 365.496 443.509C366.143 448.998 367.74 455.494 368.249 461.836Z" fill="#7A86DE"/>
<path d="M391.111 474.997C391.111 474.997 394.141 495.067 378.902 515.798C375.071 527.111 377.911 535.063 367.261 541.454C364.376 547.372 363.051 552.673 358.932 550.637C355.29 554.756 351.55 557.644 349.279 549.03C345.254 553.055 339.336 546.949 340.895 517.365C341.035 504.727 347.591 492.587 369.066 470.04C382.625 465.283 391.111 474.997 391.111 474.997Z" fill="#FE9C70"/>
<path d="M342.164 508.436C342.164 508.436 330.671 519.64 334.317 523.568C337.281 525.087 340.722 521.575 340.722 521.575C340.722 521.575 367.364 496.774 342.164 508.436Z" fill="#FE9C70"/>
<path d="M349.279 549.03C349.279 549.03 346.351 522.299 347.7 519.317" stroke="#EF8054" stroke-width="1.0586"/>
<path d="M358.933 550.638C358.933 550.638 356.576 526.062 357.747 519.566" stroke="#EF8054" stroke-width="1.0586"/>
<path d="M367.261 541.454C367.261 541.454 365.819 523.132 369.699 515.028" stroke="#EF8054" stroke-width="1.0586"/>
<path d="M400.528 454.089C400.391 454.643 400.265 455.181 400.126 455.723C393.106 484.315 389.548 493.413 389.548 493.413C384.577 493.413 358.171 482.086 358.171 482.086L360.816 455.36L361.441 449.118L363.612 427.102L366.8 394.895C366.8 394.895 363.433 387.028 358.422 375.898C348.272 353.299 331.338 317.285 322.06 306.596L356.469 273.349L364.998 265.111C385.007 290.548 405.057 337.291 409.336 385.549C411.023 404.738 405.847 432.195 400.528 454.089Z" fill="#7A86DE"/>
<path d="M179.908 472.369C179.908 472.369 187.35 489.83 209.66 498.851C218.266 505.974 219.91 513.696 231.526 513.557C236.728 516.848 240.384 520.417 242.665 516.775C247.588 518.263 251.98 518.727 249.56 510.754C254.739 511.98 256.45 504.217 240.684 481.433C234.365 471.444 223.186 464.997 195.024 457.598C181.892 460.468 179.908 472.369 179.908 472.369Z" fill="#FE9C70"/>
<path d="M235.288 474.948C235.288 474.948 249.936 478.223 248.964 483.141C247.351 485.805 242.888 484.699 242.888 484.699C242.888 484.699 209.504 478.041 235.288 474.948Z" fill="#FE9C70"/>
<path d="M249.561 510.755C249.561 510.755 238.763 488.04 236.227 486.33" stroke="#EF8054" stroke-width="1.0586"/>
<path d="M242.665 516.775C242.665 516.775 232.472 496.056 228.351 491.458" stroke="#EF8054" stroke-width="1.0586"/>
<path d="M231.526 513.558C231.526 513.558 223.676 498.262 216.61 493.719" stroke="#EF8054" stroke-width="1.0586"/>
<path d="M209.669 461.856C209.669 461.856 203.076 463.436 196.583 467.047C191.35 469.958 186.199 474.165 184.591 479.94C184.591 479.94 182.046 476.949 178.403 472.115C176.741 469.886 174.832 467.284 172.851 464.391C168.088 457.495 162.826 448.978 159.018 440.45C147.525 414.694 143.551 409.446 143.095 389.702C142.568 367.229 144.202 344.894 147.525 322.672C150.393 303.52 154.768 283.747 165.568 267.38C166.052 266.633 166.552 265.901 167.076 265.18C167.09 265.151 167.104 265.139 167.119 265.111L167.133 265.126L176.881 278.086L202.634 312.299C207.466 328.541 192.858 395.627 192.858 395.627L203.008 435.576L204.242 440.45L204.92 443.121L209.669 461.856Z" fill="#7A86DE"/>
<path d="M236.377 238.999C236.377 238.999 260.206 257.683 291.712 238.999" stroke="#DBE3DF" stroke-width="0.485776"/>
<path d="M332.036 403.042C332.036 403.042 320.472 394.049 302.227 397.412" stroke="#DBE3DF" stroke-width="0.485776"/>
<path d="M301.261 834.129L300.041 822.443L274.097 823.022L274.123 840.483L278.845 858.862C278.845 858.862 299.5 859.073 299.667 858.657C299.836 858.243 304.622 838.134 304.622 838.134L301.261 834.129Z" fill="#FE9C70"/>
<path d="M309.071 864.073C305.776 877.66 293.297 875.933 295.454 888.688C296.101 892.539 295.794 895.282 294.899 897.345C295.329 901.753 292.681 902.798 292.681 902.798C271.115 911.025 251.028 901.073 250.535 898.087C250.197 896.113 250.626 895.684 250.874 893.495C250.843 893.371 250.843 893.281 250.843 893.155C250.626 891.739 250.689 889.952 251.089 888.073C252.323 882.187 262.612 870.974 264.893 862.347C267.142 853.72 269.083 845.773 271.7 842.353C274.318 838.963 283.223 837.33 290.586 839.519C297.949 841.705 299.337 846.451 301.677 842.936C304.017 839.394 301.278 834.126 301.278 834.126C305.066 833.171 308.979 844.696 308.301 857.141C308.301 857.326 308.27 857.542 308.27 857.724C309.039 859.452 309.686 861.516 309.071 864.073Z" fill="#191C26"/>
<path d="M300.149 776.824C299.066 755.262 297.204 731.931 294.676 710.4C292.025 687.851 288.798 665.37 284.994 642.986C282.491 628.246 279.678 613.415 274.478 599.349C274.256 598.747 274.008 598.149 273.777 597.547C270.853 583.173 266.99 568.886 259.579 556.701C251.151 542.846 237.261 532.006 222.131 532.202C217.069 532.268 211.812 533.681 208.03 537.393C204.515 540.844 165.819 543.074 166.91 548.107C175.604 588.176 193.43 622.847 207.973 656.594C219.463 688.358 231.036 720.094 242.773 751.768C252.641 778.394 260.771 805.894 272.478 831.708C278.164 831.519 283.711 831.727 289.209 830.858C290.038 830.726 304.299 829.449 304.219 827.896C304.211 827.742 301.663 806.929 300.149 776.824Z" fill="#191C26"/>
<path d="M309.071 864.072C305.776 877.66 293.297 875.933 295.454 888.689C296.101 892.539 295.794 895.282 294.899 897.345C295.329 901.752 292.681 902.798 292.681 902.798C271.115 911.024 251.028 901.073 250.535 898.086C250.197 896.114 250.626 895.683 250.874 893.494C250.843 893.371 250.843 893.28 250.843 893.155C253.463 894.696 256.512 895.344 259.5 895.896C267.726 897.408 276.197 898.3 284.578 897.471C290.002 896.946 290.555 897.222 290.464 891.923C290.338 885.208 291.016 876.457 297.242 872.421C298.257 871.743 299.365 871.25 300.383 870.574C304.758 867.678 306.637 862.284 308.238 857.261C308.238 857.234 308.27 857.172 308.301 857.141C308.301 857.326 308.27 857.542 308.27 857.725C309.039 859.452 309.686 861.515 309.071 864.072Z" fill="white"/>
<g style="mix-blend-mode:multiply" opacity="0.5">
<path d="M231.791 933.78C232.039 942.401 302.09 946.696 354.674 945.189C407.258 943.681 428.408 936.022 422.22 928.324C412.842 916.656 379.285 918.874 326.7 920.382C274.113 921.89 231.546 925.164 231.791 933.78Z" fill="#BED3E3"/>
</g>
<path d="M170.231 264.743C177.169 269.242 182.345 276.385 184.461 284.377" stroke="#596BC1" stroke-width="0.896965"/>
<path d="M358.21 377.232C356.254 360.913 357.628 344.407 357.711 327.974C357.79 311.539 356.465 294.67 349.541 279.765" stroke="#596BC1" stroke-width="0.896965"/>
<path d="M190.229 394.111C183.519 390.615 176.043 388.594 168.483 388.228" stroke="#596BC1" stroke-width="0.896965"/>
<path d="M189.435 389.622C188.064 386.267 186.664 382.863 184.407 380.03C182.147 377.2 178.868 374.97 175.248 374.826C175.175 378.907 178.338 382.812 182.346 383.585" stroke="#596BC1" stroke-width="0.896965"/>
<path d="M334.172 376.972L341.808 373.737" stroke="#596BC1" stroke-width="0.896965"/>
<path d="M327.146 335.16H329.457" stroke="#596BC1" stroke-width="0.896965"/>
<path d="M358.172 482.085C359.295 464.507 361.447 439.852 364.69 422.541" stroke="#596BC1" stroke-width="0.896965"/>
<path d="M367.162 395.927L372.948 388.416C375.291 385.372 378.618 381.975 382.314 383.009C382.574 384.135 381.466 385.343 380.319 385.184" stroke="#596BC1" stroke-width="0.896965"/>
<path d="M367.185 397.497C371.138 394.055 377.058 393.054 381.921 395.012" stroke="#596BC1" stroke-width="0.896965"/>
<path d="M361.803 263.272H359.237" stroke="#596BC1" stroke-width="0.896965"/>
<path d="M171.818 263.222C174.851 263.213 177.841 264.852 179.466 267.415" stroke="#596BC1" stroke-width="0.896965"/>
<path d="M209.669 461.857C205.895 449.928 203.167 435.708 199.393 423.778C197.292 417.131 195.183 410.453 194.149 403.558C189.494 372.511 207.001 341.656 204.051 310.404" stroke="#596BC1" stroke-width="0.896965"/>
<path d="M261.014 559.244L267.849 574.69" stroke="#3F3F3F" stroke-width="0.896965" stroke-linecap="round" stroke-linejoin="round"/>
<path d="M356.284 593.938C356.857 588.146 358.137 582.425 360.084 576.941" stroke="#3F3F3F" stroke-width="0.896965" stroke-linecap="round" stroke-linejoin="round"/>
<path d="M197.099 496.241C190.13 509.155 182.992 522.658 182.442 537.321C181.972 549.794 186.33 561.883 190.677 573.58C220.483 653.801 255.535 745.288 279.905 827.325" stroke="#EEF2FA" stroke-width="0.896965" stroke-linecap="round" stroke-linejoin="round"/>
<g style="mix-blend-mode:multiply" opacity="0.5">
<path d="M463.28 926.621C463.851 946.44 563.383 958.087 637.984 955.946C712.581 953.808 742.408 936.733 733.427 918.876C719.821 891.818 672.251 896.071 597.651 898.209C523.053 900.347 462.713 906.802 463.28 926.621Z" fill="#BED3E3"/>
</g>
<path d="M355.336 325.865C356.932 331.018 355.143 337.161 351.665 338.88C348.307 340.539 343.806 337.879 342.053 333.016C340.3 328.154 341.772 321.897 345.157 320.338C348.546 318.779 353.09 322.555 353.897 327.754C354.704 332.957 351.314 337.938 347.626 336.778C346.631 336.468 345.651 335.767 344.921 334.689C343.399 332.449 343.319 328.678 344.756 326.803C346.192 324.924 348.877 325.289 350.371 327.564C350.873 328.324 351.252 329.31 351.217 330.28C351.141 332.566 349.099 333.17 347.472 333.207C346.717 333.225 345.831 333.153 345.317 332.281C344.519 330.933 345.408 329.054 346.494 328.578C347.489 328.142 348.886 328.53 349.353 329.975C349.821 331.417 348.219 332.885 347.654 331.5C347.592 330.591 347.846 329.701 348.319 329.163L346.041 329.61" stroke="#2E2F44" stroke-width="1.2695"/>
<path d="M404.163 330.268C396.826 324.268 378.843 312.966 372.786 312.707C368.017 312.502 363.397 314.369 359.332 316.706C355.584 318.861 351.197 321.5 349.039 325.391C348.746 325.924 348.547 326.643 348.931 327.113C349.259 327.512 349.843 327.526 350.351 327.489C353.677 327.247 356.89 326.195 360.13 325.397C366.988 323.704 374.109 323.119 381.149 323.667" fill="#FE9C70"/>
<path d="M378.749 326.052C360.601 323.211 360.977 329.011 360.478 331.876C359.976 334.743 362.342 337.768 364.882 339.082C364.087 343.959 364.891 345.067 368.764 348.024C366.786 353.59 375.374 355.443 380.174 355.896C382.138 356.081 386.203 355.562 387.956 354.645C389.706 353.727 390.008 352.464 389.299 350.577C393.072 354.861 402.581 355.363 406.463 351.21C407.164 350.458 407.811 349.563 408.772 349.232C409.508 348.981 410.859 346.8 411.626 346.926C416.026 347.647 415.736 345.529 420.136 346.251" fill="#FE9C70"/>
<g style="mix-blend-mode:multiply" opacity="0.2">
<path d="M367.462 339.29C370.697 339.932 374.027 339.934 377.305 339.627C378.442 339.521 379.619 339.364 380.583 338.74C381.549 338.116 382.238 336.899 381.925 335.77" stroke="#49161A" stroke-width="1.18869"/>
</g>
<g style="mix-blend-mode:multiply" opacity="0.2">
<path d="M370.415 348.329C373.565 349.184 376.951 349.067 380.029 347.995C381.637 347.437 383.239 346.542 384.083 345.031C384.924 343.52 384.69 341.286 383.23 340.39" stroke="#49161A" stroke-width="1.18869"/>
</g>
<g style="mix-blend-mode:multiply" opacity="0.2">
<path d="M384.986 346.382C387.076 346.687 388.891 348.452 389.299 350.577" stroke="#49161A" stroke-width="1.18869"/>
</g>
<path d="M561.661 606.859C561.661 606.859 643.721 620.562 672.821 612.942C701.917 605.323 631.59 503.347 631.59 503.347C631.59 503.347 597.989 498.268 594.571 498.171C591.151 498.072 561.661 609.316 561.661 609.316" fill="white"/>
<path d="M595.357 844.978C597.063 854.423 604.54 867.626 604.54 867.626L603.959 887.63L593.273 892.394L563.045 866.13C563.045 866.13 561.218 850.941 561.764 851.268L595.357 844.978Z" fill="#FE9C70"/>
<path d="M613.847 903.51C611.72 906.93 588.367 908.994 582.638 912.293C576.937 915.555 563.751 924.859 549.796 927.234C535.868 929.606 514.306 928.651 509.591 924.706C504.908 920.731 508.388 918.945 508.388 918.945C508.388 918.945 508.081 917.56 508.112 915.927C508.143 914.416 508.419 912.691 509.56 911.582C511.841 909.333 524.747 903.85 533.344 896.641C541.909 889.432 553.891 871.563 561.873 866.478C561.873 866.478 565.014 864.999 572.625 866.603C580.235 868.174 582.855 877.261 589.507 880.066C596.163 882.899 601.028 879.111 602.385 876.305C603.77 873.564 603.802 865.677 606.051 866.264C608.272 866.912 613.752 884.934 613.259 897.102C613.259 897.102 613.752 897.66 614.154 898.582C614.708 899.754 615.047 901.569 613.847 903.51Z" fill="#2E2F44"/>
<path d="M631.223 873.33L632.457 861.51L658.7 862.094L658.675 879.755L653.898 898.348C653.898 898.348 633.004 898.56 632.837 898.141C632.665 897.724 627.825 877.381 627.825 877.381L631.223 873.33Z" fill="#FE9C70"/>
<path d="M682.549 938.017C682.272 939.62 676.509 943.162 667.946 944.949C667.083 945.135 666.22 945.288 665.359 945.411C664.495 945.565 663.631 945.656 662.739 945.751C661.875 945.842 661.014 945.905 660.119 945.964C659.195 946.027 658.272 946.027 657.346 946.027C656.639 946.027 655.901 945.996 655.191 945.964C654.943 945.964 654.698 945.964 654.453 945.936C653.435 945.873 652.386 945.782 651.341 945.656C650.54 945.565 649.738 945.443 648.937 945.288C648.228 945.163 647.521 945.009 646.811 944.856C646.009 944.734 645.209 944.517 644.44 944.271C642.928 943.868 641.418 943.376 639.879 942.792C639.879 942.792 637.228 941.746 637.662 937.276C636.738 935.182 636.427 932.439 637.106 928.497C639.263 915.619 626.662 917.345 623.336 903.633C622.688 901.045 623.336 898.954 624.136 897.195L624.041 895.624C623.643 883.425 627.462 872.396 631.222 873.319C631.222 873.319 628.417 878.677 630.792 882.221C633.163 885.795 634.579 880.989 642.037 878.772C649.459 876.586 658.458 878.217 661.106 881.668C663.785 885.117 665.727 893.13 668.006 901.878C670.287 910.596 680.699 921.965 681.962 927.882C682.301 929.542 682.395 931.145 682.301 932.501C682.272 932.81 682.21 933.118 682.179 933.394C682.21 933.705 682.242 933.982 682.272 934.226C682.549 935.768 682.826 936.321 682.549 938.017Z" fill="#2E2F44"/>
<path d="M702.805 495.771C701.941 525.68 690.81 629.468 687.359 656.338C685.632 704.676 661.11 869.827 661.11 869.827C639.199 874.437 630.539 867.869 630.539 867.869C630.539 867.869 631.622 846.785 629.245 816.4C625.17 764.355 617.787 687.149 626.956 657.323C628.248 651.134 626.697 644.27 625.255 636.888C616.563 592.447 612.095 521.218 612.095 521.218C606.239 540.333 589.79 585.688 578.793 609.322C571.402 625.207 575.142 634.616 575.142 634.616C575.142 634.616 586.65 670.147 588.753 684.255C593.103 713.625 592.324 773.427 593.627 813.766C594.211 831.88 598.051 853.917 598.051 853.917C578.648 864.799 562.253 859.067 562.253 859.067C562.253 859.067 506.86 673.147 506.86 619.934C506.86 614.869 509.113 585.824 509.113 585.709C516.994 518.796 537.704 435.162 541.271 423.453C547.971 425.514 576.564 429.841 603.959 430.77C633.968 431.788 678.297 428.398 700.975 423.453C710.159 442.728 703.293 479.409 702.805 495.771Z" fill="#75AAF5"/>
<path d="M613.847 903.51C611.72 906.931 588.367 908.995 582.638 912.292C576.937 915.555 563.751 924.859 549.796 927.234C535.868 929.606 514.306 928.651 509.591 924.706C504.908 920.732 508.388 918.945 508.388 918.945C508.388 918.945 508.081 917.56 508.112 915.926C509.126 916.357 510.238 917.098 511.808 917.777C516.985 920.025 522.406 919.993 528.013 920.025C536.208 920.085 544.497 920.148 552.414 918.053C559.529 916.171 566.031 912.631 572.747 909.641C585.534 903.941 599.213 900.243 613.137 898.673C613.477 898.642 613.815 898.582 614.154 898.582C614.708 899.753 615.047 901.569 613.847 903.51Z" fill="white"/>
<path d="M682.549 938.017C682.272 939.619 676.509 943.163 667.946 944.951C667.083 945.135 666.22 945.289 665.359 945.412C664.495 945.566 663.631 945.657 662.739 945.752C661.875 945.842 661.014 945.905 660.119 945.964C659.195 946.028 658.272 946.028 657.346 946.028C656.639 946.028 655.901 945.997 655.191 945.964C654.943 945.964 654.698 945.964 654.453 945.936C653.435 945.874 652.386 945.783 651.341 945.657C650.54 945.566 649.738 945.443 648.937 945.289C648.228 945.164 647.521 945.009 646.811 944.856C646.009 944.734 645.209 944.516 644.44 944.271C642.928 943.87 641.418 943.377 639.879 942.792C639.879 942.792 637.228 941.747 637.662 937.277C636.738 935.181 636.427 932.44 637.106 928.498C639.263 915.619 626.662 917.345 623.336 903.634C622.688 901.045 623.336 898.953 624.136 897.195L624.041 895.624C626.539 901.076 626.322 905.207 632.516 909.458C637.045 912.602 642.374 915.864 643.422 921.29C644.471 926.648 641.358 933.733 645.856 936.815C651.617 940.76 660.273 939.497 666.684 938.386C672.29 937.371 677.342 935.122 682.301 932.503C682.272 932.811 682.21 933.118 682.179 933.394C682.21 933.705 682.242 933.982 682.272 934.226C682.549 935.77 682.826 936.322 682.549 938.017Z" fill="white"/>
<path d="M650.683 904.412C654.619 900.207 661.158 898.679 666.548 900.701" stroke="white" stroke-width="1.08085"/>
<path d="M656.05 912.349C659.358 909.029 664.682 907.9 669.054 909.59" stroke="white" stroke-width="1.08085"/>
<path d="M535.997 892.959C538.332 892.146 540.976 892.832 543.054 894.173C545.129 895.515 546.745 897.442 548.328 899.341" stroke="white" stroke-width="1.08085"/>
<path d="M542.761 883.498C548.385 884.017 553.597 887.764 555.878 892.932" stroke="white" stroke-width="1.08085"/>
<path d="M485.183 328.319L508.966 372.346C511.866 372.899 514.576 372.922 517.127 372.534C533.169 370.228 542.39 352.371 543.042 350.92C545.868 344.635 550.165 335.454 555.102 325.072C571.367 290.794 594.572 243.349 594.572 243.349L532.881 179.198C532.881 179.198 518.293 192.541 511.572 224.841C510.4 230.636 505.175 253.561 499.443 278.3C497.938 284.642 496.177 291.358 494.401 297.72C493.902 299.433 493.435 301.146 492.953 302.793C488.888 316.96 485.183 328.319 485.183 328.319Z" fill="white"/>
<path d="M623.677 455.39L631.228 605.003C631.342 607.258 661.308 612.753 663.554 613.241C675.087 615.744 686.708 617.859 698.392 619.52C710.457 621.239 722.899 625.332 735.079 623.112C731.853 623.699 728.985 553.291 728.874 547.077C728.412 520.728 727.953 493.989 721.118 468.361C715.78 448.346 706.073 442.174 686.428 437.058C676.067 434.361 665.275 432.583 654.589 431.813L623.654 452.872L623.677 455.39Z" fill="white"/>
<path d="M504.311 373.039C481.466 374.296 456.294 367.241 435.349 362.908C414.404 358.576 402.678 353.983 402.678 353.983C402.678 353.983 406.395 350.762 407.718 340.578C409.035 330.684 406.212 325.007 406.212 325.007C406.212 325.007 466.818 322.378 491.032 318.485L527.799 368.532C521.523 371.146 513.447 372.54 504.311 373.039Z" fill="white"/>
<path d="M528.505 299.621C529.024 306.283 529.575 313.015 530.124 319.728C530.834 328.325 531.559 336.928 532.277 345.407C535.483 383.522 529.954 401.876 528.415 447.37L546.411 448.412L640.854 453.864C646.936 454.215 720.134 454.166 720.65 461.877L716.99 407.104C715.046 378.018 713.102 348.851 714.701 319.748C715.935 297.321 719.185 275.014 719.461 252.533C719.684 234.561 719.493 209.013 709.163 193.564C697.724 176.459 660.789 161.85 654.595 160.604C603.807 150.42 557.009 160.108 532.761 179.224C521.873 191.776 524.153 243.637 528.505 299.621Z" fill="white"/>
<path d="M654.175 167.85C654.175 167.85 656.831 186.096 657.744 196.403L644.904 209.834L660.605 219.987" stroke="#C5C8D3" stroke-width="0.810641"/>
<path d="M646.525 518.274C660.116 518.246 673.707 518.528 687.283 519.121" stroke="#C5C8D3" stroke-width="1.0586"/>
<path d="M646.216 519.962C646.543 523.097 647.096 526.207 647.868 529.266C648.342 531.136 648.938 533.059 650.248 534.476C652.592 537.015 656.462 537.235 659.918 537.281L671.213 537.429C676.347 537.494 682.224 537.238 685.485 533.267C688.777 529.257 687.831 523.371 686.705 518.303" stroke="#C5C8D3" stroke-width="1.0586"/>
<path d="M644.938 521.116C645.569 534.921 646.535 548.708 647.844 562.464C648.06 564.738 648.337 567.147 649.744 568.951C650.927 570.467 652.76 571.34 654.604 571.899C661 573.84 667.884 572.597 674.431 571.249C678.936 570.319 683.79 569.137 686.697 565.573C689.904 561.645 689.772 556.053 689.479 550.991C689.134 544.985 688.786 538.977 688.439 532.971" stroke="#C5C8D3" stroke-width="1.0586"/>
<path d="M533.28 364.165C536.604 319.853 520.693 275.53 526.003 231.411" stroke="#C5C8D3" stroke-width="1.0586"/>
<path d="M522.74 267.956C520.105 262.267 516.255 257.145 511.521 253.037" stroke="#C5C8D3" stroke-width="1.0586"/>
<path d="M577.002 163.392C577.002 163.392 561.009 179.625 554.977 195.273L564.447 206.091L547.96 216.899C547.96 216.899 558.689 266.961 559.974 291.557" stroke="#C5C8D3" stroke-width="0.810641"/>
<path d="M623.678 455.389C623.678 455.389 604.757 457.3 585.177 455.389C575.965 454.492 565.621 452.041 565.621 452.041C565.621 452.041 571.173 313.403 572.228 252.724C572.949 213.186 577.909 185.805 583.929 170.778C586.061 165.325 588.393 161.532 590.719 159.299C591.257 158.738 591.833 158.265 592.401 157.96L592.534 157.84C608.285 148.402 645.398 158.951 645.398 158.951C645.398 158.951 640.854 168.107 638.084 177.325C637.662 178.779 637.283 180.235 636.946 181.652C632.645 200.581 632.334 208.124 627.281 262.027C622.264 315.974 623.678 455.389 623.678 455.389Z" fill="#75AAF5"/>
<path d="M645.394 158.96C645.394 158.96 640.851 168.104 638.074 177.317C620.9 183.311 610.967 184.87 598.075 182.535C590.593 181.162 585.527 176.128 583.917 170.789C586.041 165.339 588.398 161.531 590.732 159.314C591.373 158.843 591.944 158.404 592.403 157.963L592.519 157.823C593.052 157.35 593.44 156.936 593.502 156.469C593.981 153.821 594.122 152.632 594.019 151.29C593.973 150.201 593.787 149.032 593.546 146.92C593.093 141.647 592.451 135.818 592.451 135.818L601.889 129.669L638.559 93.2869L639.189 105.37C639.189 105.37 638.644 140.475 643.019 155.602C643.413 156.927 644.209 158.202 645.394 158.96Z" fill="#FE9C70"/>
<path d="M620.138 123.233C620.138 123.233 617.481 140.412 594.02 151.29C593.974 150.201 593.788 149.032 593.547 146.92C593.093 141.647 592.452 135.818 592.452 135.818L601.89 129.67L620.138 123.233Z" fill="#F28A61"/>
<path d="M532.559 273.406C532.559 273.406 523.893 274.298 527.072 295.976C529.714 313.996 531.517 317.541 538.049 319.975C544.582 322.41 554.043 313.212 553.967 312.767C553.894 312.32 552.976 293.917 552.315 291.785C551.657 289.65 548.593 284.973 547.33 283.81C546.07 282.644 537.957 276.182 537.957 276.182L535.638 274.58C535.638 274.58 533.673 273.83 532.559 273.406Z" fill="#E0E0E0"/>
<path d="M601.843 294.162L593.837 343.027C565.429 328.718 535.561 310.507 515.514 298.404C501.458 289.964 488.737 282.587 488.737 282.587C488.737 282.587 487.024 280.52 490.732 270.926C492.961 265.043 497.211 265.405 497.211 265.405C497.211 265.405 547.056 278.292 589.33 290.383C594.087 291.73 598.19 293.017 601.843 294.162Z" fill="#FE9C70"/>
<path d="M713.099 212.553C714.718 223.823 713.033 236.955 712.717 246.102C712.506 252.213 712.033 258.367 710.377 264.253C707.535 274.34 701.379 283.114 695.33 291.671C687.711 302.448 679.562 312.901 671.797 323.413C665.751 331.593 661.068 345.389 651.935 350.868C641.882 358.028 631.721 363.23 606.123 353.307C580.183 343.295 538.048 319.975 538.048 319.975C544.116 317.302 545.037 298.794 542.132 287.418C538.861 274.608 532.772 273.591 532.559 273.406L612.52 293.655C612.52 293.655 632.832 258.575 634.725 255.531L661.684 212.142C671.095 196.996 686.995 179.443 704.93 194.929C709.744 199.087 712.079 205.449 713.099 212.553Z" fill="white"/>
<path d="M578.177 75.2124C579.249 81.614 576.937 88.1786 573.445 93.6516C570.977 97.5252 568.103 93.0955 563.586 92.2662C556.597 90.9867 555.843 81.7284 555.479 61.6557C552.238 53.139 553.15 40.6342 553.957 39.3854C556.855 34.8961 563.722 33.548 569.047 34.1385" fill="#191C26"/>
<path d="M592.754 142.462C596.095 142.505 603.394 140.33 605.034 139.728C612.288 137.072 624.259 129.077 625.979 122.62C618.633 126.634 605.093 133.725 592.515 134.891C592.551 137.086 592.677 140.364 592.754 142.462Z" fill="#F28A61"/>
<path d="M632.9 122.258C629.942 125 625.199 127.743 619.684 130.237C607.453 135.721 591.339 139.91 581.819 139.54C572.669 139.169 566.261 123.028 560.932 105.19C560.162 102.571 559.515 99.8286 559.022 97.0548C554.492 71.4844 562.009 41.1989 573.1 29.9226C584.131 18.6779 598.026 10.8538 614.108 9.0663C638.57 6.3555 645.44 31.9579 646.765 51.3346C648.244 72.6871 650 106.513 632.9 122.258Z" fill="#FE9C70"/>
<path d="M576.153 82.9114C575.411 87.7199 574.265 92.4688 572.732 97.0862C572.464 97.8987 571.597 99.3407 571.735 100.199C571.877 101.091 572.81 101.422 573.487 101.906C575.232 103.152 576.786 104.674 578.066 106.396" stroke="#EF8359"/>
<path d="M635.479 47.3439C629.863 53.0079 589.011 54.0368 575.141 50.2828C562.913 46.9738 553.869 41.4779 547.835 30.0423C545.808 26.197 543.893 22.0869 543.969 17.7404C544.049 13.3962 546.72 8.80102 550.973 7.91464C549.331 9.96714 551.326 13.2538 553.889 13.8407C556.452 14.4249 559.05 13.259 561.431 12.1421C573.702 6.37287 586.492 0.98005 600.02 0.0705042C615.814 -0.992576 648.422 9.98986 643.029 31.425" fill="#191C26"/>
<path d="M624.766 39.3884C621.041 42.963 619.676 48.3103 618.932 53.4181C617.812 61.1082 617.772 69.2038 620.776 76.3721C621.631 78.4131 621.566 88.153 623.185 87.7509C623.697 87.6229 624.242 80.1178 625.898 76.1815C628.461 70.0843 638.058 68.491 641.951 72.7982C648.169 79.6704 643.568 86.9901 640.94 91.565C639.355 94.3212 636.964 97.374 636.35 100.39C635.564 104.249 634.25 118.415 636.51 121.953C638.4 124.906 641.786 111.686 643.916 109.206C659.789 90.7268 677.63 41.7801 654.245 28.8959C650.694 26.938 639.358 25.1194 635.729 26.9354" fill="#191C26"/>
<path d="M617.617 93.5067C617.617 93.5067 622.54 91.6398 625.598 81.4663" stroke="white" stroke-width="0.618238"/>
<path d="M636.984 95.0144C636.984 95.0144 635.61 117.701 626.106 124.066" stroke="white" stroke-width="0.618238"/>
<path d="M627.603 123.983C627.603 123.983 624.92 126.91 619.685 130.237C612.199 135.012 599.475 140.618 581.82 139.54C572.67 139.17 566.262 123.028 560.932 105.19C560.163 102.571 566.873 94.3192 577.684 93.8257C589.145 93.3327 599.774 104.515 618.422 92.2183C618.422 92.2183 620.702 114.4 627.603 123.983Z" fill="white"/>
<path d="M601.789 193.404C603.017 211.823 599.652 230.99 589.496 246.407C576.595 265.995 553.179 274.911 530.304 271.819C521.443 270.618 513.139 267.186 505.11 263.396C497.645 259.867 492.332 258.803 484.588 257.19C468.343 253.804 454.242 245.193 437.556 252.646C421.978 259.605 410.388 271.009 402.747 285.939C398.468 294.296 394.222 302.762 388.401 310.182C378.37 322.98 365.823 328.53 349.844 328.156" stroke="#2E2F44" stroke-width="1.2695"/>
<path d="M529.679 423.454C529.679 423.454 513.467 552.493 503.331 616.832L547.959 607.697C547.959 607.697 562.479 513.349 565.72 449.526C567.296 418.423 529.679 423.454 529.679 423.454Z" fill="white"/>
<path d="M508.827 268.563C508.827 268.563 497.072 263.284 491.095 257.848C485.117 252.41 478.964 246.415 476.925 245.6C474.888 244.784 466.79 242.813 465.433 242.852C464.073 242.895 464.41 247.384 467.197 248.875C471.601 251.224 472.718 252.008 473.932 253.082C475.617 254.627 472.294 254.194 466.59 252.148C462.708 250.754 451.562 242.35 446.808 242.08C442.051 241.809 446.127 247.378 449.254 250.095C452.378 252.814 461.254 259.04 461.254 259.04C461.254 259.04 462.329 264.601 463.195 265.909C464.061 267.214 462.976 269.751 463.247 272.014C463.517 274.281 464.336 275.911 464.515 276.997C464.697 278.083 464.877 282.071 466.689 283.248C468.5 284.425 491.694 284.146 494.193 285.603C496.693 287.061 508.827 268.563 508.827 268.563Z" fill="#FE9C70"/>
<path d="M633.543 84.2056C632.727 83.8663 631.758 84.388 631.297 85.1403C630.832 85.8929 630.752 86.8109 630.681 87.6916C630.613 88.5355 630.589 89.499 631.194 90.0888C631.998 90.8756 633.46 90.4194 634.09 89.4875C634.72 88.5556 634.751 87.3582 634.765 86.2352C634.78 84.8781 634.112 82.9655 632.818 83.3707C632.115 83.593 631.836 84.4193 631.658 85.1376C631.342 86.4263 631.035 87.84 631.619 89.0313C632.204 90.2228 634.104 90.767 634.845 89.664C635.179 89.1652 635.168 88.5154 635.096 87.9169C634.934 86.5031 634.518 85.1175 633.877 83.8466C633.705 83.51 633.497 83.1597 633.153 83.0081C632.32 82.6467 631.556 83.641 631.262 84.499C630.958 85.3939 630.746 86.3235 630.64 87.2641C630.535 88.1763 630.562 89.197 631.174 89.8807C632.343 91.1806 634.737 90.0774 635.207 88.39C635.675 86.7056 634.88 84.9495 634.033 83.4161C633.825 83.0397 633.58 82.6351 633.17 82.504C632.282 82.2159 631.642 83.3451 631.391 84.2397C630.897 86.0042 630.416 87.9481 631.185 89.6125C631.955 91.2744 634.589 92.0586 635.609 90.5363C636.075 89.8409 636.046 88.9376 635.997 88.099C635.934 86.9735 635.857 85.7935 635.274 84.8297C634.688 83.8635 633.423 83.2078 632.401 83.6869C631.106 84.294 631.06 86.0899 631.218 87.5091C631.331 88.5637 631.612 89.8294 632.619 90.1603C634.045 90.6276 635.079 88.8144 635.484 87.3694C635.934 85.7533 636.199 83.6242 634.757 82.7634C633.386 81.9451 631.536 83.2023 631.146 84.7501C630.755 86.2979 631.348 87.9052 631.929 89.3905C632.146 89.9436 632.48 90.5851 633.069 90.6218C633.608 90.656 634.016 90.1515 634.259 89.6698C635.367 87.4608 634.894 84.5676 633.144 82.8234C631.775 84.2741 631.299 86.509 631.958 88.3929C632.337 89.4789 633.548 90.5504 634.523 89.9405C634.828 89.7498 635.028 89.4276 635.196 89.1083C636.137 87.3214 635.914 84.428 633.925 84.0857C633.386 85.2374 633.748 86.7394 634.751 87.5207C635.158 86.9022 635.581 86.2209 635.515 85.4826C635.45 84.7441 634.612 84.0629 633.973 84.4392C633.705 84.5963 633.548 84.8896 633.44 85.1774C632.978 86.389 633.141 87.82 633.862 88.8971C634.968 87.6148 635.262 85.6879 634.586 84.1344C634.313 83.5047 633.645 82.8632 633.027 83.1626C632.762 83.2907 632.596 83.5588 632.477 83.8263C631.71 85.5508 632.388 87.7888 633.985 88.7948C634.634 87.3694 634.965 85.7991 634.944 84.2315C634.937 83.4418 634.789 82.5611 634.162 82.079C633.235 81.3665 631.761 82.0392 631.305 83.1168C630.849 84.1915 631.141 85.437 631.588 86.5173C631.725 86.8424 631.881 87.1728 632.164 87.3867C632.828 87.8941 633.862 87.4467 634.262 86.7139C634.664 85.9814 634.612 85.0949 634.551 84.2626C634.295 83.6812 633.482 83.4302 632.944 83.7667C632.588 84.3223 633.155 85.1863 633.805 85.0809" stroke="#2E2F44" stroke-width="1.08085"/>
<path d="M634.377 86.8535C640.056 86.3148 646.635 86.0978 650.479 90.311C653.201 93.2952 653.675 97.6364 654.014 101.658L655.22 115.93C656.357 129.384 657.483 143.078 654.627 156.277C651.771 169.475 644.288 182.344 632.223 188.407C628.933 190.06 625.396 191.169 621.819 192.041C605.651 195.981 587.047 194.561 574.588 183.53C565.638 175.606 560.997 163.708 559.549 151.842C558.102 139.976 559.535 127.97 560.969 116.101" stroke="#2E2F44" stroke-width="1.08085"/>
<path d="M613.15 293.678C619.415 302.034 623.206 307.499 623.563 315.888" stroke="#C5C8D3" stroke-width="1.0586"/>
<path d="M616.968 289.251C620.616 291.263 624.028 293.706 627.107 296.514C629.247 298.464 631.263 301.919 629.193 303.945C628.181 303.198 627.38 302.161 626.913 300.99" stroke="#C5C8D3" stroke-width="1.0586"/>
<path d="M632.955 363.424C634.554 388.601 636.154 413.787 636.647 439.01C637.696 492.401 633.808 546.042 640.064 599.074" stroke="#C5C8D3" stroke-width="1.0586"/>
<path d="M561.252 338.232L562.09 406.297C562.193 414.444 562.292 422.593 561.97 430.733C561.391 445.336 559.456 459.842 557.521 474.327L540.88 598.972" stroke="#C5C8D3" stroke-width="1.0586"/>
<path d="M486.505 319.372C493.437 319.465 500.352 320.711 506.879 323.045" stroke="#C5C8D3" stroke-width="1.0586"/>
<path d="M623.011 359.546C632.694 363.649 647.259 357.094 655.171 350.167C663.084 343.243 668.224 333.783 673.622 324.759C684.306 306.907 696.599 290.018 710.306 274.37" stroke="#C5C8D3" stroke-width="1.0586"/>
<path d="M674.651 197.831C681.783 189.769 693.43 185.998 703.931 188.348" stroke="#C5C8D3" stroke-width="1.0586"/>
<path d="M668.499 202.494C666.33 203.762 664.802 206.074 664.484 208.568" stroke="#C5C8D3" stroke-width="1.0586"/>
<path d="M625.143 268.6C637.607 255.63 640.677 235.211 654.558 223.772" stroke="#C5C8D3" stroke-width="1.0586"/>
<path d="M406.968 330.542C404.34 330.097 401.415 328.099 399.215 326.933C396.47 325.474 393.78 323.918 391.02 322.484C382.081 317.84 370.877 318.18 362.254 323.353C361.552 323.772 360.8 324.331 360.7 325.16C360.515 326.723 362.582 327.381 364.115 327.443C367.818 327.6 371.432 328.182 375.152 328.407C375.71 332.879 378.515 336.841 382.067 339.506C385.619 342.171 389.871 343.677 394.147 344.728C398.109 345.703 402.151 346.322 406.213 346.578C407.846 342.702 408.145 338.554 408.294 334.353C408.305 334.091 407.974 330.644 407.706 330.644C407.367 330.648 407.321 330.599 406.968 330.542Z" fill="#FE9C70"/>
<g style="mix-blend-mode:multiply" opacity="0.2">
<path d="M367.975 328.25C369.913 328.351 371.851 328.453 373.79 328.553C374.753 328.604 375.733 328.658 376.64 328.995C378.165 329.564 379.305 330.867 380.348 332.144C382.287 334.524 384.122 337.01 386.354 339.102C388.583 341.194 391.277 342.899 394.261 343.355" stroke="#49161A" stroke-width="1.18869"/>
</g>
<g style="mix-blend-mode:multiply" opacity="0.2">
<path d="M363.984 322.398C369.613 318.935 381.232 319.14 382.811 319.702" stroke="#49161A" stroke-width="1.18869"/>
</g>
<path d="M492.029 315.544C495.416 313.922 499.528 313.899 502.934 315.48" stroke="#C5C8D3" stroke-width="1.0586"/>
<path d="M593.718 80.3232C593.224 81.9739 593.113 83.7381 593.396 85.4372C593.51 86.1154 594.127 86.9705 594.681 86.563C594.83 86.4545 594.908 86.2781 594.974 86.11C595.673 84.3255 595.459 82.2104 594.418 80.6029C594.136 80.6541 593.893 80.888 593.829 81.1672" stroke="#191C26" stroke-width="1.05864"/>
<path d="M566.814 82.4241C565.783 83.9322 565.61 86.0609 566.384 87.7459C566.516 88.0306 566.738 88.3446 567.037 88.3158C567.265 88.2929 567.427 88.079 567.544 87.8713C568.382 86.3804 568.197 84.3112 567.104 83.0114C566.954 82.8345 566.766 82.6607 566.548 82.6635C566.205 82.6691 566.005 83.0711 565.91 83.4218C565.61 84.542 565.606 85.7534 565.902 86.879C566.005 87.2756 566.222 87.7261 566.607 87.7571C566.989 87.7886 567.268 87.3808 567.408 86.9994C567.935 85.5881 567.669 83.8721 566.746 82.7092" stroke="#191C26" stroke-width="1.03307"/>
<path d="M590.746 70.7856C592.517 68.6194 596.74 67.6277 599.537 67.639C603.515 67.6502 606.643 68.6336 610.035 70.7143" stroke="#191C26"/>
<path d="M570.374 70.4722C566.341 67.5451 560.389 67.6075 556.419 70.6207" stroke="#191C26"/>
<path d="M592.432 441.043L596.052 470.975C596.574 475.305 596.608 479.64 598.776 483.511C600.839 487.191 603.915 490.122 606.966 492.977" stroke="#40507F" stroke-width="0.750367"/>
<path d="M566.382 435.166C572.562 437.594 580.056 437.791 585.657 439.519C598.28 443.412 609.819 440.59 623.011 439.903" stroke="#40507F" stroke-width="0.893249"/>
<path d="M604.91 444.783C605.962 469.752 609.996 504.197 613.129 528.993" stroke="#40507F" stroke-width="0.893249"/>
</svg>
