<svg width="106" height="45" viewBox="0 0 106 45" fill="none" xmlns="http://www.w3.org/2000/svg">
<path d="M22.3789 39.8278H28.8376V31.3391C27.1549 29.8276 24.792 28.4875 22.3789 27.6108V39.8278ZM22.3789 11.7363V23.4144C24.6761 24.5076 27.2052 26.1801 28.8376 28.6437V11.7363H22.3789Z" fill="#FF2436"/>
<path d="M12.5493 28.96C9.66779 36.0938 4.49387 42.6885 1.05273 44.7592C3.69766 36.8244 4.51398 30.0384 4.3981 24.4863C6.20154 26.9146 9.00281 29.5042 12.5493 28.96Z" fill="#0031C1"/>
<path d="M13.2346 27.1219C10.232 25.0666 6.54919 23.001 4.27209 21.7768C3.52643 12.0082 0 6.79883 0 6.79883C15.154 7.79645 16.484 17.6254 13.2346 27.1219Z" fill="#0031C1"/>
<circle cx="11.2266" cy="4.1563" r="4.1563" fill="#0031C1"/>
<path d="M30.4984 33.2282C30.0852 32.5831 29.516 31.9485 28.8359 31.3391V28.6436C29.6973 29.9434 30.307 31.4597 30.4984 33.2282Z" fill="white"/>
<path d="M18.6005 23.6093C17.6282 22.1056 15.9761 20.6528 13.17 19.8801C7.59744 18.3455 7.07141 18.1094 7.07141 18.1094C7.07141 18.1094 6.5173 20.5095 9.22278 21.2737C11.9285 22.0381 12.3357 23.426 12.3357 23.426C12.3357 23.426 8.4332 23.731 3.51895 19.0131C2.30325 17.9114 1.02356 18.4969 0.507812 18.9616C1.37994 19.3884 6.10468 26.2396 10.8715 27.5125C13.2777 28.1548 16.1901 28.4161 19.0364 28.5818L19.0373 28.5825C23.5929 28.7631 29.8682 31.9078 32.0096 35.2453C31.0019 25.9881 18.6005 23.6093 18.6005 23.6093Z" fill="#FF2436"/>
<path d="M55.8524 14.0391V31.8318H51.7602V24.2827H40.9066V31.8318H36.8145V14.0391H40.9066V21.1305H51.7602V14.0391H55.8524Z" fill="#0031C1"/>
<path d="M63.5004 14.0391V31.8318H59.4082V14.0391H63.5004Z" fill="#0031C1"/>
<path d="M85.6138 14.0391V31.8318H81.0132L71.151 19.1225V31.8318H67.0586V14.0391H71.6339L81.496 26.7733V14.0391H85.6138Z" fill="#0031C1"/>
<path d="M105.716 17.191H98.9805V31.8318H94.8883V17.191H88.1523V14.0391H105.716V17.191Z" fill="#0031C1"/>
<path d="M61.4543 4.31543C59.8364 4.31543 58.5254 5.62625 58.5254 7.24426C58.5254 8.86209 61.4543 13.1454 61.4543 13.1454C61.4543 13.1454 64.3831 8.86209 64.3831 7.24426C64.3831 5.62625 63.0723 4.31543 61.4543 4.31543ZM61.4543 8.48102C60.7181 8.48102 60.1215 7.88434 60.1215 7.14618C60.1215 6.4101 60.7181 5.81345 61.4543 5.81345C62.1904 5.81345 62.7891 6.4101 62.7891 7.14618C62.7891 7.88434 62.1904 8.48102 61.4543 8.48102Z" fill="#0031C1"/>
<circle cx="61.4548" cy="7.15212" r="1.33376" fill="#FF2436"/>
<path d="M37.2188 34.7354H37.9576V36.0645H39.3203V34.7354H40.0594V38.094H39.3203V36.7459H37.9576V38.094H37.2188V34.7354Z" fill="#FF2436"/>
<path d="M41.6328 34.7354H44.1614V35.3928H42.3621V36.0741H43.9453V36.7313H42.3621V37.4368H44.1854V38.094H41.6328V34.7354Z" fill="#FF2436"/>
<path d="M46.7676 34.7109H47.4489L48.8882 38.0936H48.1157L47.8087 37.3403H46.3884L46.0814 38.0936H45.3281L46.7676 34.7109ZM47.5449 36.6879L47.0987 35.5986L46.6524 36.6879H47.5449Z" fill="#FF2436"/>
<path d="M50.1738 34.7354H50.9127V37.4271H52.5874V38.094H50.1738V34.7354Z" fill="#FF2436"/>
<path d="M54.6937 35.4166H53.6719V34.7354H56.4547V35.4166H55.4326V38.094H54.6937V35.4166Z" fill="#FF2436"/>
<path d="M57.7871 34.7354H58.5262V36.0645H59.8889V34.7354H60.6277V38.094H59.8889V36.7459H58.5262V38.094H57.7871V34.7354Z" fill="#FF2436"/>
<path d="M64.4414 34.7354H65.1802V38.094H64.4414V34.7354Z" fill="#FF2436"/>
<path d="M66.7891 34.7354H67.4703L69.0443 36.8035V34.7354H69.7734V38.094H69.1448L67.5183 35.9589V38.094H66.7891V34.7354Z" fill="#FF2436"/>
<path d="M73.5547 34.7354H74.2361L75.8101 36.8035V34.7354H76.5393V38.094H75.9106L74.2842 35.9589V38.094H73.5547V34.7354Z" fill="#FF2436"/>
<path d="M79.743 38.1516C79.484 38.1516 79.2458 38.1061 79.0282 38.0149C78.8105 37.9237 78.6227 37.8007 78.4645 37.6452C78.306 37.4904 78.1829 37.308 78.0948 37.0984C78.0071 36.889 77.9629 36.6641 77.9629 36.4244V36.4149C77.9629 36.1748 78.0079 35.9501 78.0974 35.7405C78.1869 35.5311 78.3109 35.3473 78.4692 35.1887C78.6277 35.0305 78.8163 34.9056 79.0355 34.8147C79.2545 34.7234 79.4937 34.6777 79.7527 34.6777C80.0116 34.6777 80.2501 34.7234 80.4675 34.8147C80.6851 34.9056 80.873 35.0288 81.0312 35.1841C81.1898 35.3391 81.3129 35.5215 81.4006 35.731C81.4886 35.9406 81.5328 36.1652 81.5328 36.4053V36.4149C81.5328 36.6544 81.488 36.8794 81.3986 37.0887C81.3087 37.2985 81.1848 37.4822 81.0266 37.6406C80.8682 37.7988 80.6794 37.9237 80.4604 38.0149C80.2411 38.1061 80.0021 38.1516 79.743 38.1516ZM79.7527 37.4703C79.8999 37.4703 80.0359 37.4431 80.1607 37.3887C80.2853 37.3344 80.3916 37.2591 80.4796 37.1631C80.5676 37.0673 80.6364 36.9562 80.6858 36.8298C80.7354 36.7034 80.7603 36.5681 80.7603 36.4244V36.4149C80.7603 36.2709 80.7354 36.1348 80.6858 36.0068C80.6364 35.879 80.566 35.767 80.4748 35.671C80.3835 35.5752 80.2756 35.4991 80.1511 35.4431C80.0262 35.3871 79.8903 35.359 79.743 35.359C79.5927 35.359 79.4562 35.3864 79.3329 35.4408C79.2095 35.4952 79.1043 35.5702 79.0163 35.6662C78.928 35.7622 78.8593 35.8733 78.8097 35.9998C78.7603 36.1261 78.7354 36.2612 78.7354 36.4053V36.4149C78.7354 36.5585 78.7603 36.6947 78.8097 36.8227C78.8593 36.9504 78.9299 37.0625 79.0209 37.1583C79.1123 37.2543 79.2191 37.3302 79.3425 37.3865C79.4657 37.4424 79.6022 37.4703 79.7527 37.4703Z" fill="#FF2436"/>
<path d="M85.9479 35.4166H84.9258V34.7354H87.7086V35.4166H86.6867V38.094H85.9479V35.4166Z" fill="#FF2436"/>
<path d="M89.0742 34.7354H89.813V38.094H89.0742V34.7354Z" fill="#FF2436"/>
<path d="M91.4219 34.7354H92.2186L93.1014 36.1556L93.9841 34.7354H94.7807V38.094H94.0513V35.9012L93.1063 37.3359H93.087L92.1514 35.9156V38.094H91.4219V34.7354Z" fill="#FF2436"/>
<path d="M96.3535 34.7354H98.8821V35.3928H97.0827V36.0741H98.6663V36.7313H97.0827V37.4368H98.906V38.094H96.3535V34.7354Z" fill="#FF2436"/>
</svg>
