<svg width="211" height="89" viewBox="0 0 211 89" fill="none" xmlns="http://www.w3.org/2000/svg">
<path d="M44.4678 79.17H57.3018V62.3023C53.958 59.2988 49.2629 56.636 44.4678 54.8939V79.17ZM44.4678 23.3497V46.5552C49.0326 48.7275 54.058 52.0508 57.3018 56.9462V23.3497H44.4678Z" fill="#FF2436"/>
<path d="M24.9366 57.5767C19.2107 71.752 8.92966 84.8564 2.0918 88.9709C7.34747 73.2039 8.96964 59.7193 8.73929 48.687C12.3229 53.512 17.8893 58.6577 24.9366 57.5767Z" fill="#0031C1"/>
<path d="M26.2984 53.9226C20.3318 49.8384 13.0138 45.7338 8.48904 43.3013C7.00729 23.8901 0 13.5387 0 13.5387C30.1123 15.521 32.7552 35.0521 26.2984 53.9226Z" fill="#0031C1"/>
<circle cx="22.3088" cy="8.28837" r="8.25895" fill="#0031C1"/>
<path d="M60.6051 66.0563C59.7842 64.7745 58.6532 63.5134 57.3018 62.3024V56.9463C59.0134 59.5292 60.2248 62.5423 60.6051 66.0563Z" fill="white"/>
<path d="M36.9586 46.9435L36.9577 46.9444C35.0258 43.9563 31.7438 41.0687 26.1678 39.5333C15.0945 36.4839 14.0493 36.0146 14.0493 36.0146C14.0493 36.0146 12.9482 40.7838 18.3242 42.3024C23.7008 43.8214 24.5098 46.5792 24.5098 46.5792C24.5098 46.5792 16.7553 47.1851 6.99023 37.8103C4.57452 35.6213 2.03165 36.7846 1.00684 37.7081C2.73981 38.5562 12.1283 52.1701 21.6003 54.6994C26.3818 55.9758 32.169 56.4951 37.8249 56.8243L37.8267 56.8257C46.879 57.1846 59.3487 63.4333 63.6036 70.0654C61.6013 51.6704 36.9586 46.9435 36.9586 46.9435Z" fill="#FF2436"/>
<path d="M110.985 27.9253V63.2811H102.854V48.2803H81.2868V63.2811H73.1553V27.9253H81.2868V42.0166H102.854V27.9253H110.985Z" fill="#0031C1"/>
<path d="M126.183 27.9253V63.2811H118.052V27.9253H126.183Z" fill="#0031C1"/>
<path d="M170.124 27.9253V63.2811H160.982L141.385 38.0265V63.2811H133.253V27.9253H142.344L161.941 53.2294V27.9253H170.124Z" fill="#0031C1"/>
<path d="M210.07 34.1885H196.686V63.2811H188.554V34.1885H175.169V27.9253H210.07V34.1885Z" fill="#0031C1"/>
<path d="M122.117 8.60461C118.902 8.60461 116.297 11.2093 116.297 14.4244C116.297 17.6393 122.117 26.1505 122.117 26.1505C122.117 26.1505 127.937 17.6393 127.937 14.4244C127.937 11.2093 125.332 8.60461 122.117 8.60461ZM122.117 16.882C120.654 16.882 119.469 15.6964 119.469 14.2296C119.469 12.7669 120.654 11.5813 122.117 11.5813C123.579 11.5813 124.769 12.7669 124.769 14.2296C124.769 15.6964 123.579 16.882 122.117 16.882Z" fill="#0031C1"/>
<circle cx="122.119" cy="14.2414" r="2.6503" fill="#FF2436"/>
<path d="M73.957 69.0515H75.4251V71.6926H78.1329V69.0515H79.6016V75.7255H78.1329V73.0467H75.4251V75.7255H73.957V69.0515Z" fill="#FF2436"/>
<path d="M82.7285 69.0515H87.753V70.358H84.1776V71.7116H87.3237V73.0176H84.1776V74.4194H87.8007V75.7255H82.7285V69.0515Z" fill="#FF2436"/>
<path d="M92.9297 69.0039H94.2834L97.1434 75.7255H95.6085L94.9984 74.2287H92.1761L91.5661 75.7255H90.0693L92.9297 69.0039ZM94.4742 72.9323L93.5875 70.7678L92.7007 72.9323H94.4742Z" fill="#FF2436"/>
<path d="M99.6992 69.0515H101.167V74.4003H104.495V75.7255H99.6992V69.0515Z" fill="#FF2436"/>
<path d="M108.68 70.4052H106.649V69.0515H112.179V70.4052H110.148V75.7255H108.68V70.4052Z" fill="#FF2436"/>
<path d="M114.829 69.0515H116.298V71.6926H119.005V69.0515H120.474V75.7255H119.005V73.0467H116.298V75.7255H114.829V69.0515Z" fill="#FF2436"/>
<path d="M128.054 69.0515H129.522V75.7255H128.054V69.0515Z" fill="#FF2436"/>
<path d="M132.716 69.0515H134.069L137.197 73.1611V69.0515H138.646V75.7255H137.397L134.165 71.4827V75.7255H132.716V69.0515Z" fill="#FF2436"/>
<path d="M146.158 69.0515H147.512L150.64 73.1611V69.0515H152.089V75.7255H150.84L147.608 71.4827V75.7255H146.158V69.0515Z" fill="#FF2436"/>
<path d="M158.457 75.8398C157.943 75.8398 157.469 75.7495 157.037 75.5681C156.604 75.387 156.231 75.1426 155.917 74.8336C155.602 74.5261 155.357 74.1636 155.182 73.7471C155.008 73.3311 154.92 72.884 154.92 72.408V72.3888C154.92 71.9119 155.009 71.4653 155.187 71.0488C155.365 70.6327 155.611 70.2676 155.926 69.9523C156.241 69.6379 156.616 69.3899 157.051 69.2091C157.486 69.0278 157.962 68.937 158.476 68.937C158.991 68.937 159.465 69.0278 159.897 69.2091C160.329 69.3899 160.703 69.6348 161.017 69.9432C161.332 70.2511 161.577 70.6135 161.751 71.0298C161.926 71.4463 162.014 71.8928 162.014 72.3699V72.3888C162.014 72.865 161.925 73.3119 161.747 73.728C161.568 74.1445 161.322 74.5098 161.008 74.8246C160.693 75.1389 160.318 75.387 159.883 75.5681C159.447 75.7495 158.972 75.8398 158.457 75.8398ZM158.476 74.4862C158.769 74.4862 159.039 74.432 159.287 74.324C159.535 74.2159 159.746 74.0665 159.921 73.8756C160.096 73.6853 160.232 73.4645 160.331 73.2134C160.429 72.962 160.479 72.6932 160.479 72.408V72.3888C160.479 72.1027 160.429 71.8324 160.331 71.578C160.232 71.3242 160.093 71.1014 159.911 70.9108C159.73 70.7203 159.516 70.5691 159.268 70.4578C159.02 70.3466 158.75 70.2906 158.457 70.2906C158.158 70.2906 157.887 70.3452 157.642 70.4532C157.397 70.5615 157.188 70.7104 157.013 70.9011C156.838 71.0919 156.701 71.3127 156.603 71.564C156.504 71.8151 156.455 72.0836 156.455 72.3699V72.3888C156.455 72.6741 156.504 72.9449 156.603 73.1992C156.701 73.4532 156.841 73.6758 157.022 73.8661C157.204 74.0569 157.416 74.2076 157.661 74.3195C157.906 74.4308 158.177 74.4862 158.476 74.4862Z" fill="#FF2436"/>
<path d="M170.785 70.4052H168.754V69.0515H174.283V70.4052H172.253V75.7255H170.785V70.4052Z" fill="#FF2436"/>
<path d="M177.001 69.0515H178.469V75.7255H177.001V69.0515Z" fill="#FF2436"/>
<path d="M181.663 69.0515H183.246L185 71.8738L186.754 69.0515H188.337V75.7255H186.888V71.3682L185.01 74.2191H184.972L183.113 71.3968V75.7255H181.663V69.0515Z" fill="#FF2436"/>
<path d="M191.464 69.0515H196.488V70.358H192.913V71.7116H196.06V73.0176H192.913V74.4194H196.536V75.7255H191.464V69.0515Z" fill="#FF2436"/>
</svg>
