<svg width="317" height="287" viewBox="0 0 317 287" fill="none" xmlns="http://www.w3.org/2000/svg">
<path d="M158.834 102.512C134.596 102.512 114.948 122.16 114.948 146.397V251.543H202.719V146.397C202.719 122.16 183.07 102.512 158.834 102.512Z" fill="#427131"/>
<rect x="174.059" y="155.274" width="7.88144" height="26.152" fill="white"/>
<rect x="145.757" y="183.576" width="26.152" height="23.6441" fill="white"/>
<rect x="145.757" y="155.274" width="26.152" height="26.152" fill="white"/>
<path d="M143.608 153.125H135.726V152.587C135.721 145.929 138.594 139.594 143.608 135.213V153.125Z" fill="white"/>
<path d="M171.91 153.125H145.758V133.538C149.603 130.889 154.164 129.474 158.834 129.48C163.503 129.474 168.064 130.889 171.91 133.538V153.125Z" fill="white"/>
<path d="M174.059 183.576H181.94V201.488C181.94 204.654 179.374 207.22 176.209 207.22H174.059V183.576Z" fill="white"/>
<path d="M143.608 183.576V207.22H141.459C138.293 207.22 135.726 204.654 135.726 201.488V183.576H143.608Z" fill="white"/>
<path d="M174.059 153.125V135.213C179.072 139.594 181.946 145.929 181.94 152.587V153.125L174.059 153.125Z" fill="white"/>
<rect x="135.727" y="155.274" width="7.88144" height="26.152" fill="white"/>
<circle cx="121.218" cy="185.367" r="4.65721" fill="#3F3D56"/>
<rect x="268.043" y="140.67" width="6.18596" height="20.5261" fill="#F2F2F2"/>
<rect x="245.829" y="140.67" width="20.5261" height="20.5261" fill="#F2F2F2"/>
<rect x="237.956" y="140.67" width="6.18596" height="20.5261" fill="#F2F2F2"/>
<path d="M244.142 138.983H237.956V138.561C237.952 133.335 240.207 128.363 244.142 124.925V138.983Z" fill="#F2F2F2"/>
<rect x="245.829" y="162.883" width="20.5261" height="18.5577" fill="#F2F2F2"/>
<path d="M268.042 162.883H274.228V176.942C274.228 179.426 272.214 181.44 269.73 181.44H268.042L268.042 162.883Z" fill="#F2F2F2"/>
<path d="M244.142 162.883V181.44H242.455C239.97 181.44 237.956 179.426 237.956 176.942V162.883H244.142Z" fill="#F2F2F2"/>
<path d="M268.043 138.983V124.925C271.977 128.363 274.233 133.336 274.228 138.561V138.983H268.043Z" fill="#F2F2F2"/>
<path d="M266.356 138.982H245.829V123.609C248.848 121.53 252.428 120.419 256.093 120.425C259.758 120.419 263.337 121.53 266.356 123.609V138.982Z" fill="#F2F2F2"/>
<path d="M229.878 183.684H282.177C282.875 183.683 283.441 183.117 283.442 182.419V179.044C283.441 178.346 282.875 177.78 282.177 177.779H229.878C229.179 177.78 228.613 178.346 228.612 179.044V182.419C228.613 183.117 229.179 183.683 229.878 183.684Z" fill="#E6E6E6"/>
<rect x="73.5143" y="140.67" width="6.18596" height="20.5261" fill="#F2F2F2"/>
<rect x="51.3013" y="140.67" width="20.5261" height="20.5261" fill="#F2F2F2"/>
<rect x="43.428" y="140.67" width="6.18596" height="20.5261" fill="#F2F2F2"/>
<path d="M49.6142 138.983H43.4281V138.561C43.4238 133.335 45.6794 128.363 49.6142 124.925V138.983Z" fill="#F2F2F2"/>
<rect x="51.3013" y="162.883" width="20.5261" height="18.5577" fill="#F2F2F2"/>
<path d="M73.5147 162.883H79.7004V176.942C79.7004 179.426 77.6862 181.44 75.2016 181.44H73.5147V162.883Z" fill="#F2F2F2"/>
<path d="M49.6142 162.883V181.44H47.9268C45.4422 181.44 43.428 179.426 43.4281 176.942V162.883H49.6142Z" fill="#F2F2F2"/>
<path d="M73.5144 138.983V124.925C77.4495 128.363 79.7048 133.336 79.7003 138.561V138.983H73.5144Z" fill="#F2F2F2"/>
<path d="M71.8275 138.982H51.3016V123.609C54.3197 121.53 57.8994 120.419 61.5644 120.425C65.2297 120.419 68.8094 121.53 71.8275 123.609V138.982Z" fill="#F2F2F2"/>
<path d="M35.3488 183.684H87.6483C88.347 183.683 88.9131 183.117 88.9139 182.418V179.044C88.9131 178.346 88.347 177.78 87.6483 177.779H35.3488C34.6503 177.78 34.0842 178.346 34.0838 179.044V182.418C34.0842 183.117 34.6503 183.683 35.3488 183.684Z" fill="#E6E6E6"/>
<path d="M19.8336 251.901H297.833C304.359 251.894 309.648 246.605 309.655 240.079V59.8808C309.648 53.3546 304.359 48.066 297.833 48.0586H19.8336C13.3074 48.066 8.0187 53.3546 8.01141 59.8808V240.079C8.0187 246.605 13.3074 251.894 19.8336 251.901ZM297.833 48.7751C303.964 48.782 308.932 53.7502 308.939 59.8808V240.079C308.932 246.21 303.964 251.178 297.833 251.185H19.8336C13.703 251.178 8.73482 246.21 8.72791 240.079L8.72779 59.8808C8.73482 53.7502 13.703 48.7821 19.8336 48.7751H297.833Z" fill="#CCCCCC"/>
<path d="M305.16 71.6207C311.331 71.6159 316.465 66.8752 316.961 60.724C317.457 54.5728 313.148 49.0711 307.058 48.078L161.769 0.341078C159.881 0.0289788 157.955 0.0266078 156.066 0.334066L10.5842 48.0856C4.12801 49.1441 -0.247611 55.2361 0.810945 61.6923C1.86956 68.1485 7.96148 72.5241 14.4177 71.4655C15.9849 71.2417 157.545 51.0288 158.836 50.9757C160.122 51.0289 301.821 71.2614 303.252 71.4659C303.883 71.5688 304.521 71.6205 305.16 71.6207Z" fill="#427131"/>
<path d="M96.5215 223.439C95.9149 222.651 95.688 221.635 95.9026 220.664C96.1169 219.694 96.75 218.868 97.6322 218.409L96.9684 210.761L101.517 209.224L102.303 220.037C102.991 221.604 102.398 223.438 100.923 224.306C99.448 225.174 97.5572 224.801 96.5215 223.439Z" fill="#FFB8B8"/>
<path d="M73.8197 282.898H77.9158L79.8633 267.101L73.8183 267.101L73.8197 282.898Z" fill="#FFB8B8"/>
<path d="M80.8411 281.728H72.9424V286.701H85.8144C85.8144 283.954 83.5878 281.727 80.8411 281.728Z" fill="#2F2E41"/>
<path d="M83.1167 272.416L87.0939 273.393L92.7566 258.518L86.8862 257.075L83.1167 272.416Z" fill="#FFB8B8"/>
<path d="M90.2158 272.955L82.5453 271.07L81.3586 275.9L93.8586 278.971C94.514 276.304 92.8831 273.611 90.2158 272.955Z" fill="#2F2E41"/>
<path d="M78.614 277.862C79.388 277.864 80.0376 277.279 80.1167 276.509L84.8302 232.604L88.9309 246.029L83.1222 266.999C82.9156 267.743 83.3026 268.524 84.0201 268.81L88.638 270.657C89.0218 270.811 89.4521 270.801 89.8288 270.629C90.2053 270.458 90.4953 270.14 90.6317 269.749L97.75 249.326C98.5294 247.096 98.8742 244.737 98.7658 242.377L97.7719 220.337L71.6049 221.445L72.0135 275.975C72.0236 276.762 72.6309 277.412 73.4147 277.475L78.4965 277.858C78.5355 277.861 78.575 277.862 78.614 277.862Z" fill="#2F2E41"/>
<circle cx="82.9474" cy="162.761" r="8.79891" fill="#FFB8B8"/>
<path d="M76.4767 222.879C78.7938 222.879 81.6726 222.689 84.6507 222.493C88.7205 222.225 92.9289 221.949 96.07 222.13C96.9325 222.216 97.7775 221.848 98.3024 221.158C101.541 217.012 96.5458 200.843 96.3315 200.157L92.2666 182.077C91.3727 178.1 88.5158 175.167 84.8109 174.421C81.343 173.725 77.9887 175.113 75.8375 178.138C75.7232 178.299 75.6092 178.463 75.495 178.632C68.4907 189.006 72.4523 214.778 72.7181 216.441C72.348 216.884 70.3471 219.39 70.8972 221.131C71.1209 221.839 71.7285 222.322 72.7035 222.565C73.945 222.811 75.2111 222.916 76.4767 222.879Z" fill="#CCCCCC"/>
<path d="M95.9281 222.887C96.7253 222.887 97.8001 222.593 99.2501 221.989C99.8729 221.73 101.769 220.941 99.4672 200.827C98.3369 190.947 96.7173 181.135 96.701 181.037L96.6853 180.943L96.5982 180.903C96.5561 180.884 92.4202 178.988 91.701 176.552C91.6757 176.467 91.6479 176.386 91.617 176.307C91.2061 175.181 89.9814 174.58 88.8395 174.942C87.6342 175.23 86.8597 176.404 87.0689 177.625C87.3193 179.214 87.8011 180.758 88.4982 182.207C90.4447 186.223 91.7632 196.87 91.7763 196.977C91.8507 197.886 93.6171 219.429 93.9575 221.064C94.0765 221.635 94.295 222.333 94.937 222.672C95.2448 222.824 95.5852 222.898 95.9281 222.887Z" fill="#2F2E41"/>
<path d="M86.3159 222.061C86.4766 222.061 86.6328 222.007 86.7595 221.909C89.3483 219.942 85.1593 196.096 82.6741 187.87C82.1765 186.222 81.7334 184.811 81.3574 183.676C80.6711 181.639 80.1925 179.538 79.9283 177.404C79.7913 176.249 79.4944 175.589 79.0188 175.386C78.6891 175.246 78.3012 175.341 77.8657 175.67C75.5708 175.558 73.3406 176.495 71.2735 177.527L69.4136 178.455L67.3262 215.408C67.3853 217.766 72.0339 219.431 74.0625 219.537C77.3184 219.708 83.1651 220.238 85.7415 221.869C85.9108 221.987 86.1099 222.053 86.3159 222.061Z" fill="#2F2E41"/>
<path d="M97.9434 215.128C97.9742 215.128 98.0051 215.127 98.0362 215.125L102.252 214.866C102.676 214.84 103.07 214.637 103.337 214.306C103.605 213.975 103.721 213.548 103.657 213.127L101.749 200.489L98.1582 182.757C97.9791 181.873 97.434 181.107 96.6578 180.649C95.8818 180.19 94.9476 180.083 94.0878 180.353C92.5858 180.832 91.6572 182.334 91.8999 183.892L94.7528 201.66L96.4418 213.821C96.5493 214.569 97.1884 215.125 97.9434 215.128Z" fill="#2F2E41"/>
<path d="M81.3402 171.343C77.7263 171.421 74.388 169.417 72.7582 166.191C71.1282 162.964 71.4953 159.089 73.7026 156.226C75.9096 153.363 79.5641 152.022 83.0992 152.777C85.0342 151.602 87.2839 150.811 89.5384 151.012C91.7934 151.214 94.0234 152.552 94.8663 154.653C95.7096 156.754 94.8039 159.523 92.7072 160.377C91.3633 160.924 89.8455 160.659 88.4109 160.438C86.9766 160.217 85.4118 160.073 84.1633 160.813C82.9147 161.553 82.354 163.538 83.472 164.463C84.6854 165.507 85.1255 167.194 84.5769 168.698C84.0147 170.151 82.4815 171.319 81.3402 171.343Z" fill="#2F2E41"/>
<path d="M100.844 172.128C105.622 172.128 109.494 176.001 109.494 180.778C109.494 185.556 105.622 189.428 100.844 189.428C96.0666 189.428 92.194 185.556 92.194 180.778C92.194 176.001 96.0666 172.128 100.844 172.128Z" fill="#C69AEC"/>
<path d="M101.665 184.371C101.893 184.371 102.114 184.297 102.296 184.161L102.308 184.152L104.686 182.333C105.15 181.977 105.237 181.314 104.882 180.85C104.527 180.387 103.864 180.299 103.4 180.655L101.859 181.836L98.2182 177.086C97.8633 176.623 97.1999 176.536 96.7369 176.89L96.7591 176.922L96.7357 176.891C96.2733 177.246 96.186 177.909 96.5403 178.373L100.823 183.957C101.024 184.218 101.335 184.371 101.664 184.37L101.665 184.371Z" fill="white"/>
<path d="M82.6222 196.114H112.982C114.68 196.114 116.057 197.491 116.056 199.189V229.548C116.057 231.246 114.68 232.623 112.982 232.622H82.6226C80.9243 232.623 79.5477 231.246 79.5483 229.548V199.188C79.5483 197.49 80.9245 196.113 82.6222 196.114Z" fill="#C69AEC"/>
<path d="M92.3272 212.131L103.266 214.261C103.683 214.343 104.087 214.071 104.168 213.654C104.249 213.237 103.977 212.834 103.56 212.753L92.621 210.623C92.2043 210.541 91.8009 210.813 91.7197 211.23C91.6386 211.646 91.9105 212.05 92.3272 212.131Z" fill="#C69AEC"/>
<path d="M94.4537 215.286L100.112 216.388C100.528 216.469 100.932 216.197 101.013 215.78C101.094 215.364 100.823 214.96 100.406 214.879L94.7475 213.777C94.3309 213.696 93.9274 213.968 93.8463 214.385C93.7651 214.802 94.0368 215.205 94.4537 215.286Z" fill="#C69AEC"/>
<path d="M79.5479 199.189V203.224H116.056V199.189C116.056 197.491 114.68 196.114 112.982 196.114H82.6223C80.9241 196.114 79.5475 197.491 79.5479 199.189Z" fill="#3F3D56"/>
<path d="M83.541 201.294C83.0206 200.447 82.1518 199.874 81.1681 199.729C80.1845 199.585 79.1873 199.883 78.4449 200.544L71.5325 197.205L68.4792 200.911L78.307 205.489C79.5273 206.689 81.452 206.787 82.7872 205.716C84.1228 204.646 84.4465 202.746 83.541 201.294Z" fill="#FFB8B8"/>
<path d="M73.9389 204.88C74.6394 204.88 75.2485 204.4 75.4128 203.719L76.4172 199.545C76.5741 198.901 76.2921 198.23 75.7221 197.891L69.6667 194.267L72.762 182.934C72.9802 182.128 72.9326 181.274 72.6262 180.498C72.0278 178.99 70.5491 178.019 68.9273 178.068C67.3059 178.118 65.8896 179.178 65.3848 180.72L61.9674 191.154C61.1056 193.764 62.0369 196.632 64.2679 198.238L73.0515 204.592C73.3096 204.779 73.6205 204.88 73.9389 204.88Z" fill="#2F2E41"/>
<path d="M63.933 287.01H100.475C100.672 287.01 100.833 286.849 100.833 286.651C100.833 286.454 100.672 286.293 100.475 286.293H63.933C63.7355 286.293 63.5749 286.454 63.5749 286.651C63.5749 286.849 63.7355 287.01 63.933 287.01Z" fill="#CCCCCC"/>
</svg>
