<svg width="346" height="302" viewBox="0 0 346 302" fill="none" xmlns="http://www.w3.org/2000/svg">
<rect x="295.88" y="34.0115" width="1.17969" height="8.12173" fill="#CFD5EE"/>
<path d="M294.656 43.9509L297.605 43.9743C297.389 44.5851 296.805 45.0197 296.121 45.0143C295.439 45.0089 294.862 44.565 294.656 43.9509Z" fill="white"/>
<path d="M298.866 44.0988L293.331 44.0761C293.136 44.0753 293.01 43.8698 293.096 43.6952C293.645 42.5862 294.789 41.8269 296.109 41.8323C297.427 41.8377 298.564 42.6064 299.104 43.72C299.189 43.8952 299.061 44.0996 298.866 44.0988Z" fill="#CFD5EE"/>
<path opacity="0.3" d="M293.276 44.1416L274.381 77.0324L317.695 77.1227L298.801 43.8125L293.276 44.1416Z" fill="url(#paint0_linear_94_5993)"/>
<ellipse cx="79.1617" cy="257.954" rx="44.4381" ry="11.0614" fill="#3EA4A4"/>
<ellipse cx="307.185" cy="257.954" rx="38.4837" ry="6.73999" fill="#3EA4A4"/>
<ellipse cx="49.8581" cy="237.497" rx="49.1288" ry="6.73999" fill="#3EA4A4"/>
<path d="M303.416 284.559C303.416 294.188 256.098 301.994 197.728 301.994C139.358 301.994 92.0397 294.188 92.0397 284.559C92.0397 274.93 139.358 220.443 197.728 220.443C256.098 220.443 303.416 274.93 303.416 284.559Z" fill="#3EA4A4"/>
<path d="M13.6411 148.225C13.6411 142.011 18.6779 136.975 24.8911 136.975H79.2786C85.4918 136.975 90.5286 142.011 90.5286 148.225V162.834H13.6411V148.225Z" fill="white"/>
<path d="M87.0808 144.733V159.387H17.089V144.733C17.089 142.354 19.0198 140.424 21.3988 140.424H82.7709C85.1499 140.424 87.0808 142.354 87.0808 144.733Z" fill="#526B85"/>
<path d="M69.407 144.733V159.387H17.089V144.733C17.089 142.354 19.0198 140.424 21.3988 140.424H65.0971C67.4762 140.424 69.407 142.354 69.407 144.733Z" fill="#75AAF5"/>
<path d="M13.6411 161.455H90.5286V217.381C90.5286 223.594 85.4918 228.631 79.2786 228.631H24.8911C18.6779 228.631 13.6411 223.594 13.6411 217.381V161.455Z" fill="#19AAF7"/>
<path d="M87.0808 166.283V220.869C87.0808 223.248 85.1499 225.179 82.7709 225.179H21.3988C19.0198 225.179 17.089 223.248 17.089 220.869V166.283H87.0808Z" fill="#526B85"/>
<path d="M69.407 166.283V220.869C69.407 223.248 67.4762 225.179 65.0971 225.179H21.3988C19.0198 225.179 17.089 223.248 17.089 220.869V166.283H69.407Z" fill="#75AAF5"/>
<circle cx="52.0848" cy="153.754" r="3.10309" fill="#465A70"/>
<circle cx="21.8011" cy="193.117" r="3.10309" fill="#179DE4"/>
<path d="M25.1626 243.227H19.9334L22.548 228.631H31.5699L25.1626 243.227Z" fill="#3D4654"/>
<path d="M77.8288 243.227H83.0582L80.4435 228.631H71.4216L77.8288 243.227Z" fill="#3D4654"/>
<path d="M251.881 148.225C251.881 142.011 256.917 136.975 263.131 136.975H317.518C323.731 136.975 328.768 142.011 328.768 148.225V162.834H251.881V148.225Z" fill="white"/>
<path d="M325.32 144.733V159.387H255.328V144.733C255.328 142.354 257.259 140.424 259.638 140.424H321.01C323.389 140.424 325.32 142.354 325.32 144.733Z" fill="#526B85"/>
<path d="M307.646 144.733V159.387H255.328V144.733C255.328 142.354 257.259 140.424 259.638 140.424H303.336C305.715 140.424 307.646 142.354 307.646 144.733Z" fill="#75AAF5"/>
<path d="M251.881 161.455H328.768V217.381C328.768 223.594 323.731 228.631 317.518 228.631H263.131C256.917 228.631 251.881 223.594 251.881 217.381V161.455Z" fill="white"/>
<path d="M325.32 166.283V220.869C325.32 223.248 323.389 225.179 321.01 225.179H259.638C257.259 225.179 255.328 223.248 255.328 220.869V166.283H325.32Z" fill="#526B85"/>
<path d="M307.646 166.283V220.869C307.646 223.248 305.715 225.179 303.336 225.179H259.638C257.259 225.179 255.328 223.248 255.328 220.869V166.283H307.646Z" fill="#75AAF5"/>
<circle cx="290.324" cy="153.754" r="3.10309" fill="#465A70"/>
<circle cx="260.041" cy="193.117" r="3.10309" fill="#465A70"/>
<path d="M263.402 243.227H258.173L260.787 228.631H269.81L263.402 243.227Z" fill="#3D4654"/>
<path d="M316.068 243.227H321.298L318.683 228.631H309.661L316.068 243.227Z" fill="#3D4654"/>
<path d="M60.9045 111.675V133.493C60.9045 135.417 59.3461 136.976 57.4291 136.976H20.5644C18.6474 136.976 17.089 135.417 17.089 133.493V111.675C17.089 109.758 18.6474 108.2 20.5644 108.2H57.4291C59.3461 108.2 60.9045 109.758 60.9045 111.675Z" fill="#D6DEF1"/>
<path d="M50.4437 111.675V133.493C50.4437 135.417 48.8852 136.976 46.9613 136.976H20.5644C18.6474 136.976 17.089 135.417 17.089 133.493V111.675C17.089 109.758 18.6474 108.2 20.5644 108.2H46.9613C48.8852 108.2 50.4437 109.758 50.4437 111.675Z" fill="#F6F9FF"/>
<path d="M50.4426 111.687V122.151L50.4339 123.023V133.487H20.5683V124.113L20.577 111.678L50.4426 111.687Z" fill="#19AAF7"/>
<path d="M50.4423 122.15L50.4341 123.023H41.1034L39.3767 125.97C39.2899 126.118 39.1244 126.197 38.9589 126.179C38.7844 126.162 38.6444 126.049 38.5837 125.891L37.5983 123.023H34.0753L32.3224 127.967C32.2617 128.141 32.0962 128.255 31.9128 128.255C31.7294 128.255 31.5639 128.141 31.5032 127.967L28.6428 119.787L25.5997 124.775C25.5211 124.906 25.3818 124.985 25.2246 124.985H20.5686V124.112H24.9805L28.3815 118.54C28.4684 118.401 28.6339 118.323 28.8 118.34C28.9655 118.358 29.1048 118.471 29.1662 118.627L31.9128 126.502L33.3519 122.438C33.4126 122.264 33.5781 122.15 33.7615 122.15H37.9121C38.0955 122.15 38.261 122.272 38.3217 122.447L39.0981 124.705L40.4759 122.368C40.5545 122.229 40.6938 122.15 40.8504 122.15H50.4423Z" fill="#097599"/>
<path d="M57.7816 114.303C57.7816 115.446 56.8548 116.374 55.7108 116.374C54.5675 116.374 53.64 115.446 53.64 114.303C53.64 113.159 54.5675 112.232 55.7108 112.232C56.8548 112.232 57.7816 113.159 57.7816 114.303Z" fill="#5C7794"/>
<path d="M57.7816 121.225C57.7816 122.369 56.8548 123.296 55.7108 123.296C54.5675 123.296 53.64 122.369 53.64 121.225C53.64 120.082 54.5675 119.154 55.7108 119.154C56.8548 119.154 57.7816 120.082 57.7816 121.225Z" fill="#5C7794"/>
<path d="M96.3954 288.021C95.6899 288.021 94.9769 287.825 94.3396 287.413C92.5812 286.276 92.0772 283.928 93.2143 282.169L125.983 231.485C127.119 229.726 129.468 229.222 131.226 230.359C132.986 231.496 133.49 233.844 132.352 235.603L99.5839 286.287C98.8584 287.41 97.64 288.021 96.3954 288.021Z" fill="#3D4654"/>
<path d="M292.995 288.021C291.752 288.021 290.532 287.41 289.807 286.287L257.038 235.603C255.901 233.844 256.405 231.496 258.164 230.359C259.924 229.221 262.271 229.726 263.408 231.485L296.177 282.169C297.314 283.928 296.81 286.276 295.051 287.413C294.415 287.825 293.701 288.021 292.995 288.021Z" fill="#3D4654"/>
<path d="M96.3993 298.019C94.3044 298.019 92.6067 296.321 92.6067 294.226V233.544C92.6067 231.45 94.3044 229.751 96.3993 229.751C98.4935 229.751 100.192 231.45 100.192 233.544V294.226C100.192 296.321 98.4935 298.019 96.3993 298.019Z" fill="#3D4654"/>
<path d="M292.992 298.019C290.897 298.019 289.2 296.321 289.2 294.226V233.544C289.2 231.45 290.897 229.751 292.992 229.751C295.086 229.751 296.785 231.45 296.785 233.544V294.226C296.785 296.321 295.086 298.019 292.992 298.019Z" fill="#3D4654"/>
<path d="M289.207 238.716H100.181C98.926 238.716 97.7261 238.668 96.5814 238.571C70.5086 236.447 73.9703 210.981 74.784 206.513C74.8599 206.078 74.915 205.844 74.915 205.844L181.172 209.616L194.694 210.099L291.69 206.651L314.473 205.844C314.473 205.844 321.962 238.716 289.207 238.716Z" fill="#465F7A"/>
<path d="M266.237 238.571H96.5814C70.5086 236.447 73.9703 210.982 74.784 206.513L171.724 209.954L181.172 209.616L291.503 205.699C291.503 205.699 291.579 206.037 291.69 206.651C292.614 212.05 295.655 238.571 266.237 238.571Z" fill="#5C7794"/>
<path d="M314.473 205.845C313.671 196.159 311.658 186.461 306.933 184.111H194.695H82.4583C77.7333 186.461 75.7205 196.159 74.9178 205.845C73.9283 217.783 83.3216 228.028 95.2996 228.028H194.695H294.091C306.069 228.028 315.463 217.783 314.473 205.845Z" fill="#2E2C30"/>
<path d="M299.247 203.203H90.1476C80.1557 203.203 75.2528 191.032 82.4589 184.109L134.529 134.073L144.327 99.629C145.465 95.6293 149.12 92.8711 153.278 92.8711H236.11C240.268 92.8711 243.923 95.6293 245.061 99.629L254.866 134.073L306.936 184.109C314.135 191.032 309.239 203.203 299.247 203.203Z" fill="#47444B"/>
<path d="M299.247 203.203H298.165L256.307 151.409C250.412 144.106 241.744 139.59 232.379 138.942L191.874 136.114L228.269 133.701C234.365 133.294 238.944 128.219 238.944 122.323C238.944 121.695 238.889 121.068 238.785 120.426C236.027 96.2638 200.169 93.5744 200.169 93.5744L200.073 92.8711H236.11C240.268 92.8711 243.923 95.6293 245.061 99.629L254.866 134.073L306.936 184.109C314.135 191.032 309.239 203.203 299.247 203.203Z" fill="#3A373D"/>
<path d="M234.669 113.379C234.655 114.186 234.324 114.903 233.71 115.448C233.179 115.924 232.531 116.172 231.828 116.172C230.49 116.172 229.228 115.262 228.435 114.551C222.112 117.365 207.1 118.385 194.694 118.385C182.296 118.385 167.284 117.365 160.953 114.544C160.167 115.262 158.905 116.172 157.567 116.172C156.857 116.172 156.209 115.924 155.678 115.448C155.064 114.903 154.733 114.186 154.719 113.379C154.706 112.041 155.609 110.793 156.209 110.11C156.126 108.6 156.009 104.649 156.788 100.47C157.333 97.5877 158.195 95.1467 159.367 93.209C159.25 93.1055 159.14 92.9952 159.029 92.8711H230.359C230.249 92.9952 230.138 93.1055 230.021 93.209C231.524 95.6914 232.51 98.9669 232.966 102.96C233.331 106.152 233.241 108.911 233.179 110.11C233.779 110.793 234.683 112.041 234.669 113.379Z" fill="#3A373D"/>
<path d="M232.793 114.42C231.241 115.799 228.718 112.869 228.718 112.869C218.946 118.385 170.449 118.385 160.677 112.869C160.677 112.869 158.147 115.799 156.595 114.42C155.044 113.041 157.629 110.627 157.629 110.627C157.629 110.627 157.195 105.807 158.147 100.725C158.671 97.9324 159.602 95.0707 161.25 92.8709C161.25 92.8709 159.009 91.6643 159.698 90.4575C160.388 89.2507 163.146 90.4575 163.146 90.4575C163.146 90.4575 167.621 83.7341 194.694 83.7341C221.767 83.7341 226.242 90.4575 226.242 90.4575C226.242 90.4575 229 89.2507 229.69 90.4575C230.379 91.6643 228.138 92.8709 228.138 92.8709C230.262 95.7051 231.2 99.6633 231.593 103.118C232.062 107.221 231.759 110.627 231.759 110.627C231.759 110.627 234.344 113.041 232.793 114.42Z" fill="#D6DEF1"/>
<path d="M231.593 103.118C223.608 106.359 211.189 108.448 197.239 108.448C180.103 108.448 165.277 105.304 158.147 100.725C158.671 97.9324 159.602 95.0707 161.25 92.8709C161.25 92.8709 159.009 91.6643 159.698 90.4575C160.388 89.2507 163.146 90.4575 163.146 90.4575C163.146 90.4575 167.621 83.7341 194.694 83.7341C221.767 83.7341 226.242 90.4575 226.242 90.4575C226.242 90.4575 229 89.2507 229.69 90.4575C230.38 91.6643 228.138 92.8709 228.138 92.8709C230.262 95.7051 231.2 99.6633 231.593 103.118Z" fill="#F6F9FF"/>
<path d="M68.7176 253.818C68.4004 255.714 62.539 260.024 59.8428 259.238C57.1534 258.459 54.2986 256.404 53.7125 254.162C53.5401 253.507 53.8228 252.563 54.3055 251.563V251.556C54.9054 250.322 55.8087 248.991 56.5466 247.998C57.2431 247.053 57.7878 246.405 57.7878 246.405H65.0697C65.0697 246.405 65.649 247.212 66.3524 248.322C66.8834 249.163 67.4902 250.184 67.9591 251.149C68.4694 252.211 68.821 253.204 68.7176 253.818Z" fill="#521300"/>
<path d="M74.2067 252.866C73.2207 252.701 72.8138 251.494 72.6897 250.066C72.5794 248.922 72.6552 247.632 72.7655 246.619C72.869 245.591 73 244.853 73 244.853L82.4196 244.164C82.4196 244.164 82.8954 244.509 83.6263 245.074C83.7436 245.157 83.8608 245.253 83.9918 245.357C86.1571 247.032 89.8946 250.108 90.7083 251.921C91.8598 254.507 76.7926 253.301 74.2067 252.866Z" fill="#521300"/>
<path d="M97.9969 144.155L97.5763 147.32L97.0729 151.099L91.8804 190.219L84.7502 243.964L84.7226 244.164C84.7226 244.164 84.5778 244.309 84.302 244.55C84.1296 244.688 83.9021 244.867 83.6331 245.067C83.6331 245.067 83.6262 245.067 83.6262 245.074C81.7988 246.405 77.82 248.522 72.7654 246.619C72.3999 246.488 72.0276 246.329 71.6483 246.15C71.269 245.971 70.8898 245.771 70.5036 245.543L70.6691 242.012L74.6549 158.519L74.91 153.188L75.0548 150.106L75.1651 147.879L75.241 146.244L78.3992 145.955L78.4475 145.948L95.6041 144.376L97.9969 144.155Z" fill="#1382BD"/>
<path d="M78.5164 144.865L78.4475 145.927V145.948L78.1716 150.203L77.9717 153.354L77.7717 156.478L72.0414 245.888C71.9104 245.978 71.7793 246.067 71.6483 246.15C69.9589 247.267 68.1522 247.95 66.3524 248.322C62.6976 249.081 59.0842 248.598 56.5466 247.998C55.726 247.812 55.0158 247.605 54.4572 247.426C53.5676 247.143 53.0574 246.922 53.0574 246.922L45.5065 144.093L45.3272 141.638L45.0721 138.142L78.5164 144.865Z" fill="#179DE4"/>
<path d="M97.9969 144.155L97.5763 147.32L97.0729 151.099C92.2114 152.437 87.5085 153.133 82.9987 153.327C81.2954 153.402 79.6128 153.409 77.9717 153.354C76.9373 153.327 75.9168 153.264 74.91 153.189C72.6482 153.002 70.4553 152.713 68.3383 152.327C59.1187 150.651 51.3059 147.286 45.5065 144.093L45.3272 141.638L45.0721 138.142L78.5164 144.865L78.4475 145.927V145.948L95.6041 144.376L97.9969 144.155Z" fill="#1382BD"/>
<path d="M108.134 143.086C104.555 144.859 101.031 146.251 97.5763 147.32C95.3283 148.017 93.1147 148.568 90.9357 148.996C86.5225 149.872 82.254 150.23 78.1717 150.203C77.1166 150.203 76.0754 150.168 75.0548 150.106C74.0135 150.058 72.993 149.975 71.9862 149.872C61.2426 148.775 52.0782 145.183 45.3273 141.638C37.4661 137.501 32.8736 133.432 32.8736 133.432L48.3752 95.7816L48.7544 94.8506L48.7889 94.7885V94.7816L49.113 93.9886L50.0371 91.7406V91.7337L52.0299 86.8929L52.0782 86.7826L53.7539 82.721V82.7142L54.14 81.7694L54.5331 80.8108L67.6005 49.0697L67.6419 49.0559C68.5452 48.7042 69.5106 48.3939 70.5036 48.1388C75.3237 46.8838 80.8059 46.6906 83.9641 46.7045H83.971C84.8123 46.7114 85.4812 46.7252 85.9294 46.7458C86.3501 46.7597 86.5776 46.7735 86.5776 46.7735C87.7982 47.1252 89.0049 47.5457 90.1634 48.0216C90.4599 48.1388 90.7426 48.256 91.0322 48.3801C94.7974 50.0007 97.9763 51.9866 99.5002 53.0003L99.583 53.0555L100.3 53.545L100.473 53.6692L102.203 73.9013L102.403 76.2183L104.031 95.2298L104.134 96.4297L104.265 97.9881L104.362 99.057L104.617 102.063L104.734 103.443L104.989 106.435L105.037 106.973L105.231 109.201L108.134 143.086Z" fill="#179DE4"/>
<path d="M105.231 109.201C104.272 110.159 102.672 111.504 100.404 112.607C98.6865 113.448 96.5902 114.145 94.0939 114.427C92.4114 114.621 90.5495 114.621 88.5084 114.352C88.5084 114.352 85.6122 118.275 80.2197 116.724C79.6474 116.565 79.144 116.213 78.7785 115.745L76.4546 112.779C75.9168 112.09 75.172 111.586 74.3376 111.345L55.395 105.904C54.4227 105.628 53.6022 104.98 53.0988 104.098L48.3752 95.7814L48.7544 94.8505L48.7889 94.7884V94.7815L49.113 93.9885L51.0024 94.9608H51.0094L70.0071 104.663H70.014L72.2206 105.787L76.6063 108.028L79.8956 109.621L85.0536 112.117L94.8663 107.959L102.1 104.891L104.114 103.787L104.734 103.443L104.989 106.435L105.037 106.973L105.231 109.201Z" fill="#1382BD"/>
<path d="M58.4333 89.1793L57.2127 93.834C57.2127 93.834 56.3508 94.1442 55.0337 94.4407C51.7996 95.1648 45.7934 95.8061 42.9179 91.5721C38.346 85.2073 43.3454 76.2498 43.3454 76.2498L54.5303 80.8079L52.0272 86.8899L55.3026 88.0622L58.4333 89.1793Z" fill="#FFB375"/>
<path d="M42.3056 78.5784C42.3056 78.5784 46.6651 82.9194 51.2618 83.4062V86.2211L47.9132 87.2829L52.0279 86.892L54.138 81.7664L43.3469 76.2498L42.3056 78.5784Z" fill="#EF9757"/>
<path d="M63.0796 89.6669C63.8823 90.04 64.334 91.0371 64.0864 91.8866C63.9947 92.2011 63.7747 92.5204 63.4499 92.5617C63.1486 92.6003 62.8776 92.3914 62.6459 92.1948L61.3474 91.0922C60.7516 90.5867 60.1317 90.0469 59.8697 89.311L61.6915 89.4118C62.1639 89.438 62.65 89.4676 63.0796 89.6669Z" fill="#EF9757"/>
<path d="M83.6856 64.6995C83.6856 64.6995 76.4727 50.5632 78.3 49.3013C80.1274 48.0325 82.3685 49.4117 83.5477 47.5774C83.858 47.0878 84.1545 46.2465 84.4303 45.2674V45.2604C85.0372 43.1158 85.513 40.3299 85.6854 39.2749C88.03 39.8128 90.1262 40.9437 92.4156 41.5091C91.988 43.0676 91.2571 45.9362 91.0709 47.8808C91.0089 48.4186 90.9951 48.8875 91.0433 49.2393C91.333 51.3977 93.9534 51.0942 95.0774 53.0113C96.1945 54.9282 83.6856 64.6995 83.6856 64.6995Z" fill="#FFB375"/>
<path d="M92.4156 41.5091C91.9881 43.0676 91.2571 45.9362 91.0709 47.8808C90.1953 48.0463 89.2436 48.1359 88.2231 48.1359C88.2231 48.1359 86.3336 47.5015 84.4304 45.2674V45.2604C85.0372 43.1158 85.513 40.3299 85.6854 39.2749C88.03 39.8128 90.1263 40.9437 92.4156 41.5091Z" fill="#EF9757"/>
<path d="M86.3445 10.5568C85.2329 10.4306 84.3944 9.18524 84.6951 8.10743C84.9957 7.03031 86.359 6.39939 87.3754 6.86759C86.7796 5.4574 86.9782 3.90863 88.1347 2.90528C89.291 1.90198 91.1032 1.74472 92.4155 2.5336C92.6603 1.10135 94.1215 -0.0571234 95.5731 0.00217979C97.0246 0.061483 98.3321 1.31031 98.4596 2.757C99.5553 2.03365 101.329 2.14677 102.418 2.88112C103.507 3.61556 104.088 5.03329 103.828 6.32074C104.962 5.69947 106.891 6.36279 107.626 7.42683C108.361 8.49017 108.153 10.0962 107.17 10.9374C108.617 11.3781 109.31 13.5813 108.652 14.9425C107.994 16.3037 106.444 17.0553 104.935 17.1657C103.427 17.276 101.936 16.852 100.49 16.4099C95.7234 14.9542 91.2971 11.1188 86.3445 10.5568Z" fill="#521300"/>
<path d="M108.055 22.7526C107.517 27.9726 105.979 31.0343 102.911 32.2135C102.063 32.5376 101.097 32.7238 100.008 32.7652L86.099 29.9931L79.1619 25.966C79.1619 25.966 76.1002 20.9114 81.5065 13.4433C82.4029 12.2021 83.389 11.154 84.4371 10.2713C89.7193 5.82355 96.4978 5.67872 100.235 7.69224C104.718 10.1058 108.745 16.0844 108.055 22.7526Z" fill="#6E1E01"/>
<path d="M105.545 24.4904C105.18 28.0348 104.359 30.5793 102.911 32.2136C102.063 32.5378 101.097 32.7239 100.008 32.7653L86.099 29.9932L79.1619 25.9661C79.1619 25.9661 76.1002 20.9115 81.5065 13.4434C82.4029 12.2022 83.389 11.1541 84.4371 10.2714C89.209 7.57514 94.5601 7.73376 97.7253 9.43701C102.207 11.8505 106.235 17.8222 105.545 24.4904Z" fill="#802301"/>
<path d="M88.6291 44.1266C88.6291 44.1266 81.0438 41.5986 81.0438 28.7264C81.0438 28.7264 78.5152 27.4624 79.3199 24.7041C80.1246 21.9458 81.8485 24.7041 81.8485 24.7041C81.8485 24.7041 82.1934 21.0259 84.6069 21.3707C87.0203 21.7154 90.4683 24.8185 94.2609 25.0489C98.0536 25.2785 103.34 25.7384 104.029 27.2321C104.719 28.7264 102.65 30.7951 102.65 30.7951C102.65 30.7951 104.719 29.4159 105.064 30.5655C105.409 31.7143 103.915 33.6686 102.076 33.6686C102.076 33.6686 99.5472 44.1266 88.6291 44.1266Z" fill="#FFB375"/>
<path d="M37.4855 73.319C37.4855 73.319 45.3011 82.9731 56.2191 82.8578L70.5016 48.1357L67.5971 49.0687C67.5971 49.0687 50.9322 52.8613 37.4855 73.319Z" fill="#179DE4"/>
<path d="M63.2341 61.5962L52.0279 86.8918L55.9508 88.293C55.9508 88.293 58.012 85.7858 59.8697 87.0505L58.6098 83.484C58.6098 83.484 57.0086 83.5474 56.8935 85.0418L55.5688 84.5818L63.2341 61.5962Z" fill="#1382BD"/>
<path d="M63.3748 97.3128C62.8866 97.3128 62.4259 97.0149 62.2431 96.5301L57.9058 85.0425C57.6699 84.4177 57.985 83.7199 58.6098 83.484C59.2366 83.2482 59.9331 83.5633 60.1682 84.1881L64.5063 95.6757C64.7422 96.3005 64.4263 96.9984 63.8023 97.2349C63.6609 97.288 63.5168 97.3128 63.3748 97.3128Z" fill="#521300"/>
<path d="M58.4333 89.1791L57.2127 93.8337C57.2127 93.8337 56.3508 94.1439 55.0337 94.4405C54.5992 94.2819 54.1648 94.1234 53.7511 93.9647L53.5098 93.8682L53.3856 93.6407C53.2546 93.3992 52.172 91.2685 53.0339 89.8341C53.4339 89.1653 54.1441 88.7929 55.1441 88.7239C55.1716 88.524 55.2199 88.2963 55.3026 88.062L58.4333 89.1791Z" fill="#EF9757"/>
<path d="M56.7363 87.2828C56.7363 87.2828 57.943 86.2484 58.6899 87.2249C59.4374 88.2021 61.9654 91.6499 62.8852 92.3395C63.8044 93.029 62.8852 95.155 61.4481 94.4083C61.4481 94.4083 61.2758 95.615 60.7014 95.615C60.1269 95.615 53.9931 93.3166 53.9931 93.3166C53.9931 93.3166 51.7941 89.1791 55.8171 89.4089C55.8171 89.4089 55.6316 87.9876 56.7363 87.2828Z" fill="#FFB375"/>
<path d="M78.9482 111.68L55.9509 105.364C54.951 105.088 54.0959 104.46 53.558 103.612C53.5028 103.536 53.4546 103.447 53.4063 103.364L48.069 93.4546C47.5243 92.4478 48.4966 91.31 49.6275 91.6204L74.4935 98.5367C75.452 98.8057 76.2795 99.3367 76.8933 100.054C77.3621 100.585 77.7 101.226 77.8862 101.923L80.1412 110.57C80.3135 111.259 79.6585 111.873 78.9482 111.68Z" fill="#6E1E01"/>
<path d="M109.372 96.8819C109.303 97.2474 109.234 97.5991 109.152 97.9507C108.331 101.536 106.828 104.302 104.987 106.433C101.801 110.149 97.5874 111.956 94.1464 112.832C90.6434 113.728 87.9402 113.659 87.9402 113.659C85.0096 116.645 80.5825 116.245 79.6653 115.845C79.1068 115.597 77.5346 112.99 76.3898 110.977C76.0313 110.349 75.7141 109.777 75.4796 109.356C75.2452 108.943 75.1004 108.667 75.0728 108.612L75.0659 108.605C75.0659 108.605 72.8661 106.846 72.218 105.784C72.0524 105.515 71.9904 105.295 72.08 105.157C72.4455 104.612 77.2312 106.233 79.1895 106.929C79.6309 107.081 79.9274 107.191 79.9964 107.219C79.5688 106.867 79.2034 106.419 78.9413 105.957C78.5482 105.281 78.3552 104.578 78.4517 104.081C78.4793 103.916 78.5414 103.771 78.631 103.66C79.2034 102.971 81.5065 105.846 83.8028 106.191C86.0991 106.536 86.5749 108.605 86.5749 108.605L96.6771 96.1923L98.9734 93.6616L100.284 94.0684L104.028 95.2269L105.118 95.5648L109.372 96.8819Z" fill="#FFB375"/>
<path d="M109.372 96.8818C109.303 97.2474 109.234 97.599 109.152 97.9506C108.331 101.536 106.828 104.302 104.987 106.432C101.801 110.149 97.5873 111.956 94.1463 112.832C90.6433 113.728 87.9402 113.659 87.9402 113.659C90.3675 113.08 92.45 112.425 94.2291 111.722C100.477 109.273 103.09 106.26 104.111 103.784C104.366 103.171 104.524 102.592 104.614 102.061C104.917 100.275 104.469 99.0609 104.469 99.0609C104.435 99.0609 104.393 99.054 104.359 99.054C103.263 98.9919 102.311 98.8609 101.497 98.6955C97.739 97.93 96.7529 96.3233 96.684 96.1992L96.6771 96.1922L100.284 94.0684L104.028 95.2269L105.117 95.5648L109.372 96.8818Z" fill="#EF9757"/>
<path d="M119.546 95.5054C119.546 95.5054 118.636 95.8984 117.098 96.3811C115.222 96.9673 112.402 97.6776 109.154 97.9534C107.603 98.0844 105.955 98.1189 104.265 97.9879C103.693 97.9465 103.114 97.8844 102.534 97.8016C100.59 97.5327 98.6176 97.0293 96.6867 96.2019L96.6799 96.1949L99.5002 53L99.583 53.0552L100.3 53.5448L100.473 53.669C100.473 53.669 101.259 54.3447 102.521 55.6894C103.693 56.9444 105.279 58.7718 107.017 61.1715C111.506 67.3639 117.015 77.3351 119.001 90.7887C119.174 91.899 119.312 93.0367 119.422 94.1952C119.47 94.6297 119.512 95.0641 119.546 95.5054Z" fill="#179DE4"/>
<path d="M82.4229 124.462L100.581 123.543C100.581 123.543 103.8 143.08 93.2265 144.115C82.6525 145.149 82.4229 124.462 82.4229 124.462Z" fill="#42BCFC"/>
<path d="M63.2342 120.614L45.8631 115.242C45.8631 115.242 37.9241 133.382 47.9153 136.993C57.9072 140.604 63.2342 120.614 63.2342 120.614Z" fill="#42BCFC"/>
<path d="M76.8933 100.054C74.4522 104.991 65.0188 106.784 54.9096 104.012C54.4545 103.888 53.9994 103.757 53.558 103.612C53.5028 103.536 53.4546 103.447 53.4063 103.364L48.069 93.4546C47.5243 92.4478 48.4966 91.31 49.6275 91.6204L74.4935 98.5367C75.452 98.8057 76.2795 99.3367 76.8933 100.054Z" fill="#802301"/>
<path d="M78.3826 109.949C78.2448 109.949 76.6932 109.625 75.4796 109.356C75.2451 108.942 75.1003 108.667 75.0727 108.611C75.2796 108.687 78.5964 109.949 78.3826 109.949Z" fill="#EF9757"/>
<path d="M97.9232 65.4973L92.4155 95.9193L94.1878 97.2818L86.5749 108.605L96.6744 96.1896C96.6744 96.1896 94.1305 94.6449 94.1305 94.4408C94.1305 94.2361 97.9232 65.4973 97.9232 65.4973Z" fill="#1382BD"/>
<path d="M97.4246 33.7728C97.1825 34.6196 96.5529 35.1823 96.0192 35.0292C95.4848 34.8761 95.2483 34.0658 95.491 33.2191C95.733 32.3729 96.3626 31.8103 96.8964 31.9627C97.4301 32.1157 97.6666 32.926 97.4246 33.7728Z" fill="#521300"/>
<path d="M87.9142 31.4832C87.672 32.33 87.0425 32.8927 86.5087 32.7396C85.975 32.5872 85.7385 31.777 85.9805 30.9302C86.2225 30.0834 86.8522 29.5207 87.3859 29.6738C87.9203 29.8262 88.1568 30.6364 87.9142 31.4832Z" fill="#521300"/>
<path d="M90.2876 35.1533C90.5172 34.201 91.0096 33.3135 91.695 32.6143C91.3826 33.5004 91.3882 34.4948 91.7088 35.3781C91.8936 35.887 92.1694 36.489 91.8453 36.9227C91.5136 37.3654 90.7462 37.2144 90.4345 36.7572C90.1221 36.3001 90.1572 35.6911 90.2876 35.1533Z" fill="#EF9757"/>
<path d="M90.3537 40.8692C89.4117 41.252 88.2512 41.0147 87.5355 40.2934C87.19 39.9452 86.9403 39.4694 86.9769 38.9805C87.0134 38.4909 87.3982 38.0164 87.8878 37.9861C88.2485 37.9634 88.5802 38.1669 88.8842 38.362L90.582 39.4556C90.7509 39.5638 90.9295 39.6839 91.0075 39.8686C91.1798 40.2783 90.7654 40.7017 90.3537 40.8692Z" fill="white"/>
<g style="mix-blend-mode:multiply">
<path d="M106.938 143.086C103.36 144.858 99.8359 146.251 96.3811 147.32L95.8777 151.099L90.6852 190.218L83.555 243.964C83.4378 244.005 83.3137 244.053 83.1895 244.095C83.1688 244.253 83.1413 244.405 83.1068 244.55C83.0861 244.619 83.0723 244.688 83.0516 244.75C82.9964 244.929 82.9344 245.129 82.7965 245.357C82.2172 246.357 80.2658 247.846 71.515 250.06C71.5082 250.06 71.5013 250.06 71.4943 250.066C71.384 248.922 71.4599 247.632 71.5703 246.619C71.2047 246.488 70.8324 246.329 70.4531 246.15C68.7637 247.267 66.957 247.949 65.1572 248.322C65.6882 249.163 66.295 250.184 66.7639 251.149C63.1367 251.901 59.2545 252.514 56.6547 252.514C55.3928 252.514 54.0137 252.397 53.1104 251.563V251.556C53.7103 250.322 54.6136 248.991 55.3514 247.998C54.5308 247.811 53.8206 247.605 53.262 247.425C54.2274 246.391 55.9237 245.336 58.4545 243.798C59.7371 243.026 61.1025 242.198 62.323 241.364C60.544 240.985 58.8269 240.481 57.1788 239.861C56.4134 239.571 55.8893 238.861 55.841 238.04C55.4825 231.765 52.6552 176.441 63.7366 166.076C66.557 163.435 69.9704 160.863 73.4596 158.519C74.494 157.815 75.5422 157.139 76.5765 156.477C78.3625 155.353 80.1279 154.298 81.8035 153.326C84.8928 151.533 87.6856 150.051 89.7405 148.996C90.1888 148.761 90.5956 148.554 90.9679 148.368C92.0506 147.823 92.9195 147.396 93.4918 147.12C93.7125 146.506 94.0366 145.562 94.4089 144.375C94.5123 144.044 94.6227 143.693 94.733 143.32C96.1121 138.783 97.8706 131.708 97.5603 125.978C97.5189 125.164 97.4913 124.385 97.4776 123.64C97.3948 118.923 97.9258 115.399 99.2084 112.607C100.091 110.697 101.318 109.124 102.939 107.745C103.153 107.566 103.463 107.304 103.842 106.973L104.035 109.2L106.938 143.086Z" fill="#C4BEC4"/>
<path d="M116.269 90.9678C114.958 90.9678 112.979 90.5955 110.979 88.8302C110.911 88.7682 110.842 88.6992 110.773 88.6234C109.876 87.5752 109.097 86.3478 108.435 84.9617C108.325 84.9754 108.214 84.9754 108.111 84.9754C107.297 84.9754 106.573 84.6513 106.083 84.0515C105.525 83.3688 105.359 82.4654 105.58 81.3621C105.939 79.5347 106.118 77.2592 106.159 76.6178C105.601 72.0459 105.883 67.5292 106.263 64.309C105.863 63.309 105.718 62.2264 105.821 61.1714C110.311 67.3637 115.82 77.335 117.806 90.7886C117.406 90.892 116.882 90.9678 116.269 90.9678Z" fill="#C4BEC4"/>
<path d="M118.351 95.5055C118.351 95.5055 117.441 95.8986 115.903 96.3813C116.744 95.602 117.537 94.8643 118.227 94.1953C118.275 94.6298 118.316 95.0642 118.351 95.5055Z" fill="#C4BEC4"/>
</g>
<path d="M89.3647 238.498C88.7931 240.839 65.1565 247.994 63.2802 246.177C61.7949 244.742 71.4013 240.157 74.6837 236.258C75.5553 235.223 75.9808 234.238 75.6408 233.373L84.6191 230.354C84.6191 230.354 86.8112 232.741 88.2242 235.074C89.0207 236.374 89.5675 237.661 89.3647 238.498Z" fill="#FFB375"/>
<path d="M88.2241 235.074C81.6539 237.329 76.6193 236.666 74.6836 236.258C75.5553 235.223 75.9807 234.238 75.6408 233.373L84.619 230.354C84.619 230.354 86.8112 232.741 88.2241 235.074Z" fill="#EF9757"/>
<path d="M85.5272 153.452C79.6617 157.241 72.5846 162.302 67.6514 167.442C57.7601 177.752 65.7971 234.496 65.7971 234.496C79.9382 238.274 93.3663 232.271 93.3663 232.271C85.201 213.043 92.4823 190.954 96.3997 181.547C97.4451 179.035 98.2499 177.431 98.4567 177.027V153.452H85.5272Z" fill="#0AADAD"/>
<path d="M98.4566 177.027V175.757C83.5922 190.819 86.5719 224.456 86.5719 224.456C85.5016 233.398 65.7971 234.496 65.7971 234.496C79.9382 238.274 93.3662 232.271 93.3662 232.271C85.201 213.043 92.4822 190.954 96.3997 181.547C97.4451 179.035 98.2498 177.431 98.4566 177.027Z" fill="#099494"/>
<path d="M135.411 69.4061V89.7485L128.143 92.4723L122.275 94.6652C122.151 88.5831 120.523 87.2523 120.523 87.2523L117.565 88.59L117.482 88.6314C117.482 88.6314 114.862 89.783 112.021 87.2798C104.952 79.0049 108.456 61.4484 108.456 61.4484C108.456 61.4484 116.793 59.8417 116.882 59.5866C116.965 59.3245 135.411 69.4061 135.411 69.4061Z" fill="#FFB375"/>
<path d="M108.105 64.0016C109.284 63.5291 110.66 64.1429 111.519 65.0793C112.376 66.015 112.861 67.2226 113.46 68.3424C114.058 69.463 114.855 70.5724 116.037 71.0365C118.369 71.951 121.292 70.0456 123.394 71.4055C123.988 71.7895 124.421 72.3937 125.038 72.7384C125.655 73.0825 126.619 73.0101 126.855 72.344L124.143 66.9481C124.143 66.9481 113.627 61.6521 113.369 61.5659C113.11 61.4797 108.455 61.4487 108.455 61.4487L108.105 64.0016Z" fill="#EF9757"/>
<path d="M128.143 92.4725L122.275 94.6654C122.15 88.5833 120.523 87.2524 120.523 87.2524L117.565 88.5902C118.372 88.1627 121.499 87.0228 125.003 82.0544L128.143 92.4725Z" fill="#EF9757"/>
<path d="M80.7484 244.131C79.9899 246.544 55.8548 252.061 54.1309 249.992C52.7654 248.358 62.7091 244.351 66.2949 240.531C67.2465 239.517 67.75 238.518 67.481 237.58L76.673 235.166C76.673 235.166 78.6659 237.862 79.8864 240.434C80.576 241.869 81.0173 243.269 80.7484 244.131Z" fill="#FFB375"/>
<path d="M79.8864 240.434C73.1561 242.248 68.1912 241.124 66.2949 240.531C67.2465 239.517 67.7499 238.518 67.481 237.58L76.673 235.166C76.673 235.166 78.6659 237.862 79.8864 240.434Z" fill="#EF9757"/>
<path d="M175.841 160.175C175.841 160.175 172.179 186.393 143.327 186.393C122.95 186.393 106.67 183.138 99.2221 181.338C97.6085 180.945 96.4086 180.628 95.6708 180.414C95.1054 180.262 94.8157 180.172 94.8157 180.172C94.8157 180.172 93.7883 181.883 92.3402 184.855C87.6786 194.412 78.6452 217.017 85.2375 237.924C85.2375 237.924 71.3702 243.096 57.5787 237.924C57.5787 237.924 54.1308 177.587 64.8192 167.588C72.8114 160.113 85.6099 153.217 91.5679 150.217C93.5814 149.197 94.8157 148.624 94.8157 148.624L159.608 147.935L175.841 160.175Z" fill="#0AADAD"/>
<path d="M95.6707 180.414C95.1053 180.262 94.8157 180.172 94.8157 180.172C94.8157 180.172 93.7882 181.883 92.3401 184.855C87.6786 194.412 78.6452 217.016 85.2375 237.924C85.2375 237.924 71.3702 243.096 57.5787 237.924C57.5787 237.924 77.3074 238.441 79.0934 229.132C79.0934 229.132 78.8245 193.274 95.0157 178.793L95.6707 180.414Z" fill="#099494"/>
<path d="M175.841 160.175C175.841 160.175 126.219 180.345 91.5678 150.217C93.5814 149.197 94.8157 148.624 94.8157 148.624L159.608 147.935L175.841 160.175Z" fill="#099494"/>
<path d="M120.7 94.3322C122.723 92.2642 125.235 90.7279 128.027 89.9714C132.564 88.7426 139.363 88.4798 146.877 93.602C159.462 102.768 175.839 118.283 175.839 160.175C175.839 160.175 129.465 178.793 94.8143 148.624C94.8143 148.624 99.8137 135.523 99.2965 125.868C98.7794 116.215 100.503 112.249 103.951 109.319C106.836 106.867 116.702 98.4214 120.7 94.3322Z" fill="#0AADAD"/>
<path d="M148.603 88.4178C147.823 88.8936 146.996 89.2729 146.141 89.5762C144.396 90.2038 142.527 90.5348 140.693 90.8589C136.411 91.6105 132.653 95.7893 127.715 92.107C125.674 90.459 124.529 88.735 124.681 86.1147C124.833 83.4874 126.315 80.9773 128.536 79.5775C129.86 78.743 131.453 77.9708 132.046 76.5226C132.646 75.0814 132.315 73.2541 131.136 72.2266C129.949 71.206 127.97 71.1922 126.881 72.3163C126.343 72.8748 125.15 72.0267 124.592 71.4888C124.04 70.944 123.564 70.2751 122.861 69.9579C121.468 69.3166 119.868 70.2682 118.344 70.1579C116.944 70.0545 115.765 69.0615 114.868 67.9719C113.972 66.8824 113.241 65.6481 112.165 64.7309C111.097 63.8207 109.255 63.2277 107.993 63.8483C107.2 62.2346 107.449 60.1659 108.607 58.7937C109.4 57.8628 110.517 57.2835 111.51 56.5595C112.434 55.8837 113.255 55.0769 114.103 54.3046C114.503 53.9391 114.917 53.5874 115.351 53.2564C118.206 51.0774 122.164 49.5879 125.757 49.5879C127.908 49.5879 130.101 50.0637 132.094 50.967C132.887 51.3256 133.652 51.7463 134.363 52.2358C135.68 53.1323 136.831 54.2425 137.721 55.5458C137.886 55.7803 138.038 56.0217 138.183 56.2699C138.238 56.3664 138.293 56.4629 138.342 56.5595C139.148 58.0282 139.748 59.6694 141.017 60.7521C142.238 61.7865 143.92 62.1589 145.134 63.2001C145.81 63.7793 146.292 64.531 146.63 65.3515C146.989 66.1928 147.203 67.1169 147.341 68.0202C147.347 68.0547 147.347 68.0822 147.354 68.1167C147.616 69.9372 147.665 71.8198 148.334 73.5299C148.568 74.1367 148.878 74.716 149.223 75.2814C149.478 75.702 149.761 76.1158 150.044 76.5296C151.133 78.1155 152.271 79.6671 152.492 81.5496C152.816 84.3079 150.968 86.9559 148.603 88.4178Z" fill="#6E1E01"/>
<path d="M146.141 89.5764C144.396 90.2039 142.527 90.535 140.693 90.859C136.411 91.6106 132.653 95.7894 127.715 92.1072C125.674 90.4591 124.529 88.7351 124.681 86.1147C124.833 83.4874 126.315 80.9774 128.536 79.5776C129.86 78.7432 131.453 77.9708 132.046 76.5228C132.646 75.0816 132.315 73.2542 131.136 72.2267C129.949 71.2062 127.97 71.1923 126.881 72.3163C126.343 72.8749 125.15 72.0267 124.592 71.4889C124.04 70.9441 123.564 70.2753 122.861 69.958C121.468 69.3167 119.868 70.2683 118.344 70.1579C116.944 70.0545 115.765 69.0615 114.868 67.972C113.972 66.8825 113.241 65.6481 112.165 64.731C111.097 63.8208 109.255 63.2277 107.993 63.8484C107.2 62.2347 107.449 60.1661 108.607 58.7937C109.4 57.8629 110.517 57.2836 111.51 56.5596C112.434 55.8838 113.255 55.077 114.103 54.3047C116.317 53.291 118.771 52.6772 121.075 52.6772C123.226 52.6772 125.419 53.1531 127.412 54.0564C128.205 54.4149 128.97 54.8356 129.681 55.3252C130.998 56.2217 132.149 57.3319 133.039 58.6352C133.204 58.8696 133.356 59.111 133.501 59.3592C133.556 59.4558 133.611 59.5523 133.659 59.6488C134.466 61.1176 135.066 62.7588 136.335 63.8415C137.555 64.8758 139.238 65.2482 140.452 66.2894C141.127 66.8687 141.61 67.6203 141.948 68.441C142.307 69.2822 142.52 70.2062 142.658 71.1096C142.665 71.1441 142.665 71.1716 142.672 71.2062C142.934 73.0266 142.982 74.9091 143.651 76.6193C143.886 77.2261 144.196 77.8053 144.541 78.3708C144.796 78.7914 145.079 79.2052 145.361 79.6189C146.451 81.205 147.589 82.7565 147.809 84.639C148.023 86.4319 147.313 88.1766 146.141 89.5764Z" fill="#802301"/>
<path d="M127.824 74.0375C128.431 73.6245 129.292 73.6266 129.896 74.0431C130.501 74.4596 130.81 75.2637 130.639 75.9781C130.469 76.6918 129.83 77.2703 129.103 77.3689C129.677 76.8573 129.891 75.9788 129.615 75.2609C129.339 74.5431 128.593 74.0334 127.824 74.0375Z" fill="#EF9757"/>
<path d="M107.909 76.5681C107.909 76.5681 107.737 79.465 107.278 81.7647C107.047 82.9155 107.547 83.1301 108.571 82.7129C109.162 82.4716 109.516 81.8392 109.299 81.1117L107.909 76.5681Z" fill="#EF9757"/>
<path d="M111.17 76.0028C111.342 76.6587 111.197 77.2648 110.846 77.3572C110.495 77.4489 110.07 76.9917 109.899 76.3352C109.728 75.6795 109.873 75.0733 110.224 74.9809C110.575 74.8892 110.999 75.3471 111.17 76.0028Z" fill="#6E1E01"/>
<path d="M108.374 74.5473C108.68 73.6645 109.418 72.9433 110.308 72.6564C111.198 72.3702 112.219 72.5253 112.983 73.0633C111.334 72.9626 109.654 73.5039 108.374 74.5473Z" fill="#6E1E01"/>
<path d="M110.774 84.0922C110.774 84.0922 112.9 83.8625 114.682 81.3911C114.682 81.3911 115.831 86.4485 114.682 86.5629C113.532 86.6781 110.774 84.0922 110.774 84.0922Z" fill="#F6F9FF"/>
<path d="M133.042 242.049L137.209 235.603C138.346 233.844 137.842 231.496 136.083 230.359C134.325 229.222 131.976 229.726 130.84 231.485L124.009 242.049H133.042Z" fill="#3D4654"/>
<path d="M105.049 242.049V233.544C105.049 231.45 103.351 229.751 101.256 229.751C99.1614 229.751 97.4637 231.45 97.4637 233.544V242.049H105.049Z" fill="#3D4654"/>
<path d="M145.033 208.161V238.716H105.038C103.783 238.716 102.583 238.668 101.438 238.571C100.032 238.454 98.7076 238.275 97.4664 238.026C90.5362 236.668 86.1367 233.399 83.3853 229.448C77.4895 220.994 79.1169 209.395 79.6409 206.513C79.7167 206.078 79.7719 205.844 79.7719 205.844L84.8196 206.023L145.033 208.161Z" fill="#465F7A"/>
<path d="M145.033 208.837V238.571H101.438C100.032 238.454 98.7076 238.274 97.4664 238.026C90.5362 236.668 86.1367 233.399 83.3853 229.448C77.4895 220.994 79.1169 209.395 79.6409 206.513H79.7306L84.6748 206.692L145.033 208.837Z" fill="#5C7794"/>
<path d="M145.033 186.356V228.028H100.156C92.929 228.028 86.6401 224.29 83.0129 218.705C80.7305 215.215 79.503 210.995 79.7305 206.513C79.7374 206.292 79.7513 206.071 79.7719 205.844C80.5787 196.162 82.5923 186.46 87.3159 184.109H113.499C121.553 185.343 131.787 186.391 143.33 186.391C143.909 186.391 144.475 186.377 145.033 186.356Z" fill="#2E2C30"/>
<path d="M145.033 186.357V203.203H95.0046C91.4532 203.203 88.5501 201.665 86.6056 199.376C83.0543 195.218 82.6681 188.57 87.3158 184.109L92.3911 179.234L92.9634 178.682C93.9564 179.385 95.3218 180.316 95.6734 180.413C96.4113 180.626 97.6112 180.944 99.2247 181.337C102.452 182.123 107.334 183.171 113.499 184.109C121.553 185.343 131.786 186.391 143.33 186.391C143.909 186.391 144.475 186.378 145.033 186.357Z" fill="#47444B"/>
<path d="M104.104 156.383L102.608 168.795C102.608 168.795 100.939 175.256 99.7392 180.173C99.6358 180.593 99.4634 180.98 99.2221 181.338C96.3741 180.649 94.8157 180.173 94.8157 180.173C94.8157 180.173 93.4552 178.968 92.007 181.94C89.3384 182.513 84.9251 183.55 84.9251 183.55C84.9251 183.55 82.9412 194.309 81.9069 194.323C80.8725 194.323 79.6658 185.517 79.6658 183.104C79.6658 180.69 81.5759 180.173 81.5759 180.173L93.278 173.215L98.8153 154.459L104.104 156.383Z" fill="#099494"/>
<path d="M126.855 143.108C126.855 143.108 119.617 171.036 98.2622 177.242L120.523 142.275L126.855 143.108Z" fill="#099494"/>
<path d="M138.222 109.025C138.222 109.025 141.383 121.387 139.695 131.345C138.408 138.933 137.336 143.453 137.336 143.453C137.336 143.453 119.381 148.636 104.396 133.719C104.396 133.719 105.298 117.455 115.628 102.354L138.222 109.025Z" fill="#099494"/>
<path d="M83.695 180.173C83.695 180.173 81.1091 180.087 80.9367 181.983C80.7643 183.879 80.4195 192.609 81.54 192.609C82.1875 192.609 83.695 185.258 83.695 185.258V180.173Z" fill="#EF9757"/>
<path d="M123.433 139.832C123.433 162.23 99.0428 176.78 98.2842 177.228C98.2774 177.235 98.2705 177.235 98.2636 177.242L97.7464 181.034C97.2293 184.827 87.9199 183.965 86.5408 184.482C85.1617 185 83.7825 193.102 82.5758 192.585C81.369 192.068 82.0586 182.414 82.5758 180.517C83.093 178.621 92.747 174.483 92.747 174.483L108.373 137.074L109.814 133.626L123.433 139.832Z" fill="#FFB375"/>
<path d="M123.433 139.832C123.433 162.23 99.0428 176.78 98.2842 177.228C118.413 163.092 121.502 143.377 121.502 143.377C114.372 142.446 108.373 137.074 108.373 137.074L109.814 133.626L123.433 139.832Z" fill="#EF9757"/>
<path d="M135.411 141.212C131.784 141.763 128.522 141.874 125.605 141.66C111.235 140.653 105.159 132.075 105.159 132.075C109.897 108.905 114.841 100.961 119.268 98.3893C121.93 96.8446 124.405 97.2308 126.536 97.4239C148.775 102.423 135.411 141.212 135.411 141.212Z" fill="#09A3A3"/>
<path d="M126.122 141.591C125.95 141.619 125.778 141.639 125.605 141.66C111.235 140.653 105.159 132.075 105.159 132.075C109.897 108.905 114.841 100.962 119.268 98.3894C138.638 105.244 126.122 141.591 126.122 141.591Z" fill="#0AADAD"/>
<path d="M173.401 167.934C173.401 167.934 168.955 192.244 144.697 190.942C120.438 189.641 98.4566 185.274 98.4566 185.274L84.9534 187.543C84.9534 187.543 85.3947 184.449 88.2226 184.288C91.0512 184.127 96.4403 184.048 97.636 181.472L97.7463 181.034L110.457 183.621C110.457 183.621 128.129 186.254 137.015 186.287C145.901 186.321 163.412 188.434 173.401 167.934Z" fill="#3A373D"/>
<defs>
<linearGradient id="paint0_linear_94_5993" x1="292.136" y1="99.9587" x2="292.136" y2="119.177" gradientUnits="userSpaceOnUse">
<stop offset="1" stop-color="white" stop-opacity="0"/>
<stop stop-color="white"/>
</linearGradient>
</defs>
</svg>
