<svg width="410" height="294" viewBox="0 0 410 294" fill="none" xmlns="http://www.w3.org/2000/svg">
<rect x="41.0569" y="281.539" width="27.1442" height="1.28979" fill="#EBEBEB"/>
<rect x="138.318" y="283.762" width="7.12433" height="1.28979" fill="#EBEBEB"/>
<rect x="69.0214" y="273.928" width="15.7285" height="1.28979" fill="#EBEBEB"/>
<rect x="331.371" y="275.305" width="35.3978" height="1.28979" fill="#EBEBEB"/>
<rect x="318.884" y="275.305" width="5.19001" height="1.28979" fill="#EBEBEB"/>
<rect x="225.247" y="278.766" width="76.7691" height="1.28979" fill="#EBEBEB"/>
<path d="M215.522 231.798H373.77C376.349 231.798 378.448 229.7 378.448 227.121V4.67702C378.448 2.09796 376.349 0 373.77 0H215.522C212.944 0 210.845 2.09796 210.845 4.67702V227.121C210.845 229.7 212.944 231.798 215.522 231.798ZM373.77 0.204915C376.237 0.204915 378.243 2.21109 378.243 4.67702V227.121C378.243 229.587 376.237 231.594 373.77 231.594H215.522C213.056 231.594 211.05 229.587 211.05 227.121V4.67702C211.05 2.21109 213.056 0.204915 215.522 0.204915H373.77Z" fill="#EBEBEB"/>
<path d="M38.2626 231.798H196.511C199.09 231.798 201.188 229.7 201.188 227.121V4.67702C201.188 2.09796 199.09 0 196.511 0H38.2626C35.6834 0 33.5845 2.09796 33.5845 4.67702V227.121C33.5845 229.7 35.6834 231.798 38.2626 231.798ZM196.511 0.204915C198.977 0.204915 200.983 2.21109 200.983 4.67702V227.121C200.983 229.587 198.977 231.594 196.511 231.594H38.2626C35.7967 231.594 33.7894 229.587 33.7894 227.121V4.67702C33.7894 2.21109 35.7967 0.204915 38.2626 0.204915H196.511Z" fill="#EBEBEB"/>
<rect y="268.348" width="409.759" height="1.28979" fill="#EBEBEB"/>
<rect x="78.615" y="31.0354" width="62.1682" height="91.9783" fill="#F5F5F5"/>
<path d="M78.6148 32.8183H140.783C141.768 32.8183 142.567 32.02 142.567 31.035C142.567 30.05 141.768 29.2517 140.783 29.2517H78.6148C77.6299 29.2517 76.8315 30.05 76.8315 31.035C76.8315 32.02 77.6299 32.8183 78.6148 32.8183Z" fill="#EBEBEB"/>
<path d="M78.6148 124.797H140.783C141.768 124.797 142.567 123.999 142.567 123.014C142.567 122.029 141.768 121.229 140.783 121.229H78.6148C77.6299 121.229 76.8315 122.029 76.8315 123.014C76.8315 123.999 77.6299 124.797 78.6148 124.797Z" fill="#EBEBEB"/>
<path d="M100.635 57.0213C100.635 55.1298 102.604 54.2063 103.913 52.3263C105.745 49.694 106.763 47.6206 109.603 47.6206C112.442 47.6206 113.46 49.694 115.293 52.3263C116.601 54.2063 118.57 55.1298 118.57 57.0213C118.57 57.8302 118.037 58.494 117.911 59.3078C117.633 61.1091 118.57 63.0177 118.57 65.0493C118.57 73.4764 114.555 80.3079 109.603 80.3079C104.65 80.3079 100.635 73.4764 100.635 65.0493C100.635 63.0177 101.572 61.1091 101.294 59.3078C101.169 58.494 100.635 57.8302 100.635 57.0213Z" fill="#E6E6E6"/>
<path d="M109.325 73.6541C109.325 73.6541 105.529 68.9272 105.529 63.0963C105.529 57.2646 109.325 52.5376 109.325 52.5376C109.325 52.5376 113.122 57.2646 113.122 63.0963C113.122 68.9272 109.325 73.6541 109.325 73.6541Z" fill="#E0E0E0"/>
<path d="M112.625 63.8487C112.982 65.3164 111.991 66.4408 110.6 66.7399C109.794 66.9128 108.95 66.8637 108.141 67.0293C107.733 67.112 106.958 67.1783 107.622 67.4243C108.49 67.7447 109.664 67.3562 110.591 67.5766C111.15 67.7102 111.749 68.0266 111.664 68.6978C111.577 69.3919 110.805 69.5829 110.232 69.7058C109.751 69.8083 109.208 69.7919 108.743 69.9558C107.945 70.236 108.545 70.3097 109.12 70.354C109.658 70.395 110.632 70.2992 110.744 71.0326C110.827 71.5784 109.992 71.8144 109.907 71.2629C109.897 71.1998 105.805 71.1047 107.704 69.4599C108.318 68.9264 109.374 69.0223 110.119 68.8445C111.014 68.6314 110.568 68.4224 109.868 68.356C109.325 68.3044 108.774 68.3347 108.229 68.3192C107.718 68.3044 106.829 68.3634 106.515 67.8422C106.253 67.4086 106.471 66.8564 106.83 66.5679C108.084 65.559 112.428 66.7088 111.787 64.0798C111.655 63.5372 112.492 63.3054 112.625 63.8487Z" fill="#F5F5F5"/>
<path d="M106.365 62.7392C106.365 63.7931 107.764 63.9645 109.489 63.9645C111.214 63.9645 112.613 63.7931 112.613 62.7392C112.613 61.6853 111.214 60.8306 109.489 60.8306C107.764 60.8306 106.365 61.6853 106.365 62.7392Z" fill="#F5F5F5"/>
<path d="M116.835 61.4084C116.835 61.4084 121.813 66.4657 123.077 66.4657C124.341 66.4657 126.91 60.3897 126.553 58.1688C126.366 56.9954 124.025 54.2975 124.815 53.7443C125.605 53.1911 127.107 56.4307 128.055 56.352C129.003 56.2725 129.319 49.0821 130.346 49.3983C131.374 49.7138 129.556 56.1938 130.346 56.1938C131.136 56.1938 135.482 49.7934 135.957 50.6629C136.43 51.5316 131.294 57.142 132.164 57.4583C133.032 57.7738 136.273 56.1143 136.588 57.0625C136.905 58.0107 131.144 58.8515 129.714 60.0653C127.479 61.9632 125.052 69.9429 123.392 69.9429C121.734 69.9429 116.835 65.0438 116.835 65.0438V61.4084Z" fill="#E6E6E6"/>
<path d="M102.468 61.4501C102.468 61.4501 97.5146 66.4828 96.2566 66.4828C94.9979 66.4828 92.4416 60.4355 92.7964 58.2261C92.9834 57.0575 95.3124 54.3727 94.5264 53.822C93.7397 53.2713 92.2459 56.496 91.3017 56.4166C90.3586 56.3387 90.0437 49.1827 89.022 49.4974C87.9991 49.8112 89.8078 56.26 89.022 56.26C88.2351 56.26 83.9104 49.8899 83.4384 50.7553C82.9664 51.6199 88.0779 57.2033 87.2132 57.518C86.3477 57.8327 83.1238 56.1814 82.809 57.1246C82.4952 58.0687 88.2276 58.9046 89.6503 60.1126C91.8744 62.0016 94.2906 69.9427 95.9418 69.9427C97.593 69.9427 102.468 65.0675 102.468 65.0675V61.4501Z" fill="#E6E6E6"/>
<path d="M116.835 72.1604C116.835 72.1604 130.719 82.3814 130.044 85.6595C129.369 88.9376 117.991 90.4807 118.57 92.0231C119.148 93.5662 120.818 95.8216 122.041 96.5549C124.314 97.9179 132.165 99.4479 131.876 100.508C131.587 101.57 127.055 99.9297 126.38 100.508C125.705 101.087 131.973 106.487 131.105 107.451C130.237 108.415 125.229 102.437 124.358 103.015C123.487 103.594 126.187 109.572 125.031 109.958C123.873 110.343 121.559 100.702 120.884 100.798C120.209 100.894 120.788 105.137 119.92 105.234C119.052 105.33 119.432 100.192 118.956 98.58C118.328 96.4551 115.388 92.8909 115.581 90.384C115.773 87.8772 124.548 86.72 124.741 85.3702C124.934 84.0205 121.649 86.0405 110.033 79.2452L116.835 72.1604Z" fill="#E6E6E6"/>
<path d="M101.963 72.1604C101.963 72.1604 88.0776 82.3814 88.7531 85.6595C89.4274 88.9376 100.806 90.4807 100.227 92.0231C99.6484 93.5662 97.9799 95.8216 96.7557 96.5549C94.4831 97.9179 86.6313 99.4479 86.9206 100.508C87.2098 101.57 91.7418 99.9297 92.417 100.508C93.0915 101.087 86.8237 106.487 87.6918 107.451C88.5596 108.415 93.5677 102.437 94.4388 103.015C95.3091 103.594 92.6096 109.572 93.7668 109.958C94.9239 110.343 97.2383 100.702 97.9128 100.798C98.5882 100.894 98.0095 105.137 98.8775 105.234C99.7454 105.33 99.365 100.192 99.8411 98.58C100.469 96.4551 103.409 92.8909 103.216 90.384C103.023 87.8772 94.2487 86.72 94.0561 85.3702C93.8629 84.0205 97.1473 86.0405 108.763 79.2452L101.963 72.1604Z" fill="#E6E6E6"/>
<path d="M109.326 73.6541C109.326 73.6541 113.122 68.9272 113.122 63.0963C113.122 57.2646 109.326 52.5376 109.326 52.5376C109.326 52.5376 114.641 56.0091 114.93 63.0963C115.219 70.1835 109.326 73.6541 109.326 73.6541Z" fill="#F5F5F5"/>
<path d="M109.325 73.6541C109.325 73.6541 105.529 68.9272 105.529 63.0963C105.529 57.2646 109.325 52.5376 109.325 52.5376C109.325 52.5376 104.01 56.0091 103.721 63.0963C103.432 70.1835 109.325 73.6541 109.325 73.6541Z" fill="#F5F5F5"/>
<rect x="161.428" y="31.0354" width="85.9343" height="67.3927" fill="#F0F0F0"/>
<path d="M161.429 32.8183H247.363C248.348 32.8183 249.146 32.02 249.146 31.035C249.146 30.05 248.348 29.2517 247.363 29.2517H161.429C160.444 29.2517 159.645 30.05 159.645 31.035C159.645 32.02 160.444 32.8183 161.429 32.8183Z" fill="#E6E6E6"/>
<path d="M161.429 100.211H247.363C248.348 100.211 249.146 99.4132 249.146 98.4281C249.146 97.443 248.348 96.644 247.363 96.644H161.429C160.444 96.644 159.645 97.443 159.645 98.4281C159.645 99.4132 160.444 100.211 161.429 100.211Z" fill="#E6E6E6"/>
<path d="M238.256 75.7874C235.595 73.2009 231.727 72.5093 228.19 71.9996C224.535 71.4726 220.751 71.253 217.24 70.0253C213.97 68.883 211.437 66.7727 210.056 63.5585C208.615 60.2075 208.295 56.4992 207.828 52.9204C207.306 48.9367 206.77 44.3867 203.837 41.3684C203.225 40.7382 204.19 39.7703 204.804 40.4022C209.972 45.7201 208.683 54.3529 210.588 60.9836C211.625 64.5977 213.748 67.2898 217.33 68.6117C220.81 69.8967 224.598 70.1237 228.241 70.6359C232.134 71.1825 236.298 71.9791 239.223 74.8212C239.853 75.4342 238.887 76.4004 238.256 75.7874Z" fill="#E0E0E0"/>
<path d="M229.651 84.3924C224.483 79.0737 225.772 70.4417 223.868 63.811C222.83 60.1969 220.707 57.5048 217.125 56.1821C213.645 54.8979 209.857 54.6709 206.214 54.1587C202.321 53.6121 198.156 52.8147 195.233 49.9734C194.602 49.3605 195.567 48.3942 196.198 49.0072C198.859 51.5936 202.728 52.2853 206.265 52.795C209.92 53.3212 213.703 53.5416 217.214 54.7685C220.486 55.9117 223.017 58.0211 224.4 61.236C225.84 64.5871 226.159 68.2954 226.627 71.8743C227.148 75.8579 227.684 80.4079 230.617 83.4262C231.23 84.0557 230.266 85.0242 229.651 84.3924Z" fill="#E0E0E0"/>
<path d="M203.198 42.4901C201.239 44.4495 199.28 46.409 197.321 48.3676C197.01 48.6782 196.526 48.1964 196.838 47.8849C198.797 45.9255 200.756 43.966 202.715 42.0074C203.026 41.6968 203.509 42.1795 203.198 42.4901Z" fill="#E0E0E0"/>
<path d="M205.203 45.0833C203.44 46.8469 201.677 48.6097 199.913 50.3733C199.603 50.6839 199.119 50.2012 199.431 49.8898C201.193 48.127 202.957 46.3634 204.721 44.6006C205.031 44.2892 205.515 44.7719 205.203 45.0833Z" fill="#E0E0E0"/>
<path d="M206.327 48.5578C205.347 49.5372 204.368 50.5165 203.388 51.4966C203.078 51.8072 202.593 51.3245 202.905 51.0131L205.843 48.0743C206.155 47.7637 206.638 48.2464 206.327 48.5578Z" fill="#E0E0E0"/>
<path d="M212.518 56.1589C212.009 56.6686 211.499 57.1783 210.99 57.6872C210.679 57.9986 210.195 57.516 210.507 57.2045C211.016 56.6947 211.525 56.1858 212.035 55.6761C212.345 55.3655 212.829 55.8482 212.518 56.1589Z" fill="#E0E0E0"/>
<path d="M215.963 57.312L212.142 61.1326C211.832 61.4432 211.348 60.9605 211.66 60.6491L215.48 56.8294C215.791 56.518 216.274 57.0007 215.963 57.312Z" fill="#E0E0E0"/>
<path d="M219.29 58.5823C217.331 60.5418 215.372 62.5005 213.413 64.4599C213.102 64.7706 212.618 64.2878 212.93 63.9772C214.888 62.0178 216.848 60.0583 218.807 58.0996C219.118 57.7882 219.602 58.2709 219.29 58.5823Z" fill="#E0E0E0"/>
<path d="M221.589 60.8811C219.63 62.8406 217.671 64.8001 215.711 66.7587C215.401 67.0692 214.917 66.5866 215.228 66.276C217.188 64.3165 219.147 62.357 221.106 60.3984C221.417 60.0878 221.9 60.5696 221.589 60.8811Z" fill="#E0E0E0"/>
<path d="M222.859 64.2082C221.586 65.4817 220.313 66.7553 219.039 68.0288C218.728 68.3394 218.245 67.8575 218.556 67.5461L222.377 63.7256C222.687 63.4149 223.17 63.8968 222.859 64.2082Z" fill="#E0E0E0"/>
<path d="M224.012 67.6534L222.484 69.1818C222.173 69.4923 221.69 69.0097 222.001 68.6983L223.529 67.1707C223.84 66.8593 224.323 67.3419 224.012 67.6534Z" fill="#E0E0E0"/>
<path d="M231.321 82.3671C233.279 80.4085 235.239 78.449 237.198 76.4895C237.509 76.179 237.992 76.6617 237.681 76.9731C235.721 78.9326 233.763 80.8912 231.803 82.8507C231.493 83.1612 231.009 82.6785 231.321 82.3671Z" fill="#E0E0E0"/>
<path d="M229.315 79.775C231.079 78.0114 232.842 76.2486 234.605 74.485C234.916 74.1744 235.399 74.6563 235.088 74.9677C233.325 76.7314 231.562 78.4949 229.799 80.2577C229.487 80.5682 229.004 80.0857 229.315 79.775Z" fill="#E0E0E0"/>
<path d="M228.192 76.3002L231.13 73.3613C231.442 73.0508 231.925 73.5335 231.614 73.845L228.675 76.7837C228.365 77.0943 227.881 76.6116 228.192 76.3002Z" fill="#E0E0E0"/>
<path d="M181.413 48.6809C186.874 48.6809 191.368 52.7965 191.978 58.0939H206.419C208.001 58.0939 208.004 60.5524 206.419 60.5524H191.978C191.368 65.8498 186.874 69.9646 181.413 69.9646C175.535 69.9646 170.771 65.2 170.771 59.3232C170.771 53.4456 175.535 48.6809 181.413 48.6809Z" fill="#FAFAFA"/>
<path d="M204.318 72.1257C208.598 72.1257 212.119 75.3514 212.598 79.5022H223.915C225.154 79.5022 225.156 81.4289 223.915 81.4289H212.598C212.119 85.5806 208.598 88.8054 204.318 88.8054C199.713 88.8054 195.979 85.0717 195.979 80.466C195.979 75.8595 199.713 72.1257 204.318 72.1257Z" fill="#FAFAFA"/>
<path d="M179.276 65.9738L179.49 64.2618L179.514 64.256C179.539 64.2504 179.563 64.2446 179.587 64.2372C179.603 64.2339 179.617 64.2299 179.633 64.2257C179.66 64.2184 179.687 64.2118 179.715 64.2036C179.826 64.1716 179.936 64.1372 180.044 64.0979C180.081 64.0847 180.117 64.0717 180.152 64.0578C180.303 64.0004 180.451 63.9365 180.594 63.8652C180.635 63.8455 180.674 63.825 180.713 63.8037C180.794 63.7611 180.875 63.7168 180.953 63.6693C180.992 63.6464 181.03 63.6225 181.068 63.5988C181.107 63.5742 181.145 63.5497 181.183 63.5235C181.22 63.4988 181.257 63.4734 181.293 63.4472C181.325 63.4259 181.356 63.403 181.386 63.38C181.429 63.3497 181.47 63.3178 181.511 63.285C181.546 63.2579 181.581 63.2292 181.615 63.1997C181.823 63.0268 182.017 62.8384 182.196 62.6351L182.366 62.4778L180.203 66.2934C180.113 66.4467 179.949 66.54 179.772 66.54C179.47 66.54 179.236 66.2737 179.276 65.9738Z" fill="#F0F0F0"/>
<path d="M179.367 65.251L179.489 64.2618L179.514 64.256C179.538 64.2504 179.563 64.2446 179.587 64.2372C179.603 64.2339 179.617 64.2299 179.633 64.2257C179.66 64.2184 179.687 64.2118 179.715 64.2036C179.826 64.1716 179.936 64.1372 180.044 64.0979C180.081 64.0847 180.116 64.0717 180.152 64.0578C180.303 64.0004 180.451 63.9365 180.594 63.8652C180.634 63.8455 180.674 63.825 180.713 63.8037C180.794 63.7611 180.874 63.7168 180.953 63.6693C180.992 63.6464 181.03 63.6225 181.068 63.5988C181.107 63.5742 181.145 63.5497 181.183 63.5235C181.22 63.4988 181.257 63.4734 181.293 63.4472C181.325 63.4259 181.356 63.403 181.386 63.38C181.429 63.3497 181.469 63.3178 181.511 63.285C181.546 63.2579 181.581 63.2292 181.615 63.1997C181.823 63.0268 182.017 62.8384 182.196 62.6351L182.366 62.4778L181.272 64.4077C180.745 64.7896 180.07 65.1632 179.367 65.251Z" fill="#E6E6E6"/>
<path d="M174.031 59.879C174.099 59.4414 174.205 59.0152 174.343 58.6055C175.403 55.4537 178.382 53.1836 181.892 53.1836C184.33 53.1836 186.514 54.28 187.974 56.006L187.976 56.0076C188.057 56.1035 188.136 56.2019 188.212 56.3018L188.214 56.3043C188.582 56.8214 188.798 57.4548 188.798 58.1375C188.798 59.8873 187.38 61.305 185.63 61.305C185.537 61.305 185.445 61.3009 185.355 61.2935C185.188 62.2688 184.337 63.0104 183.314 63.0104C183.106 63.0104 182.905 62.9793 182.716 62.9227C182.372 62.8187 182.002 62.9408 181.764 63.2112C180.954 64.1332 179.764 64.7159 178.439 64.7159C175.994 64.7159 174.011 62.7335 174.011 60.2897C174.011 60.1511 174.018 60.0143 174.031 59.879Z" fill="#E0E0E0"/>
<g opacity="0.6">
<path d="M176.447 63.2699C177.348 62.5864 178.469 62.2095 179.602 62.2095H180.906C181.031 62.2095 181.133 62.3111 181.133 62.4364C181.133 62.5626 181.031 62.6644 180.906 62.6644H179.602C178.568 62.6644 177.545 63.0077 176.733 63.6223L176.52 63.8092C176.476 63.8469 176.423 63.8657 176.37 63.8657C176.307 63.8657 176.244 63.8395 176.198 63.7879C176.116 63.6936 176.125 63.5502 176.22 63.4674L176.447 63.2699Z" fill="#FAFAFA"/>
<path d="M179.217 58.7332C179.152 58.7373 179.109 58.7398 179.091 58.7398C179.085 58.7398 179.081 58.7373 179.075 58.7373L178.514 59.17C178.473 59.202 178.424 59.2175 178.375 59.2175C178.307 59.2175 178.24 59.1864 178.195 59.129C178.119 59.029 178.136 58.8865 178.236 58.8095L178.736 58.4234C178.583 58.2685 178.365 58.0498 178.247 57.9317C178.148 57.8309 178.078 57.7604 178.075 57.7571C177.994 57.6645 178.002 57.5244 178.093 57.4408C178.184 57.358 178.326 57.3622 178.411 57.4514C178.421 57.4613 178.483 57.5236 178.57 57.6105C178.915 57.9571 179.11 58.1538 179.214 58.2784C179.737 58.2439 180.216 58.2382 180.655 58.2538C180.567 57.9825 180.534 57.6957 180.561 57.4096C180.572 57.2851 180.684 57.1917 180.808 57.2048C180.934 57.2163 181.025 57.3269 181.014 57.4523C180.988 57.7326 181.039 58.0235 181.154 58.2817C181.759 58.3308 182.278 58.4259 182.726 58.5529C183.067 58.039 183.287 57.4482 183.361 56.8352C183.376 56.7106 183.489 56.6221 183.613 56.6369C183.738 56.6517 183.827 56.7647 183.813 56.8893C183.735 57.531 183.515 58.1522 183.173 58.7004C183.756 58.92 184.19 59.1995 184.513 59.4978C184.873 58.9938 185.402 58.6185 186.001 58.4513C186.122 58.4169 186.247 58.4882 186.281 58.6095C186.314 58.7299 186.244 58.8553 186.124 58.8889C185.593 59.0373 185.131 59.3806 184.832 59.8395C185.09 60.1633 185.243 60.4902 185.33 60.7705C185.367 60.8902 185.301 61.018 185.18 61.0549C185.158 61.0623 185.135 61.0656 185.113 61.0656C185.016 61.0656 184.926 61.0033 184.896 60.9058C184.192 58.6537 180.689 58.6365 179.217 58.7332Z" fill="#FAFAFA"/>
<path d="M183.313 53.9389C182.769 54.0872 182.465 54.3774 182.408 54.801C182.407 54.8157 182.4 54.828 182.395 54.842C182.57 55.3943 182.589 56.1032 182.443 56.9514L182.433 57.008C182.432 57.0703 182.405 57.1309 182.354 57.1752C182.312 57.2128 182.259 57.2309 182.206 57.2309C182.142 57.2309 182.079 57.2039 182.034 57.1522C181.961 57.0678 181.974 56.9908 181.995 56.8744C182.195 55.7041 182.167 54.252 180.884 53.9798C180.761 53.9536 180.683 53.8331 180.709 53.7111C180.735 53.5873 180.856 53.5094 180.979 53.5349C181.473 53.6398 181.853 53.8881 182.114 54.2634C182.311 53.9028 182.674 53.6422 183.193 53.4996C183.314 53.4677 183.439 53.5382 183.472 53.6594C183.506 53.7807 183.435 53.9061 183.313 53.9389Z" fill="#FAFAFA"/>
<path d="M175.836 60.2839C175.528 59.7471 175.388 59.1127 175.47 58.4916C175.613 57.4172 176.404 56.4772 177.439 56.1534C177.559 56.115 177.686 56.1822 177.724 56.3018C177.762 56.4222 177.694 56.5493 177.575 56.587C176.719 56.855 176.039 57.663 175.921 58.5514C175.803 59.4405 176.249 60.3978 177.005 60.8797C177.112 60.9468 177.143 61.0878 177.076 61.1934C177.032 61.2615 176.959 61.2984 176.883 61.2984C176.842 61.2984 176.799 61.2869 176.761 61.2631C176.505 61.1001 176.281 60.8936 176.092 60.6592C175.584 61.0296 175.38 61.8131 175.667 62.3744C175.724 62.4859 175.68 62.6236 175.569 62.68C175.535 62.6973 175.5 62.7055 175.465 62.7055C175.383 62.7055 175.302 62.6605 175.262 62.5817C174.87 61.8147 175.14 60.7821 175.836 60.2839Z" fill="#FAFAFA"/>
<path d="M186.011 55.9869C185.588 55.6862 185.017 55.596 184.521 55.7542C184.402 55.7927 184.274 55.7263 184.236 55.6067C184.198 55.487 184.264 55.3592 184.384 55.3207C185.012 55.1207 185.737 55.2337 186.275 55.6165C186.735 55.9435 187.052 56.4729 187.141 57.0417C187.456 57.008 187.784 57.0884 188.044 57.2728C188.381 57.512 188.59 57.9177 188.592 58.3316C188.592 58.457 188.49 58.5594 188.365 58.5594C188.24 58.5594 188.137 58.4578 188.137 58.3323C188.136 58.0636 187.999 57.7997 187.781 57.644C187.561 57.4875 187.267 57.4457 187.012 57.5334C186.944 57.5579 186.868 57.5465 186.809 57.5055C186.749 57.4646 186.713 57.3965 186.71 57.3244C186.697 56.7966 186.429 56.2836 186.011 55.9869Z" fill="#FAFAFA"/>
</g>
<path d="M199.56 80.4661C199.56 82.5026 201.824 84.154 204.616 84.154C207.408 84.154 209.671 82.5026 209.671 80.4661C209.671 78.4289 207.408 76.7783 204.616 76.7783C201.824 76.7783 199.56 78.4289 199.56 80.4661Z" fill="#E6E6E6"/>
<circle cx="206.452" cy="80.4657" r="2.66344" fill="#FAFAFA"/>
<path d="M204.616 80.4662C204.616 81.48 205.438 81.0432 206.452 81.0432C207.466 81.0432 208.288 81.48 208.288 80.4662C208.288 79.4516 207.466 79.8884 206.452 79.8884C205.438 79.8884 204.616 79.4516 204.616 80.4662Z" fill="#E6E6E6"/>
<ellipse cx="210.612" cy="281.012" rx="158.896" ry="9.27974" fill="#F5F5F5"/>
<path d="M155.23 259.818L156.437 275.756L163.62 275.386L163.879 258.884L155.23 259.818Z" fill="#CE7A63"/>
<path d="M163.89 274.397L156.485 274.619C156.206 274.627 155.97 274.828 155.917 275.103L154.759 281.166C154.653 281.703 155.002 282.225 155.539 282.332C155.608 282.346 155.678 282.352 155.749 282.351C158.415 282.224 160.785 282.007 164.108 281.912C168.029 281.796 167.048 282.294 171.66 282.222C174.439 282.175 174.853 279.003 173.671 278.883C168.26 278.365 167.651 276.755 165.514 274.887C165.051 274.531 164.472 274.356 163.89 274.397Z" fill="#263238"/>
<path d="M125.461 259.28L124.095 274.382L131.266 274.964L134.154 259.475L125.461 259.28Z" fill="#CE7A63"/>
<path d="M131.092 274.044L123.689 273.794C123.41 273.784 123.161 273.97 123.091 274.24L121.549 280.218C121.409 280.747 121.724 281.29 122.253 281.43C122.321 281.448 122.391 281.459 122.461 281.462C125.131 281.506 127.51 281.44 130.832 281.557C134.753 281.69 133.742 282.126 138.35 282.347C141.126 282.478 141.74 279.337 140.569 279.142C135.202 278.282 134.697 276.635 132.682 274.636C132.242 274.25 131.677 274.04 131.092 274.044Z" fill="#263238"/>
<path d="M154.15 266.463C153.68 261.779 152.597 248.875 152.082 235.478C151.604 223.055 150.925 210.209 152.221 203.1C152.546 201.317 152.465 199.49 152.066 197.722C150.316 189.991 145.922 169.556 145.644 158.125L145.384 145.41L166.91 144.957C166.91 144.957 167.921 190.752 167.777 201.19C167.536 218.837 164.976 266.293 164.976 266.293L154.15 266.463Z" fill="#263238"/>
<path opacity="0.2" d="M148.693 160.2L151.005 154.528L153.858 158.43C153.858 158.43 152.961 181.582 151.79 196.495C150.635 191.321 148.703 182.238 147.309 173.464L148.693 160.2Z" fill="black"/>
<path d="M123.581 265.321C123.86 260.021 125.141 244.985 126.719 230.328C127.834 219.971 128.802 209.805 131.321 203.396C131.82 202.126 132.031 200.769 132.011 199.405C131.948 195.223 131.825 185.859 131.789 174.833C131.761 166.555 129.711 153.004 131.485 144.34L155.559 146.003C155.559 146.003 149.38 191.389 147.611 202.68C144.991 219.408 134.215 266.964 134.215 266.964L123.581 265.321Z" fill="#263238"/>
<path d="M187.037 117.047L192.349 110.943C192.706 110.534 192.884 109.999 192.847 109.458L192.7 107.339C192.644 106.532 193.069 105.768 193.783 105.389L195.328 104.57C195.549 104.452 195.749 104.295 195.913 104.105L197.27 102.547C197.938 101.778 199.07 101.618 199.926 102.171L200.759 102.711C201.162 102.972 201.461 103.366 201.603 103.825L202.682 107.321C202.927 108.113 202.669 108.973 202.032 109.502L198.675 112.279L196.745 113.741C196.584 113.864 196.441 114.01 196.322 114.175L190.881 121.709L187.037 117.047Z" fill="#CE7A63"/>
<path d="M158.327 92.6255C158.327 92.6255 166.256 92.7909 172.499 105.383C178.741 117.975 182.38 118.426 184.146 117.248C185.171 116.564 186.605 115.378 187.629 114.502C188.343 113.892 193.61 120.156 193.147 120.827C191.33 123.459 186.437 129.513 180.517 128.354C172.491 126.783 165.953 115.987 165.315 112.572C164.677 109.158 158.327 92.6255 158.327 92.6255Z" fill="#407BFF"/>
<path opacity="0.8" d="M158.327 92.6255C158.327 92.6255 166.256 92.7909 172.499 105.383C178.741 117.975 182.38 118.426 184.146 117.248C185.171 116.564 186.605 115.378 187.629 114.502C188.343 113.892 193.61 120.156 193.147 120.827C191.33 123.459 186.437 129.513 180.517 128.354C172.491 126.783 165.953 115.987 165.315 112.572C164.677 109.158 158.327 92.6255 158.327 92.6255Z" fill="white"/>
<path opacity="0.1" d="M171.067 122.227C167.838 118.626 165.669 114.466 165.315 112.573C165.086 111.349 164.123 108.439 162.982 105.211L164.745 98.5703C164.745 98.5703 170.113 106.802 171.067 122.227Z" fill="black"/>
<path d="M131.784 95.9976C131.784 95.9976 136.862 92.7449 137.427 92.604V96.8311H157.736V92.7253C158.011 92.7663 158.282 92.8039 158.563 92.8473L161.1 94.7339C161.1 94.7339 166.481 106.44 167.777 135.51V148.169L131.926 147.636L131.784 95.9976Z" fill="#407BFF"/>
<path d="M143.144 90.5274C144.351 86.7929 144.097 81.4341 143.692 78.0806L151.789 86.0841C151.312 87.5345 151.052 89.0949 151.276 90.5348C151.389 91.2543 151.957 91.8173 152.68 91.9001L156.017 92.282L156.53 95.6446L155.49 97.9531L151.277 98.3752L145.377 97.2705L137.691 92.8245C137.691 92.8245 139.002 92.3402 141.056 92.1936C141.822 92.1386 142.907 91.2584 143.144 90.5274Z" fill="#CE7A63"/>
<path opacity="0.2" d="M146.986 81.9626L151.651 86.5331C151.402 87.3854 151.238 88.2656 151.205 89.1309C149.304 88.695 146.971 86.9027 146.373 84.7482C145.979 83.4206 146.479 82.0773 146.986 81.9626Z" fill="black"/>
<path d="M142.47 72.0227C142.817 78.1748 142.716 81.7897 145.809 84.9531C150.455 89.7219 158.061 86.9191 159.545 80.8054C160.89 75.259 160.082 66.1581 154.075 63.6891C149.796 61.905 144.881 63.9267 143.097 68.2054C142.594 69.4117 142.379 70.7188 142.47 72.0227Z" fill="#CE7A63"/>
<path d="M149.954 71.0134C149.907 70.9976 149.862 70.9732 149.824 70.9396C149.736 70.8052 149.766 70.6257 149.893 70.5281C150.652 69.9643 151.635 69.7979 152.538 70.0816C152.69 70.1405 152.765 70.311 152.706 70.4635C152.647 70.6159 152.477 70.6913 152.325 70.6322C151.608 70.4151 150.831 70.5552 150.236 71.0084C150.15 71.0585 150.043 71.0601 149.954 71.0134Z" fill="#263238"/>
<path d="M160.337 71.0362C160.244 71.073 160.138 71.0599 160.059 70.9993C159.465 70.5518 158.696 70.4117 157.984 70.6232C157.833 70.6821 157.662 70.6076 157.603 70.4568C157.545 70.306 157.619 70.1355 157.77 70.0765C158.673 69.7864 159.662 69.9511 160.422 70.5199C160.552 70.6093 160.584 70.787 160.494 70.9164L160.49 70.9238C160.454 70.978 160.399 71.0174 160.337 71.0362Z" fill="#263238"/>
<path d="M142.556 74.7197C143.458 73.8174 144.657 73.3216 145.931 73.3216H148.763C148.865 71.7325 150.177 70.468 151.792 70.468C153.358 70.468 154.636 71.6597 154.806 73.1815C155.02 73.0954 155.262 73.0954 155.476 73.1815C155.645 71.6597 156.924 70.468 158.49 70.468C160.171 70.468 161.538 71.8358 161.538 73.5167C161.538 75.1975 160.171 76.5645 158.49 76.5645C156.846 76.5645 155.511 75.2541 155.453 73.6241C155.269 73.4773 155.013 73.4766 154.829 73.6241C154.771 75.2541 153.436 76.5645 151.792 76.5645C150.177 76.5645 148.865 75.2999 148.763 73.7117H145.931C144.76 73.7117 143.661 74.1673 142.832 74.9951L141.919 75.9089L141.643 75.6327L142.556 74.7197ZM158.49 76.1744C159.956 76.1744 161.148 74.982 161.148 73.5167C161.148 72.0505 159.956 70.8581 158.49 70.8581C157.024 70.8581 155.832 72.0505 155.832 73.5167C155.832 74.982 157.024 76.1744 158.49 76.1744ZM151.792 76.1744C153.257 76.1744 154.449 74.982 154.449 73.5167C154.449 72.0505 153.257 70.8581 151.792 70.8581C150.326 70.8581 149.133 72.0505 149.133 73.5167C149.133 74.982 150.326 76.1744 151.792 76.1744Z" fill="#407BFF"/>
<path opacity="0.6" d="M142.556 74.7197C143.458 73.8174 144.657 73.3216 145.931 73.3216H148.763C148.865 71.7325 150.177 70.468 151.792 70.468C153.358 70.468 154.636 71.6597 154.806 73.1815C155.02 73.0954 155.262 73.0954 155.476 73.1815C155.645 71.6597 156.924 70.468 158.49 70.468C160.171 70.468 161.538 71.8358 161.538 73.5167C161.538 75.1975 160.171 76.5645 158.49 76.5645C156.846 76.5645 155.511 75.2541 155.453 73.6241C155.269 73.4773 155.013 73.4766 154.829 73.6241C154.771 75.2541 153.436 76.5645 151.792 76.5645C150.177 76.5645 148.865 75.2999 148.763 73.7117H145.931C144.76 73.7117 143.661 74.1673 142.832 74.9951L141.919 75.9089L141.643 75.6327L142.556 74.7197ZM158.49 76.1744C159.956 76.1744 161.148 74.982 161.148 73.5167C161.148 72.0505 159.956 70.8581 158.49 70.8581C157.024 70.8581 155.832 72.0505 155.832 73.5167C155.832 74.982 157.024 76.1744 158.49 76.1744ZM151.792 76.1744C153.257 76.1744 154.449 74.982 154.449 73.5167C154.449 72.0505 153.257 70.8581 151.792 70.8581C150.326 70.8581 149.133 72.0505 149.133 73.5167C149.133 74.982 150.326 76.1744 151.792 76.1744Z" fill="white"/>
<path d="M155.356 73.8455C155.948 75.3763 156.749 76.8178 157.736 78.1299C156.825 78.9511 155.338 78.5732 155.338 78.5732L155.356 73.8455Z" fill="#BA4D3C"/>
<path d="M155.637 92.0674C155.637 92.0674 157.243 95.9042 153.074 96.3919C148.906 96.8795 140.419 92.0674 140.419 92.0674L138.616 92.4836C138.616 92.4836 138.663 99.4159 147.898 102.083C147.898 102.083 150.564 98.6357 153.231 98.571C155.897 98.5054 159.409 101.367 159.409 101.367C159.409 101.367 161.113 96.8271 156.619 92.1386L155.637 92.0674Z" fill="#407BFF"/>
<g opacity="0.3">
<path d="M155.637 92.0674C155.637 92.0674 157.243 95.9042 153.074 96.3919C148.906 96.8795 140.419 92.0674 140.419 92.0674L138.616 92.4836C138.616 92.4836 138.663 99.4159 147.898 102.083C147.898 102.083 150.564 98.6357 153.231 98.571C155.897 98.5054 159.409 101.367 159.409 101.367C159.409 101.367 161.113 96.8271 156.619 92.1386L155.637 92.0674Z" fill="white"/>
</g>
<path d="M155.637 92.0674C155.637 92.0674 161.49 94.5383 163.637 110.342C165.783 126.145 166.563 155.8 165.978 169.653C165.393 183.505 164.612 192.48 168.904 191.895C168.904 191.895 169.294 169.653 168.904 144.875C168.514 120.097 171.051 92.5221 155.637 92.0674Z" fill="#407BFF"/>
<path opacity="0.8" d="M155.637 92.0674C155.637 92.0674 161.49 94.5383 163.637 110.342C165.783 126.145 166.563 155.8 165.978 169.653C165.393 183.505 164.612 192.48 168.904 191.895C168.904 191.895 169.294 169.653 168.904 144.875C168.514 120.097 171.051 92.5221 155.637 92.0674Z" fill="white"/>
<path d="M138.945 92.0674C138.945 92.0674 145.969 95.969 146.749 120.682C147.53 145.395 147.27 192.22 138.945 193C130.62 193.78 121.517 189.098 121.517 189.098C121.517 189.098 122.108 180.135 123.662 168.78C124.959 159.297 127.163 148.146 128.019 139.152C129.009 128.754 123.337 100.131 126.978 97.2705C130.62 94.4088 138.945 92.0674 138.945 92.0674Z" fill="#407BFF"/>
<path opacity="0.8" d="M138.945 92.0674C138.945 92.0674 145.969 95.969 146.749 120.682C147.53 145.395 147.27 192.22 138.945 193C130.62 193.78 121.517 189.098 121.517 189.098C121.517 189.098 122.108 180.135 123.662 168.78C124.959 159.297 127.163 148.146 128.019 139.152C129.009 128.754 123.337 100.131 126.978 97.2705C130.62 94.4088 138.945 92.0674 138.945 92.0674Z" fill="white"/>
<path opacity="0.1" d="M126.042 110.028L130.015 102.083L132.356 99.3809L135.287 102.083C135.287 102.083 132.676 117.561 127.752 128.5C127.274 122.583 126.473 115.79 126.042 110.028Z" fill="black"/>
<path d="M154.121 81.6979C154.369 81.7381 154.618 81.7562 154.869 81.7528C154.949 81.7562 155.018 81.6938 155.021 81.6128V81.6078C155.015 81.5251 154.947 81.4612 154.864 81.462C153.586 81.4865 152.372 80.903 151.591 79.8893C151.546 79.8205 151.454 79.8017 151.385 79.8459C151.316 79.891 151.297 79.9836 151.341 80.0524C152.008 80.9539 153.011 81.5472 154.121 81.6979Z" fill="#263238"/>
<path d="M131.846 130.041L140.124 131.906L143.788 129.727C144.208 129.478 144.7 129.38 145.183 129.451L148.162 129.887C148.825 129.983 149.405 130.388 149.723 130.977L150.384 132.197C150.609 132.613 150.69 133.093 150.612 133.559L150.379 134.958C150.239 135.794 149.616 136.468 148.792 136.672L143.758 137.918C143.364 138.016 142.95 137.998 142.565 137.868L139.074 136.686L129.049 135.52L131.846 130.041Z" fill="#CE7A63"/>
<path d="M129.681 136.859C127.055 136.584 122.112 135.574 118.55 131.889C113.479 126.643 120.518 106.638 123.272 101.637C126.352 96.0411 131.121 95.2323 131.121 95.2323C137.261 93.1269 136.387 98.8389 134.638 105.834C132.89 112.828 126.244 122.971 126.07 124.895C125.957 126.129 129.741 127.58 132.465 128.46C133.718 128.866 130.665 136.962 129.681 136.859Z" fill="#407BFF"/>
<path opacity="0.8" d="M129.681 136.859C127.055 136.584 122.112 135.574 118.55 131.889C113.479 126.643 120.518 106.638 123.272 101.637C126.352 96.0411 131.121 95.2323 131.121 95.2323C137.261 93.1269 136.387 98.8389 134.638 105.834C132.89 112.828 126.244 122.971 126.07 124.895C125.957 126.129 129.741 127.58 132.465 128.46C133.718 128.866 130.665 136.962 129.681 136.859Z" fill="white"/>
<path d="M141.9 160.453L128.171 158.43C128.171 158.43 125.302 161.963 129.906 162.476C136.587 163.222 140.96 164.06 141.9 160.453Z" fill="#407BFF"/>
<path opacity="0.6" d="M141.9 160.453L128.171 158.43C128.171 158.43 125.302 161.963 129.906 162.476C136.587 163.222 140.96 164.06 141.9 160.453Z" fill="white"/>
<path d="M167.777 160.201H169.432L170.624 163.777C170.624 163.777 167.858 165.512 167.777 160.201Z" fill="#407BFF"/>
<path opacity="0.6" d="M167.777 160.201H169.432L170.624 163.777C170.624 163.777 167.858 165.512 167.777 160.201Z" fill="white"/>
<rect x="197.249" y="105.168" width="1.28979" height="3.97428" transform="rotate(-152.794 197.249 105.168)" fill="#263238"/>
<rect opacity="0.3" x="197.249" y="105.168" width="1.28979" height="3.97428" transform="rotate(-152.794 197.249 105.168)" fill="white"/>
<path d="M199.673 102.063C199.529 102.344 199.183 102.455 198.901 102.311L197.584 101.633C197.302 101.489 197.191 101.143 197.336 100.861L197.431 100.676C197.576 100.394 197.921 100.283 198.203 100.428L199.521 101.105C199.802 101.25 199.913 101.596 199.769 101.878L199.673 102.063Z" fill="#263238"/>
<path opacity="0.5" d="M199.673 102.063C199.529 102.344 199.183 102.455 198.901 102.311L197.584 101.633C197.302 101.489 197.191 101.143 197.336 100.861L197.431 100.676C197.576 100.394 197.921 100.283 198.203 100.428L199.521 101.105C199.802 101.25 199.913 101.596 199.769 101.878L199.673 102.063Z" fill="white"/>
<path d="M194.152 102.797L199.314 105.45C200.088 105.848 200.393 106.799 199.995 107.572L198.823 109.852L198.107 109.484C199.026 107.695 198.564 106.79 197.502 106.064C195.706 109.681 189.996 121.118 188.348 123.835C187.894 124.584 186.779 125.946 186.325 126.695C185.706 127.715 184.142 130.94 184.142 130.94C183.965 131.285 183.542 131.421 183.196 131.243C182.851 131.066 182.715 130.642 182.892 130.297C182.892 130.297 184.605 127.149 185.074 126.052C185.418 125.247 185.877 123.547 186.221 122.742C187.475 119.812 193.485 108.456 195.362 104.924C195.24 104.863 195.116 104.802 194.993 104.738L193.538 103.991C193.313 103.874 193.224 103.598 193.34 103.373L193.534 102.995C193.65 102.77 193.927 102.681 194.152 102.797Z" fill="#263238"/>
<path opacity="0.7" d="M194.152 102.797L199.314 105.45C200.088 105.848 200.393 106.799 199.995 107.572L198.823 109.852L198.107 109.484C199.026 107.695 198.564 106.79 197.502 106.064C195.706 109.681 189.996 121.118 188.348 123.835C187.894 124.584 186.779 125.946 186.325 126.695C185.706 127.715 184.142 130.94 184.142 130.94C183.965 131.285 183.542 131.421 183.196 131.243C182.851 131.066 182.715 130.642 182.892 130.297C182.892 130.297 184.605 127.149 185.074 126.052C185.418 125.247 185.877 123.547 186.221 122.742C187.475 119.812 193.485 108.456 195.362 104.924C195.24 104.863 195.116 104.802 194.993 104.738L193.538 103.991C193.313 103.874 193.224 103.598 193.34 103.373L193.534 102.995C193.65 102.77 193.927 102.681 194.152 102.797Z" fill="white"/>
<path d="M194.682 106.205C194.944 105.712 195.174 105.277 195.362 104.924C195.24 104.863 195.117 104.802 194.993 104.738L193.538 103.991C193.313 103.874 193.224 103.598 193.34 103.373L193.534 102.995C193.65 102.77 193.927 102.681 194.152 102.797L196.538 104.024L195.263 106.503L194.682 106.205Z" fill="#407BFF"/>
<path d="M198.111 100.381L199.612 101.152C199.844 101.271 199.935 101.555 199.816 101.785L199.638 102.131L197.301 100.929L197.478 100.584C197.597 100.353 197.88 100.263 198.111 100.381Z" fill="#407BFF"/>
<path d="M144.974 128.609L153.35 130.395L155.331 132.57L155.216 133.105L146.84 131.319L144.859 129.145L144.974 128.609Z" fill="#407BFF"/>
<path opacity="0.3" d="M146.954 130.783L155.331 132.569L153.35 130.395L144.973 128.609L146.954 130.783Z" fill="white"/>
<path d="M149.461 129.824C149.909 129.876 151.059 130.096 151.141 130.475C151.222 130.854 150.328 130.773 150.152 131.044C149.976 131.314 147.747 129.625 149.461 129.824Z" fill="#407BFF"/>
<path opacity="0.3" d="M149.461 129.824C149.909 129.876 151.059 130.096 151.141 130.475C151.222 130.854 150.328 130.773 150.152 131.044C149.976 131.314 147.747 129.625 149.461 129.824Z" fill="black"/>
<path d="M144.141 77.003C144.141 77.003 146.979 74.233 145.875 69.9355L148.404 66.0821C148.404 66.0821 157.112 69.9838 153.264 66.0821C153.264 66.0821 160.631 69.4454 157.736 66.75C157.736 66.75 170.443 68.3218 159.387 64.1308C159.387 64.1308 168.572 61.746 156.537 61.9632C156.537 61.9632 163.263 57.0494 152.727 60.3013C152.727 60.3013 155.984 55.2586 149.773 59.1891C149.773 59.1891 149.839 55.0014 146.232 59.771C146.232 59.771 143.526 55.2825 141.72 62.836C141.72 62.836 134.894 64.475 138.616 66.2263C138.616 66.2263 132.641 69.9355 136.842 70.2272C136.842 70.2272 133.008 75.2885 137.127 73.5954C137.127 73.5954 134.757 79.3058 137.999 76.5645C137.999 76.5645 142.828 85.0416 144.01 84.6508C145.191 84.2606 144.141 77.003 144.141 77.003Z" fill="#263238"/>
<path d="M139.443 77.7459C140.266 79.0556 141.572 79.9882 143.078 80.3422C145.084 80.784 145.979 78.9728 145.331 77.1362C144.752 75.4899 143.007 73.2657 141.041 73.6361C139.076 74.0065 138.451 76.1184 139.443 77.7459Z" fill="#CE7A63"/>
<path d="M157.736 74.7309C157.736 75.2274 157.997 75.6356 158.326 75.6347C158.655 75.6339 158.918 75.2315 158.918 74.7358C158.918 74.2391 158.659 73.8236 158.33 73.8245C158.001 73.8253 157.737 74.2276 157.736 74.7309Z" fill="#263238"/>
<path d="M158.197 73.8328L159.931 73.7288C159.931 73.7288 158.822 74.8302 158.197 73.8328Z" fill="#263238"/>
<path d="M152.082 74.7065C152.081 75.2097 152.342 75.6179 152.67 75.6169C152.999 75.6162 153.263 75.2146 153.264 74.7106C153.265 74.2073 153.003 73.8059 152.674 73.8066C152.346 73.8075 152.082 74.2099 152.082 74.7065Z" fill="#263238"/>
<path d="M152.597 73.8328L154.331 73.7288C154.331 73.7288 153.221 74.8302 152.597 73.8328Z" fill="#263238"/>
<path d="M141.72 80.209C141.72 80.7081 142.124 81.1122 142.623 81.1122C143.122 81.1122 143.526 80.7081 143.526 80.209C143.526 79.71 143.122 79.3059 142.623 79.3059C142.124 79.3059 141.72 79.71 141.72 80.209Z" fill="#407BFF"/>
<path d="M67.1128 282.428H69.4041L72.3545 184.085H69.3255L67.1128 282.428Z" fill="#263238"/>
<path opacity="0.6" d="M67.1128 282.428H69.4041L72.3545 184.085H69.3255L67.1128 282.428Z" fill="white"/>
<path d="M104.07 184.085V282.428H101.644L98.7907 188.579H69.5203L67.3805 282.428H64.9788V184.085H104.07Z" fill="#263238"/>
<path opacity="0.4" d="M104.07 184.085V282.428H101.644L98.7907 188.579H69.5203L67.3805 282.428H64.9788V184.085H104.07Z" fill="white"/>
<path d="M104.07 282.428H106.361L107.099 184.085H104.07V282.428Z" fill="#263238"/>
<path opacity="0.6" d="M104.07 282.428H106.361L107.099 184.085H104.07V282.428Z" fill="white"/>
<path d="M213.643 282.428H215.934L218.884 184.085H215.855L213.643 282.428Z" fill="#263238"/>
<path opacity="0.6" d="M213.643 282.428H215.934L218.884 184.085H215.855L213.643 282.428Z" fill="white"/>
<path d="M250.6 184.085V282.428H248.174L245.321 188.579H216.05L213.91 282.428H211.509V184.085H250.6Z" fill="#263238"/>
<path opacity="0.4" d="M250.6 184.085V282.428H248.174L245.321 188.579H216.05L213.91 282.428H211.509V184.085H250.6Z" fill="white"/>
<path d="M250.6 282.428H252.891L253.629 184.085H250.6V282.428Z" fill="#263238"/>
<path opacity="0.6" d="M250.6 282.428H252.891L253.629 184.085H250.6V282.428Z" fill="white"/>
<rect x="105.96" y="178.431" width="151.679" height="5.6546" fill="#407BFF"/>
<rect opacity="0.5" x="105.96" y="178.431" width="151.679" height="5.6546" fill="white"/>
<rect x="60.9685" y="178.431" width="48.5137" height="5.6546" fill="#407BFF"/>
<rect opacity="0.7" x="60.9685" y="178.431" width="48.5137" height="5.6546" fill="white"/>
<path d="M113.748 146.875H116.391C117.189 146.875 117.835 147.52 117.835 148.318V148.34C117.835 148.896 117.517 149.373 117.056 149.614V172.889C117.056 173.806 116.313 174.548 115.396 174.548H114.743C113.827 174.548 113.084 173.806 113.084 172.889V149.614C112.622 149.373 112.304 148.896 112.304 148.34V148.318C112.304 147.52 112.951 146.875 113.748 146.875Z" fill="#407BFF"/>
<path opacity="0.6" d="M113.748 146.875H116.391C117.189 146.875 117.835 147.52 117.835 148.318V148.34C117.835 148.896 117.517 149.373 117.056 149.614V172.889C117.056 173.806 116.313 174.548 115.396 174.548H114.743C113.827 174.548 113.084 173.806 113.084 172.889V149.614C112.622 149.373 112.304 148.896 112.304 148.34V148.318C112.304 147.52 112.951 146.875 113.748 146.875Z" fill="white"/>
<path d="M117.282 147.189C117.015 147.403 116.131 147.561 115.069 147.561C114.009 147.561 113.124 147.403 112.857 147.189C113.103 146.995 113.409 146.875 113.748 146.875H116.391C116.729 146.875 117.036 146.995 117.282 147.189Z" fill="#407BFF"/>
<path d="M115.07 165.81C115.754 165.81 116.305 165.633 116.318 165.416V172.889C116.318 173.397 115.905 173.81 115.396 173.81H114.743C114.235 173.81 113.821 173.397 113.821 172.889V165.416C113.834 165.633 114.386 165.81 115.07 165.81Z" fill="#407BFF"/>
<path d="M113.816 165.408C113.816 165.63 114.378 165.809 115.07 165.809C115.762 165.809 116.323 165.63 116.323 165.408C116.323 165.187 115.762 165.007 115.07 165.007C114.378 165.007 113.816 165.187 113.816 165.408Z" fill="#407BFF"/>
<path opacity="0.3" d="M113.816 165.408C113.816 165.63 114.378 165.809 115.07 165.809C115.762 165.809 116.323 165.63 116.323 165.408C116.323 165.187 115.762 165.007 115.07 165.007C114.378 165.007 113.816 165.187 113.816 165.408Z" fill="black"/>
<g opacity="0.8">
<path d="M116.336 149.783V172.889C116.336 173.363 115.599 173.364 115.599 172.889V149.783C115.599 149.308 116.336 149.308 116.336 149.783Z" fill="white"/>
</g>
<path d="M103.535 146.875H106.179C106.976 146.875 107.622 147.52 107.622 148.318V148.34C107.622 148.896 107.304 149.373 106.843 149.614V172.889C106.843 173.806 106.1 174.548 105.184 174.548H104.53C103.614 174.548 102.871 173.806 102.871 172.889V149.614C102.41 149.373 102.092 148.896 102.092 148.34V148.318C102.092 147.52 102.738 146.875 103.535 146.875Z" fill="#407BFF"/>
<path opacity="0.6" d="M103.535 146.875H106.179C106.976 146.875 107.622 147.52 107.622 148.318V148.34C107.622 148.896 107.304 149.373 106.843 149.614V172.889C106.843 173.806 106.1 174.548 105.184 174.548H104.53C103.614 174.548 102.871 173.806 102.871 172.889V149.614C102.41 149.373 102.092 148.896 102.092 148.34V148.318C102.092 147.52 102.738 146.875 103.535 146.875Z" fill="white"/>
<path d="M107.069 147.189C106.803 147.403 105.919 147.561 104.857 147.561C103.796 147.561 102.912 147.403 102.645 147.189C102.891 146.995 103.198 146.875 103.535 146.875H106.179C106.517 146.875 106.823 146.995 107.069 147.189Z" fill="#407BFF"/>
<path d="M104.857 160.542C105.541 160.542 106.092 160.367 106.106 160.149V172.889C106.106 173.396 105.692 173.81 105.184 173.81H104.53C104.022 173.81 103.609 173.396 103.609 172.889V160.149C103.622 160.367 104.174 160.542 104.857 160.542Z" fill="#407BFF"/>
<path d="M103.604 160.142C103.604 160.364 104.166 160.542 104.857 160.542C105.55 160.542 106.11 160.364 106.11 160.142C106.11 159.92 105.55 159.741 104.857 159.741C104.166 159.741 103.604 159.92 103.604 160.142Z" fill="#407BFF"/>
<path opacity="0.3" d="M103.604 160.142C103.604 160.364 104.166 160.542 104.857 160.542C105.55 160.542 106.11 160.364 106.11 160.142C106.11 159.92 105.55 159.741 104.857 159.741C104.166 159.741 103.604 159.92 103.604 160.142Z" fill="black"/>
<g opacity="0.8">
<path d="M106.123 149.783V172.889C106.123 173.363 105.386 173.364 105.386 172.889V149.783C105.386 149.308 106.123 149.308 106.123 149.783Z" fill="white"/>
</g>
<path d="M93.3234 146.875H95.9662C96.7637 146.875 97.4103 147.52 97.4103 148.318V148.34C97.4103 148.896 97.0921 149.373 96.6311 149.614V172.889C96.6311 173.806 95.8884 174.548 94.9715 174.548H94.3183C93.4022 174.548 92.6588 173.806 92.6588 172.889V149.614C92.1974 149.373 91.8795 148.896 91.8795 148.34V148.318C91.8795 147.52 92.526 146.875 93.3234 146.875Z" fill="#407BFF"/>
<path opacity="0.6" d="M93.3234 146.875H95.9662C96.7637 146.875 97.4103 147.52 97.4103 148.318V148.34C97.4103 148.896 97.0921 149.373 96.6311 149.614V172.889C96.6311 173.806 95.8884 174.548 94.9715 174.548H94.3183C93.4022 174.548 92.6588 173.806 92.6588 172.889V149.614C92.1974 149.373 91.8795 148.896 91.8795 148.34V148.318C91.8795 147.52 92.526 146.875 93.3234 146.875Z" fill="white"/>
<path d="M96.8571 147.189C96.5908 147.403 95.7065 147.561 94.6445 147.561C93.584 147.561 92.6989 147.403 92.4326 147.189C92.6786 146.995 92.9848 146.875 93.3233 146.875H95.9663C96.3048 146.875 96.6112 146.995 96.8571 147.189Z" fill="#407BFF"/>
<path d="M94.6453 156.025C95.3287 156.025 95.8802 155.85 95.8934 155.632V172.889C95.8934 173.397 95.4803 173.81 94.9714 173.81H94.3182C93.8102 173.81 93.3963 173.397 93.3963 172.889V155.632C93.4094 155.85 93.9608 156.025 94.6453 156.025Z" fill="#407BFF"/>
<path d="M93.3914 155.625C93.3914 155.846 93.9527 156.025 94.6451 156.025C95.3369 156.025 95.8983 155.846 95.8983 155.625C95.8983 155.403 95.3369 155.224 94.6451 155.224C93.9527 155.224 93.3914 155.403 93.3914 155.625Z" fill="#407BFF"/>
<path opacity="0.3" d="M93.3914 155.625C93.3914 155.846 93.9527 156.025 94.6451 156.025C95.3369 156.025 95.8983 155.846 95.8983 155.625C95.8983 155.403 95.3369 155.224 94.6451 155.224C93.9527 155.224 93.3914 155.403 93.3914 155.625Z" fill="black"/>
<g opacity="0.8">
<path d="M95.9113 149.783V172.889C95.9113 173.363 95.1739 173.364 95.1739 172.889V149.783C95.1739 149.308 95.9113 149.308 95.9113 149.783Z" fill="white"/>
</g>
<path d="M83.1105 146.875H85.7543C86.5516 146.875 87.1975 147.52 87.1975 148.318V148.34C87.1975 148.896 86.8795 149.373 86.4179 149.614V172.889C86.4179 173.806 85.6755 174.548 84.7593 174.548H84.1053C83.1891 174.548 82.4467 173.806 82.4467 172.889V149.614C81.9851 149.373 81.6674 148.896 81.6674 148.34V148.318C81.6674 147.52 82.3131 146.875 83.1105 146.875Z" fill="#407BFF"/>
<path opacity="0.6" d="M83.1105 146.875H85.7543C86.5516 146.875 87.1975 147.52 87.1975 148.318V148.34C87.1975 148.896 86.8795 149.373 86.4179 149.614V172.889C86.4179 173.806 85.6755 174.548 84.7593 174.548H84.1053C83.1891 174.548 82.4467 173.806 82.4467 172.889V149.614C81.9851 149.373 81.6674 148.896 81.6674 148.34V148.318C81.6674 147.52 82.3131 146.875 83.1105 146.875Z" fill="white"/>
<path d="M86.6443 147.189C86.3778 147.403 85.4935 147.561 84.4323 147.561C83.3711 147.561 82.4868 147.403 82.2204 147.189C82.4663 146.995 82.7729 146.875 83.1104 146.875H85.7542C86.0918 146.875 86.3984 146.995 86.6443 147.189Z" fill="#407BFF"/>
<path d="M84.4323 160.542C85.1166 160.542 85.6676 160.367 85.6814 160.149V172.889C85.6814 173.396 85.2674 173.81 84.7593 173.81H84.1053C83.5973 173.81 83.1844 173.396 83.1844 172.889V160.149C83.1974 160.367 83.7489 160.542 84.4323 160.542Z" fill="#407BFF"/>
<path d="M83.1794 160.142C83.1794 160.364 83.7407 160.542 84.4325 160.542C85.1249 160.542 85.6854 160.364 85.6854 160.142C85.6854 159.92 85.1249 159.741 84.4325 159.741C83.7407 159.741 83.1794 159.92 83.1794 160.142Z" fill="#407BFF"/>
<path opacity="0.3" d="M83.1794 160.142C83.1794 160.364 83.7407 160.542 84.4325 160.542C85.1249 160.542 85.6854 160.364 85.6854 160.142C85.6854 159.92 85.1249 159.741 84.4325 159.741C83.7407 159.741 83.1794 159.92 83.1794 160.142Z" fill="black"/>
<g opacity="0.8">
<path d="M85.6985 149.783V172.889C85.6985 173.363 84.9608 173.364 84.9608 172.889V149.783C84.9608 149.308 85.6985 149.308 85.6985 149.783Z" fill="white"/>
</g>
<path d="M76.534 153.081C76.0839 153.081 75.7191 152.716 75.7191 152.266V151.474C75.7191 151.024 76.0839 150.66 76.534 150.66H122.459C122.909 150.66 123.274 151.024 123.274 151.474V152.266C123.274 152.716 122.909 153.081 122.459 153.081H121.165V176.002H122.459C122.909 176.002 123.274 176.367 123.274 176.817V177.609C123.274 178.059 122.909 178.424 122.459 178.424H76.534C76.0839 178.424 75.7191 178.059 75.7191 177.609V176.817C75.7191 176.367 76.0839 176.002 76.534 176.002H77.8271V153.081H76.534ZM79.912 176.002H119.081V153.081H79.912V176.002Z" fill="#263238"/>
<path opacity="0.5" d="M76.534 153.081C76.0839 153.081 75.7191 152.716 75.7191 152.266V151.474C75.7191 151.024 76.0839 150.66 76.534 150.66H122.459C122.909 150.66 123.274 151.024 123.274 151.474V152.266C123.274 152.716 122.909 153.081 122.459 153.081H121.165V176.002H122.459C122.909 176.002 123.274 176.367 123.274 176.817V177.609C123.274 178.059 122.909 178.424 122.459 178.424H76.534C76.0839 178.424 75.7191 178.059 75.7191 177.609V176.817C75.7191 176.367 76.0839 176.002 76.534 176.002H77.8271V153.081H76.534ZM79.912 176.002H119.081V153.081H79.912V176.002Z" fill="white"/>
<path d="M192.371 171.18C192.371 169.669 193.595 168.445 195.106 168.445H197.823C199.334 168.445 200.559 169.669 200.559 171.18V175.719H192.371V171.18Z" fill="#263238"/>
<path opacity="0.3" d="M192.371 171.18C192.371 169.669 193.595 168.445 195.106 168.445H197.823C199.334 168.445 200.559 169.669 200.559 171.18V175.719H192.371V171.18Z" fill="white"/>
<path d="M205.392 139.515C205.858 138.593 206.983 138.224 207.904 138.69L208.563 139.023C209.485 139.489 209.854 140.614 209.388 141.535L202.925 154.322L198.928 152.302L205.392 139.515Z" fill="#263238"/>
<path opacity="0.3" d="M205.392 139.515C205.858 138.593 206.983 138.224 207.904 138.69L208.563 139.023C209.485 139.489 209.854 140.614 209.388 141.535L202.925 154.322L198.928 152.302L205.392 139.515Z" fill="white"/>
<rect x="202.018" y="137.571" width="4.16152" height="40.5427" fill="#407BFF"/>
<rect x="190.844" y="137.571" width="4.16152" height="4.57324" fill="#407BFF"/>
<rect opacity="0.2" x="202.018" y="137.571" width="4.16152" height="40.5427" fill="black"/>
<rect opacity="0.2" x="190.844" y="137.571" width="4.16152" height="4.57324" fill="black"/>
<rect x="193.14" y="130.874" width="3.32421" height="6.69768" fill="#407BFF"/>
<rect opacity="0.1" x="193.14" y="130.874" width="3.32421" height="6.69768" fill="black"/>
<path d="M211.371 137.571H196.465V130.874L209.69 133.709C210.671 133.92 211.371 134.786 211.371 135.789V137.571Z" fill="#407BFF"/>
<path opacity="0.2" d="M211.371 137.571H196.465V130.874L209.69 133.709C210.671 133.92 211.371 134.786 211.371 135.789V137.571Z" fill="white"/>
<path d="M195.669 144.808L190.93 142.583C190.708 142.478 190.782 142.145 191.028 142.145H201.902C202.147 142.145 202.222 142.478 201.999 142.583L197.26 144.808C196.756 145.045 196.173 145.045 195.669 144.808Z" fill="#263238"/>
<path d="M202.753 148.202C201.579 148.202 200.628 147.251 200.628 146.077V144.039C200.628 142.865 201.579 141.914 202.753 141.914C203.927 141.914 204.878 142.865 204.878 144.039V146.077C204.878 147.251 203.927 148.202 202.753 148.202Z" fill="#263238"/>
<path opacity="0.6" d="M202.753 148.202C201.579 148.202 200.628 147.251 200.628 146.077V144.039C200.628 142.865 201.579 141.914 202.753 141.914C203.927 141.914 204.878 142.865 204.878 144.039V146.077C204.878 147.251 203.927 148.202 202.753 148.202Z" fill="white"/>
<path d="M194.677 147.536C193.593 147.087 193.078 145.844 193.527 144.76L194.307 142.877C194.756 141.792 195.999 141.277 197.084 141.726C198.168 142.176 198.683 143.419 198.234 144.503L197.454 146.386C197.005 147.471 195.762 147.986 194.677 147.536Z" fill="#263238"/>
<path d="M202.134 149.095C201.05 149.545 199.807 149.03 199.357 147.945L198.578 146.062C198.128 144.978 198.643 143.735 199.728 143.286C200.812 142.836 202.055 143.351 202.504 144.436L203.284 146.319C203.734 147.403 203.219 148.646 202.134 149.095Z" fill="#263238"/>
<g opacity="0.3">
<path d="M194.677 147.536C193.593 147.087 193.078 145.844 193.527 144.76L194.307 142.877C194.756 141.792 195.999 141.277 197.084 141.726C198.168 142.176 198.683 143.419 198.234 144.503L197.454 146.386C197.005 147.471 195.762 147.986 194.677 147.536Z" fill="white"/>
<path d="M202.134 149.095C201.05 149.545 199.807 149.03 199.357 147.945L198.578 146.062C198.128 144.978 198.643 143.735 199.728 143.286C200.812 142.836 202.055 143.351 202.504 144.436L203.284 146.319C203.734 147.403 203.219 148.646 202.134 149.095Z" fill="white"/>
</g>
<path d="M206.179 178.114H220.259C221.488 178.114 222.401 176.975 222.133 175.775L213.959 139.13C213.756 138.219 212.948 137.571 212.013 137.571H195.006V142.145H206.179V178.114Z" fill="#407BFF"/>
<path opacity="0.3" d="M206.179 178.114H220.259C221.488 178.114 222.401 176.975 222.133 175.775L213.959 139.13C213.756 138.219 212.948 137.571 212.013 137.571H195.006V142.145H206.179V178.114Z" fill="white"/>
<rect x="186.76" y="158.486" width="11.9644" height="3.28619" fill="#263238"/>
<rect x="198.725" y="158.486" width="16.8815" height="3.28619" fill="#263238"/>
<rect opacity="0.7" x="186.76" y="158.486" width="11.9644" height="3.28619" fill="white"/>
<rect opacity="0.3" x="198.725" y="158.486" width="16.8815" height="3.28619" fill="white"/>
<rect x="186.76" y="175.413" width="11.9644" height="3.28619" fill="#407BFF"/>
<rect x="198.725" y="175.413" width="24.2744" height="3.28619" fill="#407BFF"/>
<rect opacity="0.1" x="186.76" y="175.413" width="11.9644" height="3.28619" fill="black"/>
<rect opacity="0.2" x="198.725" y="175.413" width="24.2744" height="3.28619" fill="white"/>
<path d="M216.681 163.077H218.277C220.432 163.077 222.18 164.824 222.18 166.979C222.18 169.135 220.432 170.882 218.277 170.882H216.681C214.525 170.882 212.778 169.135 212.778 166.979C212.778 164.824 214.525 163.077 216.681 163.077Z" fill="#263238"/>
<path opacity="0.5" d="M216.681 163.077H218.277C220.432 163.077 222.18 164.824 222.18 166.979C222.18 169.135 220.432 170.882 218.277 170.882H216.681C214.525 170.882 212.778 169.135 212.778 166.979C212.778 164.824 214.525 163.077 216.681 163.077Z" fill="white"/>
<circle opacity="0.3" cx="218.277" cy="166.98" r="3.9028" fill="white"/>
<path d="M230.032 157.857V153.699H240.417V157.857C243.102 158.784 243.008 161.326 243.008 164.325V173.361C243.008 173.6 242.998 173.837 242.978 174.072C242.767 176.515 242.694 178.367 240.241 178.367H230.209C227.756 178.367 227.683 176.515 227.472 174.072C227.451 173.837 227.442 173.6 227.442 173.361V164.325C227.442 161.326 227.348 158.784 230.032 157.857Z" fill="#263238"/>
<path opacity="0.7" d="M230.032 157.857V153.699H240.417V157.857C243.102 158.784 243.008 161.326 243.008 164.325V173.361C243.008 173.6 242.998 173.837 242.978 174.072C242.767 176.515 242.694 178.367 240.241 178.367H230.209C227.756 178.367 227.683 176.515 227.472 174.072C227.451 173.837 227.442 173.6 227.442 173.361V164.325C227.442 161.326 227.348 158.784 230.032 157.857Z" fill="white"/>
<path d="M229.145 151.064C229.145 150.609 229.514 150.24 229.969 150.24H240.481C240.936 150.24 241.305 150.609 241.305 151.064V154.385C241.305 154.841 240.936 155.21 240.481 155.21H229.969C229.514 155.21 229.145 154.84 229.145 154.385V151.064Z" fill="#407BFF"/>
<g opacity="0.4">
<path d="M239.284 158.282H235.166C234.619 158.282 234.618 157.432 235.166 157.432H239.284C239.83 157.432 239.832 158.282 239.284 158.282Z" fill="white"/>
</g>
<g opacity="0.4">
<path d="M233.546 158.282C231.039 158.282 235.335 158.282 232.828 158.282C232.281 158.282 232.28 157.432 232.828 157.432C235.335 157.432 231.039 157.432 233.546 157.432C234.093 157.432 234.094 158.282 233.546 158.282Z" fill="white"/>
</g>
<path d="M231.451 166.127C230.998 166.127 230.335 163.949 229.725 163.431C229.335 163.099 227.762 162.87 227.848 162.611C227.934 162.352 228.819 162.805 229.056 162.719C229.294 162.633 227.892 161.101 228.021 160.864C228.15 160.627 229.337 162.374 229.553 162.374C229.768 162.374 229.272 160.605 229.553 160.519C229.833 160.433 229.919 162.395 230.178 162.417C230.437 162.439 230.847 161.554 231.062 161.705C231.278 161.856 230.639 162.593 230.588 162.913C230.491 163.52 231.192 165.178 231.537 165.178C231.756 165.178 232.378 164.626 232.808 164.22C232.878 163.87 232.968 163.533 232.919 163.21C232.885 162.987 232.738 162.805 232.738 162.583C232.738 162.064 233.278 161.81 233.637 161.295C234.14 160.573 234.419 160.004 235.198 160.004C235.977 160.004 236.256 160.573 236.759 161.295C237.119 161.81 237.659 162.064 237.659 162.583C237.659 162.805 237.512 162.987 237.477 163.21C237.43 163.519 237.511 163.841 237.579 164.174C238.011 164.585 238.668 165.173 238.894 165.173C239.241 165.173 239.946 163.507 239.848 162.898C239.797 162.576 239.155 161.836 239.371 161.684C239.588 161.532 240 162.421 240.26 162.398C240.52 162.377 240.607 160.405 240.889 160.491C241.17 160.579 240.672 162.356 240.889 162.356C241.105 162.356 242.298 160.6 242.428 160.838C242.558 161.077 241.149 162.616 241.387 162.703C241.626 162.79 242.514 162.334 242.601 162.594C242.688 162.854 241.108 163.084 240.715 163.418C240.102 163.938 239.437 166.127 238.981 166.127C238.697 166.127 238.067 165.604 237.633 165.21C237.598 165.801 237.493 166.352 237.327 166.844C238.015 167.363 240.969 169.644 240.806 170.439C240.621 171.339 237.5 171.762 237.659 172.184C237.817 172.608 238.275 173.227 238.611 173.428C239.234 173.801 241.388 174.222 241.309 174.513C241.229 174.804 239.986 174.354 239.801 174.513C239.616 174.671 241.335 176.152 241.097 176.417C240.859 176.681 239.485 175.041 239.246 175.2C239.007 175.358 239.747 176.999 239.43 177.105C239.113 177.211 238.478 174.565 238.293 174.591C238.108 174.618 238.267 175.782 238.029 175.808C237.79 175.835 237.895 174.426 237.764 173.983C237.592 173.401 236.786 172.423 236.838 171.735C236.892 171.047 239.298 170.73 239.351 170.359C239.402 170.005 238.556 170.473 235.696 168.885C235.535 168.941 235.369 168.971 235.198 168.971C235.007 168.971 234.823 168.925 234.644 168.855C231.738 170.482 230.883 170.003 230.934 170.359C230.986 170.73 233.394 171.047 233.446 171.735C233.5 172.423 232.693 173.401 232.52 173.983C232.39 174.426 232.494 175.835 232.256 175.808C232.018 175.782 232.177 174.618 231.992 174.591C231.806 174.565 231.171 177.211 230.854 177.105C230.537 176.999 231.277 175.358 231.038 175.2C230.8 175.041 229.426 176.681 229.188 176.417C228.95 176.152 230.669 174.671 230.484 174.513C230.298 174.354 229.055 174.804 228.976 174.513C228.896 174.222 231.051 173.801 231.674 173.428C232.01 173.227 232.468 172.608 232.627 172.184C232.785 171.762 229.664 171.339 229.479 170.439C229.306 169.601 232.593 167.116 233.047 166.776C232.897 166.309 232.8 165.792 232.765 165.238C232.335 165.627 231.728 166.127 231.451 166.127Z" fill="#407BFF"/>
<path opacity="0.2" d="M235.122 167.146C235.122 167.146 234.081 165.849 234.081 164.249C234.081 162.649 235.122 161.353 235.122 161.353C235.122 161.353 236.164 162.649 236.164 164.249C236.164 165.849 235.122 167.146 235.122 167.146Z" fill="black"/>
<g opacity="0.6">
<path d="M236.027 164.455C236.125 164.858 235.853 165.167 235.472 165.249C235.251 165.296 235.019 165.282 234.798 165.328C234.685 165.351 234.473 165.369 234.655 165.436C234.894 165.524 235.215 165.417 235.47 165.478C235.623 165.515 235.787 165.602 235.764 165.785C235.74 165.976 235.529 166.029 235.371 166.062C235.239 166.09 235.09 166.086 234.962 166.13C234.744 166.207 234.908 166.228 235.066 166.24C235.214 166.252 235.481 166.225 235.512 166.426C235.534 166.576 235.305 166.641 235.282 166.489C235.28 166.472 234.157 166.446 234.677 165.994C234.846 165.848 235.135 165.875 235.34 165.826C235.586 165.767 235.463 165.71 235.271 165.692C235.122 165.678 234.972 165.686 234.822 165.682C234.681 165.678 234.438 165.694 234.351 165.551C234.28 165.432 234.34 165.281 234.438 165.201C234.781 164.925 235.974 165.24 235.798 164.518C235.761 164.37 235.991 164.306 236.027 164.455Z" fill="white"/>
</g>
<path opacity="0.6" d="M234.31 164.151C234.31 164.441 234.694 164.487 235.167 164.487C235.641 164.487 236.025 164.441 236.025 164.151C236.025 163.862 235.641 163.628 235.167 163.628C234.694 163.628 234.31 163.862 234.31 164.151Z" fill="white"/>
<path opacity="0.4" d="M235.122 167.146C235.122 167.146 236.164 165.849 236.164 164.249C236.164 162.649 235.122 161.353 235.122 161.353C235.122 161.353 236.58 162.305 236.66 164.249C236.739 166.194 235.122 167.146 235.122 167.146Z" fill="white"/>
<path opacity="0.4" d="M235.122 167.146C235.122 167.146 234.081 165.849 234.081 164.249C234.081 162.649 235.122 161.353 235.122 161.353C235.122 161.353 233.664 162.305 233.585 164.249C233.505 166.194 235.122 167.146 235.122 167.146Z" fill="white"/>
<rect x="259.322" y="106.375" width="97.4075" height="187.374" fill="#407BFF"/>
<rect opacity="0.7" x="259.322" y="106.375" width="97.4075" height="187.374" fill="white"/>
<rect opacity="0.3" x="259.322" y="118.182" width="97.4074" height="1.4989" fill="black"/>
<rect opacity="0.3" x="259.322" y="271.131" width="97.4074" height="1.4989" fill="black"/>
<path d="M321.42 127.542H323.944C324.706 127.542 325.324 128.16 325.324 128.921V128.941C325.324 129.473 325.02 129.929 324.579 130.159V152.388C324.579 153.263 323.87 153.972 322.995 153.972H322.37C321.495 153.972 320.785 153.263 320.785 152.388V130.159C320.345 129.929 320.041 129.473 320.041 128.941V128.921C320.041 128.16 320.658 127.542 321.42 127.542Z" fill="#407BFF"/>
<path opacity="0.6" d="M321.42 127.542H323.944C324.706 127.542 325.324 128.16 325.324 128.921V128.941C325.324 129.473 325.02 129.929 324.579 130.159V152.388C324.579 153.263 323.87 153.972 322.995 153.972H322.37C321.495 153.972 320.785 153.263 320.785 152.388V130.159C320.345 129.929 320.041 129.473 320.041 128.941V128.921C320.041 128.16 320.658 127.542 321.42 127.542Z" fill="white"/>
<path d="M324.795 127.843C324.54 128.047 323.696 128.198 322.682 128.198C321.669 128.198 320.824 128.047 320.57 127.843C320.804 127.658 321.097 127.542 321.42 127.542H323.944C324.267 127.542 324.56 127.658 324.795 127.843Z" fill="#407BFF"/>
<path d="M322.682 145.626C323.336 145.626 323.862 145.459 323.875 145.25V152.388C323.875 152.873 323.48 153.268 322.995 153.268H322.37C321.885 153.268 321.49 152.873 321.49 152.388V145.25C321.502 145.459 322.029 145.626 322.682 145.626Z" fill="#407BFF"/>
<path d="M321.485 145.243C321.485 145.454 322.021 145.626 322.682 145.626C323.344 145.626 323.879 145.454 323.879 145.243C323.879 145.032 323.344 144.86 322.682 144.86C322.021 144.86 321.485 145.032 321.485 145.243Z" fill="#407BFF"/>
<path opacity="0.3" d="M321.485 145.243C321.485 145.454 322.021 145.626 322.682 145.626C323.344 145.626 323.879 145.454 323.879 145.243C323.879 145.032 323.344 144.86 322.682 144.86C322.021 144.86 321.485 145.032 321.485 145.243Z" fill="black"/>
<g opacity="0.8">
<path d="M323.892 130.32V152.388C323.892 152.841 323.187 152.842 323.187 152.388V130.32C323.187 129.867 323.892 129.866 323.892 130.32Z" fill="white"/>
</g>
<path d="M311.666 127.542H314.191C314.953 127.542 315.57 128.16 315.57 128.921V128.941C315.57 129.473 315.266 129.929 314.826 130.159V152.388C314.826 153.263 314.116 153.972 313.241 153.972H312.616C311.742 153.972 311.032 153.263 311.032 152.388V130.159C310.591 129.929 310.288 129.473 310.288 128.941V128.921C310.288 128.16 310.905 127.542 311.666 127.542Z" fill="#407BFF"/>
<path opacity="0.6" d="M311.666 127.542H314.191C314.953 127.542 315.57 128.16 315.57 128.921V128.941C315.57 129.473 315.266 129.929 314.826 130.159V152.388C314.826 153.263 314.116 153.972 313.241 153.972H312.616C311.742 153.972 311.032 153.263 311.032 152.388V130.159C310.591 129.929 310.288 129.473 310.288 128.941V128.921C310.288 128.16 310.905 127.542 311.666 127.542Z" fill="white"/>
<path d="M315.041 127.843C314.787 128.047 313.942 128.198 312.928 128.198C311.916 128.198 311.071 128.047 310.817 127.843C311.051 127.658 311.343 127.542 311.666 127.542H314.191C314.513 127.542 314.807 127.658 315.041 127.843Z" fill="#407BFF"/>
<path d="M312.928 140.597C313.582 140.597 314.109 140.429 314.121 140.221V152.388C314.121 152.873 313.727 153.268 313.241 153.268H312.617C312.131 153.268 311.736 152.873 311.736 152.388V140.221C311.749 140.429 312.275 140.597 312.928 140.597Z" fill="#407BFF"/>
<path d="M311.732 140.214C311.732 140.425 312.268 140.597 312.928 140.597C313.59 140.597 314.126 140.425 314.126 140.214C314.126 140.002 313.59 139.83 312.928 139.83C312.268 139.83 311.732 140.002 311.732 140.214Z" fill="#407BFF"/>
<path opacity="0.3" d="M311.732 140.214C311.732 140.425 312.268 140.597 312.928 140.597C313.59 140.597 314.126 140.425 314.126 140.214C314.126 140.002 313.59 139.83 312.928 139.83C312.268 139.83 311.732 140.002 311.732 140.214Z" fill="black"/>
<g opacity="0.8">
<path d="M314.138 130.32V152.388C314.138 152.841 313.434 152.842 313.434 152.388V130.32C313.434 129.867 314.138 129.866 314.138 130.32Z" fill="white"/>
</g>
<path d="M301.913 127.542H304.437C305.199 127.542 305.817 128.16 305.817 128.921V128.941C305.817 129.473 305.513 129.929 305.072 130.159V152.388C305.072 153.263 304.363 153.972 303.488 153.972H302.863C301.988 153.972 301.278 153.263 301.278 152.388V130.159C300.838 129.929 300.534 129.473 300.534 128.941V128.921C300.534 128.16 301.151 127.542 301.913 127.542Z" fill="#407BFF"/>
<path opacity="0.6" d="M301.913 127.542H304.437C305.199 127.542 305.817 128.16 305.817 128.921V128.941C305.817 129.473 305.513 129.929 305.072 130.159V152.388C305.072 153.263 304.363 153.972 303.488 153.972H302.863C301.988 153.972 301.278 153.263 301.278 152.388V130.159C300.838 129.929 300.534 129.473 300.534 128.941V128.921C300.534 128.16 301.151 127.542 301.913 127.542Z" fill="white"/>
<path d="M305.288 127.843C305.034 128.047 304.189 128.198 303.175 128.198C302.162 128.198 301.317 128.047 301.063 127.843C301.297 127.658 301.59 127.542 301.913 127.542H304.437C304.76 127.542 305.053 127.658 305.288 127.843Z" fill="#407BFF"/>
<path d="M303.175 136.282C303.829 136.282 304.355 136.115 304.368 135.906V152.388C304.368 152.873 303.973 153.268 303.488 153.268H302.863C302.378 153.268 301.983 152.873 301.983 152.388V135.906C301.995 136.115 302.522 136.282 303.175 136.282Z" fill="#407BFF"/>
<path d="M301.979 135.899C301.979 136.11 302.514 136.282 303.175 136.282C303.837 136.282 304.372 136.11 304.372 135.899C304.372 135.688 303.837 135.516 303.175 135.516C302.514 135.516 301.979 135.688 301.979 135.899Z" fill="#407BFF"/>
<path opacity="0.3" d="M301.979 135.899C301.979 136.11 302.514 136.282 303.175 136.282C303.837 136.282 304.372 136.11 304.372 135.899C304.372 135.688 303.837 135.516 303.175 135.516C302.514 135.516 301.979 135.688 301.979 135.899Z" fill="black"/>
<g opacity="0.8">
<path d="M304.385 130.32V152.388C304.385 152.841 303.68 152.842 303.68 152.388V130.32C303.68 129.867 304.385 129.866 304.385 130.32Z" fill="white"/>
</g>
<path d="M292.159 127.542H294.684C295.446 127.542 296.063 128.16 296.063 128.921V128.941C296.063 129.473 295.759 129.929 295.319 130.159V152.388C295.319 153.263 294.609 153.972 293.734 153.972H293.11C292.235 153.972 291.525 153.263 291.525 152.388V130.159C291.085 129.929 290.781 129.473 290.781 128.941V128.921C290.781 128.16 291.398 127.542 292.159 127.542Z" fill="#407BFF"/>
<path opacity="0.6" d="M292.159 127.542H294.684C295.446 127.542 296.063 128.16 296.063 128.921V128.941C296.063 129.473 295.759 129.929 295.319 130.159V152.388C295.319 153.263 294.609 153.972 293.734 153.972H293.11C292.235 153.972 291.525 153.263 291.525 152.388V130.159C291.085 129.929 290.781 129.473 290.781 128.941V128.921C290.781 128.16 291.398 127.542 292.159 127.542Z" fill="white"/>
<path d="M295.534 127.843C295.28 128.047 294.435 128.198 293.421 128.198C292.408 128.198 291.564 128.047 291.31 127.843C291.544 127.658 291.837 127.542 292.159 127.542H294.684C295.006 127.542 295.3 127.658 295.534 127.843Z" fill="#407BFF"/>
<path d="M293.422 140.597C294.075 140.597 294.601 140.429 294.615 140.221V152.388C294.615 152.873 294.22 153.268 293.734 153.268H293.11C292.624 153.268 292.23 152.873 292.23 152.388V140.221C292.242 140.429 292.769 140.597 293.422 140.597Z" fill="#407BFF"/>
<path d="M292.225 140.214C292.225 140.425 292.761 140.597 293.422 140.597C294.083 140.597 294.619 140.425 294.619 140.214C294.619 140.002 294.083 139.83 293.422 139.83C292.761 139.83 292.225 140.002 292.225 140.214Z" fill="#407BFF"/>
<path opacity="0.3" d="M292.225 140.214C292.225 140.425 292.761 140.597 293.422 140.597C294.083 140.597 294.619 140.425 294.619 140.214C294.619 140.002 294.083 139.83 293.422 139.83C292.761 139.83 292.225 140.002 292.225 140.214Z" fill="black"/>
<g opacity="0.8">
<path d="M294.631 130.32V152.388C294.631 152.841 293.927 152.842 293.927 152.388V130.32C293.927 129.867 294.631 129.866 294.631 130.32Z" fill="white"/>
</g>
<path d="M285.878 133.47C285.448 133.47 285.1 133.121 285.1 132.692V131.936C285.1 131.505 285.448 131.157 285.878 131.157H329.739C330.169 131.157 330.517 131.505 330.517 131.936V132.692C330.517 133.121 330.169 133.47 329.739 133.47H328.503V155.362H329.739C330.169 155.362 330.517 155.71 330.517 156.139V156.896C330.517 157.325 330.169 157.674 329.739 157.674H285.878C285.448 157.674 285.1 157.325 285.1 156.896V156.139C285.1 155.71 285.448 155.362 285.878 155.362H287.114V133.47H285.878ZM289.104 155.362H326.513V133.47H289.104V155.362Z" fill="#263238"/>
<path opacity="0.4" d="M285.878 133.47C285.448 133.47 285.1 133.121 285.1 132.692V131.936C285.1 131.505 285.448 131.157 285.878 131.157H329.739C330.169 131.157 330.517 131.505 330.517 131.936V132.692C330.517 133.121 330.169 133.47 329.739 133.47H328.503V155.362H329.739C330.169 155.362 330.517 155.71 330.517 156.139V156.896C330.517 157.325 330.169 157.674 329.739 157.674H285.878C285.448 157.674 285.1 157.325 285.1 156.896V156.139C285.1 155.71 285.448 155.362 285.878 155.362H287.114V133.47H285.878ZM289.104 155.362H326.513V133.47H289.104V155.362Z" fill="white"/>
<path d="M350.487 119.681V271.131H265.565V119.681H350.487ZM269.087 267.609H346.965V123.202H269.087V267.609Z" fill="#407BFF"/>
<path opacity="0.3" d="M350.487 119.681V271.131H265.565V119.681H350.487ZM269.087 267.609H346.965V123.202H269.087V267.609Z" fill="white"/>
<rect x="269.087" y="197.166" width="77.8774" height="1.4989" fill="#407BFF"/>
<rect x="269.087" y="157.674" width="77.8774" height="1.4989" fill="#407BFF"/>
<rect x="269.087" y="236.659" width="77.8774" height="1.4989" fill="#407BFF"/>
<g opacity="0.2">
<rect x="269.087" y="197.166" width="77.8774" height="1.4989" fill="white"/>
<rect x="269.087" y="157.674" width="77.8774" height="1.4989" fill="white"/>
<rect x="269.087" y="236.659" width="77.8774" height="1.4989" fill="white"/>
</g>
<rect opacity="0.4" x="326.402" y="276.152" width="15.0668" height="1.49882" fill="black"/>
<rect opacity="0.4" x="326.402" y="279.149" width="15.0668" height="1.4989" fill="black"/>
<rect opacity="0.4" x="326.402" y="282.147" width="15.0668" height="1.49882" fill="black"/>
<rect opacity="0.4" x="326.402" y="285.145" width="15.0668" height="1.4989" fill="black"/>
<rect opacity="0.4" x="326.402" y="288.143" width="15.0668" height="1.49882" fill="black"/>
<rect opacity="0.4" x="300.493" y="276.152" width="15.0667" height="1.49882" fill="black"/>
<rect opacity="0.4" x="300.493" y="279.149" width="15.0667" height="1.4989" fill="black"/>
<rect opacity="0.4" x="300.493" y="282.147" width="15.0667" height="1.49882" fill="black"/>
<rect opacity="0.4" x="300.493" y="285.145" width="15.0667" height="1.4989" fill="black"/>
<rect opacity="0.4" x="300.493" y="288.143" width="15.0667" height="1.49882" fill="black"/>
<rect opacity="0.4" x="274.583" y="276.152" width="15.0668" height="1.49882" fill="black"/>
<rect opacity="0.4" x="274.583" y="279.149" width="15.0668" height="1.4989" fill="black"/>
<rect opacity="0.4" x="274.583" y="282.147" width="15.0668" height="1.49882" fill="black"/>
<rect opacity="0.4" x="274.583" y="285.145" width="15.0668" height="1.4989" fill="black"/>
<rect opacity="0.4" x="274.583" y="288.143" width="15.0668" height="1.49882" fill="black"/>
<path d="M338.697 110.95C338.697 110.369 339.169 109.897 339.75 109.897H352.123C352.705 109.897 353.177 110.369 353.177 110.95V112.235C353.177 112.817 352.705 113.289 352.123 113.289H339.75C339.169 113.289 338.697 112.817 338.697 112.235V110.95Z" fill="#407BFF"/>
<path d="M322.668 194.656L329.138 185.044V174.902H333.446V185.044L339.916 194.656C340.722 195.853 339.864 197.465 338.421 197.465H324.162C322.72 197.465 321.862 195.853 322.668 194.656Z" fill="#263238"/>
<path opacity="0.7" d="M322.668 194.656L329.138 185.044V174.902H333.446V185.044L339.916 194.656C340.722 195.853 339.864 197.465 338.421 197.465H324.162C322.72 197.465 321.862 195.853 322.668 194.656Z" fill="white"/>
<path d="M328.669 175.503H333.915C334.403 175.503 334.799 175.107 334.799 174.619C334.799 174.13 334.403 173.735 333.915 173.735H328.669C328.181 173.735 327.785 174.13 327.785 174.619C327.785 175.107 328.181 175.503 328.669 175.503Z" fill="#263238"/>
<path opacity="0.5" d="M328.669 175.503H333.915C334.403 175.503 334.799 175.107 334.799 174.619C334.799 174.13 334.403 173.735 333.915 173.735H328.669C328.181 173.735 327.785 174.13 327.785 174.619C327.785 175.107 328.181 175.503 328.669 175.503Z" fill="white"/>
<path d="M317.866 169.788C318.232 169.788 318.415 170.231 318.156 170.49L316.411 172.235V195.25C316.411 196.473 315.421 197.465 314.198 197.465H301.244C300.022 197.465 299.03 196.473 299.03 195.25V169.788H317.866Z" fill="#263238"/>
<path opacity="0.7" d="M317.866 169.788C318.232 169.788 318.415 170.231 318.156 170.49L316.411 172.235V195.25C316.411 196.473 315.421 197.465 314.198 197.465H301.244C300.022 197.465 299.03 196.473 299.03 195.25V169.788H317.866Z" fill="white"/>
<path d="M304.444 171.272H301.373C301.029 171.272 301.028 170.737 301.373 170.737H304.444C304.788 170.737 304.788 171.272 304.444 171.272Z" fill="#E6E6E6"/>
<path d="M303.255 172.897H301.373C301.029 172.897 301.028 172.362 301.373 172.362H303.255C303.599 172.362 303.6 172.897 303.255 172.897Z" fill="#E6E6E6"/>
<path d="M303.255 174.522H301.373C301.029 174.522 301.028 173.987 301.373 173.987H303.255C303.599 173.987 303.6 174.522 303.255 174.522Z" fill="#E6E6E6"/>
<path d="M303.255 176.147H301.373C301.029 176.147 301.028 175.612 301.373 175.612H303.255C303.599 175.612 303.6 176.147 303.255 176.147Z" fill="#E6E6E6"/>
<path d="M303.255 177.773H301.373C301.029 177.773 301.028 177.237 301.373 177.237H303.255C303.599 177.237 303.6 177.773 303.255 177.773Z" fill="#E6E6E6"/>
<path d="M304.444 179.397H301.373C301.029 179.397 301.028 178.862 301.373 178.862H304.444C304.788 178.862 304.788 179.397 304.444 179.397Z" fill="#E6E6E6"/>
<path d="M303.255 181.023H301.373C301.029 181.023 301.028 180.488 301.373 180.488H303.255C303.599 180.488 303.6 181.023 303.255 181.023Z" fill="#E6E6E6"/>
<path d="M303.255 182.647H301.373C301.029 182.647 301.028 182.113 301.373 182.113H303.255C303.599 182.113 303.6 182.647 303.255 182.647Z" fill="#E6E6E6"/>
<path d="M303.255 184.273H301.373C301.029 184.273 301.028 183.738 301.373 183.738H303.255C303.599 183.738 303.6 184.273 303.255 184.273Z" fill="#E6E6E6"/>
<path d="M303.255 185.897H301.373C301.029 185.897 301.028 185.363 301.373 185.363H303.255C303.599 185.363 303.6 185.897 303.255 185.897Z" fill="#E6E6E6"/>
<path d="M304.444 187.522H301.373C301.029 187.522 301.028 186.988 301.373 186.988H304.444C304.788 186.988 304.788 187.522 304.444 187.522Z" fill="#E6E6E6"/>
<path d="M303.255 189.147H301.373C301.029 189.147 301.028 188.613 301.373 188.613H303.255C303.599 188.613 303.6 189.147 303.255 189.147Z" fill="#E6E6E6"/>
<path d="M303.255 190.772H301.373C301.029 190.772 301.028 190.238 301.373 190.238H303.255C303.599 190.238 303.6 190.772 303.255 190.772Z" fill="#E6E6E6"/>
<path d="M303.255 192.398H301.373C301.029 192.398 301.028 191.863 301.373 191.863H303.255C303.599 191.863 303.6 192.398 303.255 192.398Z" fill="#E6E6E6"/>
<path d="M303.255 194.023H301.373C301.029 194.023 301.028 193.488 301.373 193.488H303.255C303.599 193.488 303.6 194.023 303.255 194.023Z" fill="#E6E6E6"/>
<path d="M304.444 195.648H301.373C301.029 195.648 301.028 195.113 301.373 195.113H304.444C304.788 195.113 304.788 195.648 304.444 195.648Z" fill="#E6E6E6"/>
<path d="M326.072 219.416V216.2H334.102V219.416C336.178 220.132 337.672 222.098 337.672 224.418V232.97C337.672 233.156 337.664 233.339 337.648 233.52C337.485 235.41 335.864 236.842 333.966 236.842H326.208C324.312 236.842 322.69 235.41 322.526 233.52C322.51 233.339 322.502 233.156 322.502 232.97V224.418C322.502 222.098 323.996 220.132 326.072 219.416Z" fill="#263238"/>
<path opacity="0.7" d="M326.072 219.416V216.2H334.102V219.416C336.178 220.132 337.672 222.098 337.672 224.418V232.97C337.672 233.156 337.664 233.339 337.648 233.52C337.485 235.41 335.864 236.842 333.966 236.842H326.208C324.312 236.842 322.69 235.41 322.526 233.52C322.51 233.339 322.502 233.156 322.502 232.97V224.418C322.502 222.098 323.996 220.132 326.072 219.416Z" fill="white"/>
<rect opacity="0.6" x="322.502" y="224.563" width="15.1693" height="8.19175" fill="white"/>
<path d="M325.385 214.163C325.385 213.811 325.671 213.525 326.023 213.525H334.152C334.504 213.525 334.789 213.811 334.789 214.163V216.731C334.789 217.083 334.504 217.368 334.152 217.368H326.023C325.671 217.368 325.385 217.083 325.385 216.731V214.163Z" fill="#263238"/>
<g opacity="0.7">
<path d="M333.226 219.744H330.042C329.619 219.744 329.618 219.087 330.042 219.087H333.226C333.649 219.087 333.65 219.744 333.226 219.744Z" fill="white"/>
</g>
<g opacity="0.7">
<path d="M328.789 219.744C326.85 219.744 330.172 219.744 328.234 219.744C327.811 219.744 327.81 219.087 328.234 219.087C330.172 219.087 326.85 219.087 328.789 219.087C329.211 219.087 329.212 219.744 328.789 219.744Z" fill="white"/>
</g>
<path opacity="0.5" d="M325.385 214.163C325.385 213.811 325.671 213.525 326.023 213.525H334.152C334.504 213.525 334.789 213.811 334.789 214.163V216.731C334.789 217.083 334.504 217.368 334.152 217.368H326.023C325.671 217.368 325.385 217.083 325.385 216.731V214.163Z" fill="white"/>
<path d="M305.128 219.416V216.2H313.16V219.416C315.235 220.132 316.728 222.098 316.728 224.418V232.97C316.728 233.156 316.72 233.339 316.705 233.52C316.541 235.41 314.92 236.842 313.023 236.842H305.265C303.368 236.842 301.746 235.41 301.583 233.52C301.567 233.339 301.559 233.156 301.559 232.97V224.418C301.559 222.098 303.052 220.132 305.128 219.416Z" fill="#263238"/>
<path opacity="0.7" d="M305.128 219.416V216.2H313.16V219.416C315.235 220.132 316.728 222.098 316.728 224.418V232.97C316.728 233.156 316.72 233.339 316.705 233.52C316.541 235.41 314.92 236.842 313.023 236.842H305.265C303.368 236.842 301.746 235.41 301.583 233.52C301.567 233.339 301.559 233.156 301.559 232.97V224.418C301.559 222.098 303.052 220.132 305.128 219.416Z" fill="white"/>
<rect opacity="0.6" x="301.559" y="224.563" width="15.1693" height="8.19175" fill="white"/>
<path d="M304.442 214.163C304.442 213.811 304.727 213.525 305.079 213.525H313.209C313.561 213.525 313.846 213.811 313.846 214.163V216.731C313.846 217.083 313.561 217.368 313.209 217.368H305.079C304.727 217.368 304.442 217.083 304.442 216.731V214.163Z" fill="#263238"/>
<g opacity="0.7">
<path d="M312.283 219.744H309.099C308.675 219.744 308.674 219.087 309.099 219.087H312.283C312.706 219.087 312.706 219.744 312.283 219.744Z" fill="white"/>
</g>
<g opacity="0.7">
<path d="M307.845 219.744C305.908 219.744 309.228 219.744 307.291 219.744C306.867 219.744 306.867 219.087 307.291 219.087C309.228 219.087 305.908 219.087 307.845 219.087C308.268 219.087 308.269 219.744 307.845 219.744Z" fill="white"/>
</g>
<path opacity="0.5" d="M304.442 214.163C304.442 213.811 304.727 213.525 305.079 213.525H313.209C313.561 213.525 313.846 213.811 313.846 214.163V216.731C313.846 217.083 313.561 217.368 313.209 217.368H305.079C304.727 217.368 304.442 217.083 304.442 216.731V214.163Z" fill="white"/>
<path d="M284.186 219.416V216.2H292.216V219.416C294.292 220.132 295.785 222.098 295.785 224.418V232.97C295.785 233.156 295.778 233.339 295.762 233.52C295.598 235.41 293.977 236.842 292.08 236.842H284.322C282.425 236.842 280.803 235.41 280.639 233.52C280.624 233.339 280.616 233.156 280.616 232.97V224.418C280.616 222.098 282.11 220.132 284.186 219.416Z" fill="#263238"/>
<path opacity="0.7" d="M284.186 219.416V216.2H292.216V219.416C294.292 220.132 295.785 222.098 295.785 224.418V232.97C295.785 233.156 295.778 233.339 295.762 233.52C295.598 235.41 293.977 236.842 292.08 236.842H284.322C282.425 236.842 280.803 235.41 280.639 233.52C280.624 233.339 280.616 233.156 280.616 232.97V224.418C280.616 222.098 282.11 220.132 284.186 219.416Z" fill="white"/>
<rect opacity="0.6" x="280.616" y="224.563" width="15.1693" height="8.19175" fill="white"/>
<path d="M283.499 214.163C283.499 213.811 283.784 213.525 284.136 213.525H292.265C292.618 213.525 292.903 213.811 292.903 214.163V216.731C292.903 217.083 292.618 217.368 292.265 217.368H284.136C283.784 217.368 283.499 217.083 283.499 216.731V214.163Z" fill="#263238"/>
<g opacity="0.7">
<path d="M291.34 219.744H288.155C287.732 219.744 287.732 219.087 288.155 219.087H291.34C291.763 219.087 291.764 219.744 291.34 219.744Z" fill="white"/>
</g>
<g opacity="0.7">
<path d="M286.902 219.744C284.964 219.744 288.286 219.744 286.347 219.744C285.925 219.744 285.924 219.087 286.347 219.087C288.286 219.087 284.964 219.087 286.902 219.087C287.325 219.087 287.326 219.744 286.902 219.744Z" fill="white"/>
</g>
<path opacity="0.5" d="M283.499 214.163C283.499 213.811 283.784 213.525 284.136 213.525H292.265C292.618 213.525 292.903 213.811 292.903 214.163V216.731C292.903 217.083 292.618 217.368 292.265 217.368H284.136C283.784 217.368 283.499 217.083 283.499 216.731V214.163Z" fill="white"/>
<path d="M280.786 181.891V169.328H285.406V181.889C289.01 182.898 291.657 186.2 291.657 190.127C291.657 192.936 290.305 195.427 288.216 196.988C287.789 197.308 287.26 197.465 286.726 197.465H279.47C278.901 197.465 278.349 197.275 277.897 196.929C275.737 195.277 274.386 192.617 274.547 189.651C274.747 185.968 277.342 182.866 280.786 181.891Z" fill="#263238"/>
<path opacity="0.6" d="M280.786 181.891V169.328H285.406V181.889C289.01 182.898 291.657 186.2 291.657 190.127C291.657 192.936 290.305 195.427 288.216 196.988C287.789 197.308 287.26 197.465 286.726 197.465H279.47C278.901 197.465 278.349 197.275 277.897 196.929C275.737 195.277 274.386 192.617 274.547 189.651C274.747 185.968 277.342 182.866 280.786 181.891Z" fill="white"/>
<path d="M280.284 169.973H285.907C286.431 169.973 286.855 169.549 286.855 169.025C286.855 168.501 286.431 168.077 285.907 168.077H280.284C279.761 168.077 279.336 168.501 279.336 169.025C279.336 169.549 279.761 169.973 280.284 169.973Z" fill="#263238"/>
<path opacity="0.5" d="M280.284 169.973H285.907C286.431 169.973 286.855 169.549 286.855 169.025C286.855 168.501 286.431 168.077 285.907 168.077H280.284C279.761 168.077 279.336 168.501 279.336 169.025C279.336 169.549 279.761 169.973 280.284 169.973Z" fill="white"/>
<path d="M321.223 251.807C321.223 251.807 321.093 249.84 323.351 249.614C325.609 249.388 326.394 252.098 326.394 252.098C326.394 252.098 320.739 253.936 321.223 251.807Z" fill="#407BFF"/>
<path d="M319.997 245.776C319.997 245.776 319.035 243.582 321.193 242.486C323.351 241.389 325.319 243.066 325.319 243.066C325.319 243.066 323.267 244.259 322.551 245.776C321.835 247.292 319.997 245.776 319.997 245.776Z" fill="#407BFF"/>
<path d="M317.868 253.194C317.868 253.194 317.964 250.743 315.9 250.292C313.836 249.84 312.256 251.218 312.256 251.218C312.256 251.218 314.195 252.714 315.062 253.581C316.061 254.581 317.868 253.194 317.868 253.194Z" fill="#407BFF"/>
<g opacity="0.4">
<path d="M321.223 251.807C321.223 251.807 321.093 249.84 323.351 249.614C325.609 249.388 326.394 252.098 326.394 252.098C326.394 252.098 320.739 253.936 321.223 251.807Z" fill="white"/>
<path d="M319.997 245.776C319.997 245.776 319.035 243.582 321.193 242.486C323.351 241.389 325.319 243.066 325.319 243.066C325.319 243.066 323.267 244.259 322.551 245.776C321.835 247.292 319.997 245.776 319.997 245.776Z" fill="white"/>
<path d="M317.868 253.194C317.868 253.194 317.964 250.743 315.9 250.292C313.836 249.84 312.256 251.218 312.256 251.218C312.256 251.218 314.195 252.714 315.062 253.581C316.061 254.581 317.868 253.194 317.868 253.194Z" fill="white"/>
</g>
<path d="M320.352 259.065C320.352 259.065 320.48 251.969 322.48 250.872C322.48 250.872 321.125 250.743 320.352 252.613C320.352 252.613 319.255 248.291 320.352 245.905C321.301 243.84 322.803 243.389 322.803 243.389C322.803 243.389 320.222 243.905 319.319 246.679C318.416 249.453 319.319 255.13 319.319 255.13C319.319 255.13 318.029 251.71 315.707 251.969C315.707 251.969 319.19 253.84 319.255 259.065H320.352Z" fill="#407BFF"/>
<path d="M317.007 268.159H322.447C323.722 268.159 324.782 267.178 324.881 265.907L325.619 256.833H313.836L314.574 265.907C314.672 267.178 315.732 268.159 317.007 268.159Z" fill="#263238"/>
<path opacity="0.6" d="M317.007 268.159H322.447C323.722 268.159 324.782 267.178 324.881 265.907L325.619 256.833H313.836L314.574 265.907C314.672 267.178 315.732 268.159 317.007 268.159Z" fill="white"/>
<path d="M298.851 251.807C298.851 251.807 298.98 249.84 296.722 249.614C294.465 249.388 293.68 252.098 293.68 252.098C293.68 252.098 299.335 253.936 298.851 251.807Z" fill="#407BFF"/>
<path d="M300.077 245.776C300.077 245.776 301.039 243.582 298.88 242.486C296.722 241.389 294.755 243.066 294.755 243.066C294.755 243.066 296.807 244.259 297.522 245.776C298.238 247.292 300.077 245.776 300.077 245.776Z" fill="#407BFF"/>
<path d="M302.206 253.194C302.206 253.194 302.109 250.743 304.173 250.292C306.237 249.84 307.818 251.218 307.818 251.218C307.818 251.218 305.878 252.714 305.011 253.581C304.012 254.581 302.206 253.194 302.206 253.194Z" fill="#407BFF"/>
<g opacity="0.4">
<path d="M298.851 251.807C298.851 251.807 298.98 249.84 296.722 249.614C294.465 249.388 293.68 252.098 293.68 252.098C293.68 252.098 299.335 253.936 298.851 251.807Z" fill="white"/>
<path d="M300.077 245.776C300.077 245.776 301.039 243.582 298.88 242.486C296.722 241.389 294.755 243.066 294.755 243.066C294.755 243.066 296.807 244.259 297.522 245.776C298.238 247.292 300.077 245.776 300.077 245.776Z" fill="white"/>
<path d="M302.206 253.194C302.206 253.194 302.109 250.743 304.173 250.292C306.237 249.84 307.818 251.218 307.818 251.218C307.818 251.218 305.878 252.714 305.011 253.581C304.012 254.581 302.206 253.194 302.206 253.194Z" fill="white"/>
</g>
<path d="M299.722 259.065C299.722 259.065 299.593 251.969 297.593 250.872C297.593 250.872 298.947 250.743 299.722 252.613C299.722 252.613 300.818 248.291 299.722 245.905C298.773 243.84 297.271 243.389 297.271 243.389C297.271 243.389 299.851 243.905 300.754 246.679C301.658 249.453 300.754 255.13 300.754 255.13C300.754 255.13 302.044 251.71 304.367 251.969C304.367 251.969 300.883 253.84 300.818 259.065H299.722Z" fill="#407BFF"/>
<path d="M303.066 268.159H297.626C296.351 268.159 295.291 267.178 295.192 265.907L294.455 256.833H306.237L305.5 265.907C305.401 267.178 304.341 268.159 303.066 268.159Z" fill="#263238"/>
<path opacity="0.6" d="M303.066 268.159H297.626C296.351 268.159 295.291 267.178 295.192 265.907L294.455 256.833H306.237L305.5 265.907C305.401 267.178 304.341 268.159 303.066 268.159Z" fill="white"/>
<g opacity="0.3">
<path d="M269.32 123.203H299.062L346.965 254.814V267.609H321.88L269.32 123.203Z" fill="white"/>
<path d="M269.087 146.663V137.569L316.418 267.608H313.108L269.087 146.663Z" fill="white"/>
</g>
</svg>
