<svg width="341" height="402" viewBox="0 0 341 402" fill="none" xmlns="http://www.w3.org/2000/svg">
<g opacity="0.39">
<path d="M270.383 400.612H89.0002V366.994C88.9818 340.525 110.392 319.036 136.861 318.957H270.382L270.383 400.612Z" fill="#F2F2F2"/>
<rect x="124.474" y="271.435" width="17.402" height="64.2534" fill="#F2F2F2"/>
<rect x="252.981" y="271.435" width="17.402" height="64.2534" fill="#F2F2F2"/>
<rect x="139.198" y="276.79" width="119.137" height="1.33861" fill="#F2F2F2"/>
<rect x="139.198" y="298.208" width="119.137" height="1.33861" fill="#F2F2F2"/>
<rect x="139.198" y="308.917" width="119.137" height="1.33861" fill="#F2F2F2"/>
<path d="M247.985 397.196C247.923 398.077 247.909 398.966 247.942 399.852H273.931C274.167 398.992 274.372 398.105 274.543 397.196C277.721 380.711 272.495 353.271 279.121 312.587C284.041 282.397 293.223 258.783 297.504 247.782C302.764 234.252 308.725 221.765 315.631 201.818C317.128 197.503 318.669 192.824 320.262 187.719C320.796 186.012 326.95 166.207 326.389 165.59C326.127 165.306 324.499 169.305 323.947 170.648C319.08 182.534 316.253 187.735 312.2 196.286C309.741 201.47 306.835 207.871 302.755 217.75C292.295 243.056 287.069 255.701 285.249 265.168C283.066 276.559 280.433 287.652 277.371 298.361C274.902 307.023 273.668 311.354 272.994 311.006C271.086 310.01 273.659 274.146 281.747 238.298C283.13 232.197 284.163 228.293 286.124 220.911C289.31 208.867 307.053 141.929 320.096 101.86C321.733 96.8177 323.3 92.2182 324.744 88.1876C325.024 87.4289 325.295 86.686 325.558 85.9748C326.974 81.9874 328.569 78.2182 330.329 74.7054C331.038 73.3777 332.841 69.6158 336.456 62.0606C337.892 59.0574 338.942 56.8287 339.651 55.2007C339.756 54.9636 339.852 54.7265 339.931 54.521C340.789 52.4979 341.034 51.5178 340.833 50.9963C340.544 50.2534 339.432 50.6802 338.216 51.4547C338.084 51.5337 337.944 51.6285 337.813 51.7234C336.491 52.6085 335.152 53.7624 334.706 54.1575C330.609 57.7139 326.609 64.0837 322.906 71.6549C321.532 74.4525 320.21 77.4082 318.932 80.443C315.097 89.7528 311.617 99.5224 308.516 109.684C305.189 120.496 303.193 128.446 303.193 128.446C293.906 165.48 283.604 207.84 283.061 207.476C282.465 207.081 293.889 154.352 297.215 125.712C298.326 116.117 298.528 109.226 297.066 107.898C297.013 107.847 296.957 107.804 296.9 107.772C296.722 107.667 296.534 107.629 296.348 107.661C295.419 107.486 294.481 107.566 293.565 107.898C291.788 108.594 289.766 117.524 287.796 130.058C282.675 162.365 277.809 218.54 277.809 218.54C272.942 274.731 265.554 320.205 263.803 319.699C262.831 319.415 264.223 305.3 262.928 281.765C262.018 265.263 260.984 265.769 257.676 235.927C252.424 188.588 249.798 164.879 249.798 164.8C249.865 163.103 249.842 161.399 249.728 159.71C249.553 157.45 249.106 155.079 248.047 153.736C246.436 151.681 243.846 152.566 242.795 153.736C241.955 154.684 241.526 156.423 241.429 158.92C240.852 174.631 253.352 220.184 257.676 281.765C259.829 312.444 261.011 329.183 257.676 351.311C254.376 373.25 248.625 387.222 247.985 397.196Z" fill="#F2F2F2"/>
<path d="M149.173 1.2076C167.363 -1.15163 189.957 7.52799 191.302 17.0136C192.41 24.8219 178.947 31.951 180.216 32.8197C181.401 33.6315 189.744 25.0642 200.171 24.9166C215.928 24.6936 234.84 43.7167 228.997 54.9481C224.306 63.964 204.208 66.9129 204.606 67.593C204.981 68.2344 220.294 61.2373 235.648 62.8512C257.632 65.1619 278.684 85.0183 273.343 97.6245C267.375 111.71 228.74 116.072 228.997 116.592C229.268 117.141 267.881 103.049 282.212 111.85C291.824 117.753 290.446 131.514 284.429 140.301C271.872 158.642 232.7 165.141 213.475 156.107C198.528 149.082 204.821 122.339 189.733 100.171C171.205 72.9473 142.766 79.9239 142.521 59.69C142.499 57.85 142.427 51.9256 146.956 50.2064C154.188 47.4607 168.146 57.3415 169.129 56.5288C170.193 55.6497 151.51 46.0278 140.304 29.6585C136.78 24.5098 128.761 12.7959 135.87 5.94949C139.489 2.4637 145.534 1.67967 149.173 1.2076Z" fill="#F2F2F2"/>
</g>
<path d="M56.9395 277.189C52.9781 276.922 51.1331 277.693 49.9417 278.479C49.5593 278.731 49.1819 279.026 48.8253 279.345C50.6258 275.692 52.4701 272.055 54.3495 268.444C54.3616 268.929 54.4478 269.159 54.6609 269.274C55.1482 269.537 56.2851 268.695 58.539 267C60.2523 265.712 60.4712 265.385 60.5986 265.161C61.0464 264.374 61.0084 263.726 60.7322 260.899C60.2368 255.825 60.1091 255.349 60.3494 254.151C60.4321 253.738 60.6579 252.744 60.4976 252.687C60.3328 252.629 60.0769 253.671 59.1655 254.352C58.2771 255.015 57.652 254.673 56.8448 255.099C55.8013 255.651 55.5141 256.928 55.0821 258.982C54.6996 260.802 54.7972 261.445 54.5691 264.873C54.5045 265.845 54.4432 266.6 54.4014 267.195C52.7187 270.412 51.0675 273.653 49.4461 276.907C49.4681 276.817 49.4887 276.733 49.5065 276.66C50.0083 274.603 49.8411 273.654 49.5889 272.987C49.1804 271.907 48.3686 271.26 46.7615 270.011C45.1867 268.786 43.8546 268.081 42.2538 267.244C40.1555 266.146 39.1063 265.597 38.8218 265.758C38.1071 266.161 38.2133 268.271 38.8103 270.913C37.4515 270.212 36.7297 269.883 36.5015 270.012C36.4031 270.067 36.3209 270.156 36.2528 270.273C35.2369 270.223 33.8903 270.28 32.3496 270.482C33.5652 270.043 34.9314 269.463 36.4031 268.672C37.6788 267.987 38.3154 267.638 38.2543 267.35C38.0357 266.319 29.3251 266.34 21.8581 270.259C18.3426 272.104 17.1735 273.727 16.569 275.019C16.3749 275.434 16.2077 275.883 16.0706 276.342C15.6941 272.287 15.3635 268.222 15.076 264.161C15.3401 264.568 15.5339 264.719 15.7756 264.706C16.3286 264.675 16.857 263.362 17.8913 260.739C18.6775 258.745 18.6932 258.352 18.6847 258.094C18.6548 257.189 18.283 256.657 16.569 254.392C13.4926 250.327 13.1347 249.988 12.7127 248.841C12.5673 248.446 12.2397 247.481 12.0733 247.516C11.9023 247.552 12.2297 248.575 11.8088 249.632C11.3987 250.662 10.6868 250.697 10.2221 251.483C9.62146 252.499 10.0444 253.737 10.751 255.714C11.3767 257.465 11.7966 257.962 13.3956 261.003C13.8485 261.865 14.1915 262.541 14.467 263.069C14.716 266.692 15.0041 270.318 15.3242 273.938C15.2962 273.851 15.2698 273.769 15.2467 273.697C14.5984 271.682 13.9593 270.96 13.3956 270.524C12.4823 269.817 11.452 269.69 9.42876 269.466C7.44605 269.246 5.94198 269.342 4.1397 269.466C1.77723 269.628 0.595947 269.709 0.43732 269.995C0.00191829 270.778 1.47335 272.788 3.67206 274.939C1.87715 275.066 0.962219 275.16 0.824039 275.409C0.46273 276.059 1.41681 277.555 3.00652 279.273C1.90154 279.368 1.31873 279.468 1.21075 279.662C-0.00219774 281.846 13.5513 293.542 16.5491 291.298C16.7768 291.128 16.938 290.878 17.049 290.573C17.0982 290.985 17.1483 291.398 17.1984 291.811C13.657 291.412 6.85383 292.48 2.81741 296.705C0.81084 298.805 0.508411 300.618 0.43732 301.2C0.121952 303.783 1.379 306.533 2.42196 306.735C2.72985 308.658 3.6947 310.248 4.48656 310.234C5.47936 310.217 5.30366 307.694 7.66001 304.945C9.3042 303.027 11.2594 302.073 12.4202 301.507C14.9134 300.292 16.362 300.327 18.1581 299.337C18.1941 299.604 18.2325 299.87 18.269 300.137C14.9792 300.689 11.2224 302.1 8.61817 304.825C6.61158 306.926 6.30917 308.739 6.23808 309.321C6.0438 310.913 6.44806 312.565 7.0298 313.65C5.44721 315.313 5.0097 317.048 4.13972 320.505C3.58393 322.714 3.70533 323.498 4.13972 323.943C4.49896 324.312 5.06649 324.443 7.31318 324.208C9.75034 323.952 10.9689 323.825 12.0734 323.414C13.8204 322.765 15.0249 321.651 17.3624 319.448C18.3237 318.542 19.1365 317.772 19.7991 317.101C20.1438 317.218 20.4673 317.308 20.7941 317.373C20.832 317.38 20.8694 317.385 20.9072 317.392C21.5101 320.965 22.147 324.527 22.8172 328.074C20.6369 328.561 18.7738 329.996 17.7502 332.061L9.66048 348.382C9.14979 349.412 8.87981 350.564 8.87981 351.714V393.68C8.87981 397.818 12.246 401.184 16.3838 401.184H35.2662C39.4039 401.184 42.7702 397.818 42.7702 393.68V355.037C42.7702 354.095 42.5957 353.173 42.2514 352.296L34.5416 332.652C33.4268 329.812 30.7628 327.963 27.7251 327.896C29.3002 323.741 30.925 319.591 32.6068 315.458C32.866 315.357 33.0953 315.253 33.2946 315.142C33.6049 315.482 34.2406 315.879 35.5886 316.524C37.7993 317.581 38.9047 318.11 40.0606 318.338C41.889 318.699 43.4987 318.378 46.6434 317.724C50.9222 316.833 53.0708 316.362 53.5184 315.117C54.1379 313.394 52.1949 311.174 51.6593 310.563C50.4954 309.233 49.2107 308.627 48.4169 308.262C47.3861 307.789 44.4483 306.44 40.8969 307.37C38.6615 307.956 37.3813 309.207 34.8208 311.708C34.5742 311.949 34.3614 312.168 34.1724 312.372C34.1298 312.25 34.0818 312.129 34.029 312.009C34.3881 311.143 34.7472 310.278 35.1107 309.414C37.7364 306.923 39.0286 305.551 38.7833 304.374C38.6682 303.821 38.32 303.356 37.8718 302.969C38.3698 301.826 38.869 300.683 39.3742 299.544C39.6065 299.539 39.8461 299.528 40.1042 299.504C41.4571 299.376 42.9889 299.232 43.1523 298.582C43.2387 298.238 42.9411 297.735 42.3562 297.17C43.2014 296.934 44.4888 295.213 47.3787 294.282C49.7835 293.507 51.9486 293.717 53.234 293.842C56.5511 294.164 57.6334 295.241 60.6157 294.96C61.9687 294.832 63.5005 294.688 63.6639 294.038C63.7372 293.746 63.5321 293.34 63.1125 292.878C63.864 292.981 64.6681 293.064 65.5253 293.113C66.971 293.196 67.696 293.232 67.7946 292.954C68.1478 291.961 60.7132 287.422 52.299 286.857C50.2562 286.719 48.7791 286.859 47.6613 287.133C50.3508 286.129 54.3535 284.603 58.7478 285.838C60.2606 286.264 63.3221 287.439 67.8456 287.699C69.2914 287.782 70.0163 287.818 70.1149 287.54C70.4679 286.548 63.0397 282.013 54.6299 281.444C56.5818 281.049 58.7712 280.939 61.0681 281.584C62.5809 282.01 65.6424 283.185 70.1658 283.445C71.6116 283.528 72.3366 283.564 72.4352 283.286C72.7884 282.293 65.3537 277.754 56.9395 277.189ZM18.07 294.578C18.184 294.488 18.2957 294.398 18.4033 294.309C18.5963 294.592 18.8002 294.81 19.0041 294.948C19.0258 295.062 19.0491 295.174 19.0751 295.285C18.7879 295.254 18.4801 295.233 18.1542 295.222C18.1267 295.007 18.0972 294.792 18.07 294.578ZM34.688 279.697C34.7208 279.885 34.7564 280.077 34.7956 280.273C34.4362 280.205 34.0244 280.155 33.5742 280.127C33.9333 279.996 34.3041 279.854 34.688 279.697ZM35.5443 283.254C35.2682 283.227 34.973 283.208 34.6625 283.199C34.9053 283.014 35.1453 282.826 35.3675 282.64C35.4244 282.843 35.4831 283.048 35.5443 283.254ZM29.178 289.382C32.0255 288.045 33.5001 288.33 35.8344 286.575C36.0517 286.412 36.2744 286.245 36.4906 286.076C37.2653 288.141 38.1924 290.112 39.1474 291.54C36.4729 290.189 32.7984 289.092 29.178 289.382ZM36.0326 272.345C36.1185 273.473 36.3951 274.905 36.8067 276.445C36.7833 276.445 36.76 276.444 36.7363 276.444C35.7144 275.93 35.1515 275.702 34.9547 275.812C34.7498 275.928 34.6125 276.184 34.5348 276.553C31.3233 276.858 26.9947 277.84 23.0184 279.927C19.5029 281.772 18.3338 283.394 17.7293 284.687C17.4716 285.238 17.261 285.849 17.1063 286.463C17.0271 285.751 16.9455 285.04 16.8688 284.327C18.597 283.655 21.2099 277.161 27.6762 275.326C29.1407 274.911 32.2141 274.331 36.0326 272.345ZM17.2206 295.219C17.2682 295.184 17.3141 295.154 17.3624 295.118C17.4362 295.062 17.5107 295.006 17.5853 294.95C17.5965 295.038 17.6085 295.126 17.6198 295.214C17.4886 295.214 17.3562 295.216 17.2206 295.219ZM18.6529 299.042C18.8614 298.909 19.0738 298.765 19.296 298.598C19.6305 298.347 19.9784 298.085 20.2941 297.825C20.5387 298.071 20.7893 298.216 21.025 298.212C21.1172 298.21 21.1969 298.18 21.2719 298.137C21.0693 298.743 20.9499 299.337 20.9118 299.866C20.2465 299.889 19.5351 299.949 18.7915 300.055C18.7454 299.717 18.6984 299.379 18.6529 299.042ZM27.1621 327.89H24.4734C24.0884 327.89 23.7092 327.921 23.3372 327.977C22.6781 324.489 22.0515 320.987 21.4577 317.475C23.0388 317.65 24.6165 317.333 27.3769 316.759C29.3328 316.351 30.8387 316.031 31.9453 315.686C30.2989 319.742 28.7057 323.813 27.1621 327.89ZM33.457 310.972C33.6781 310.765 33.9122 310.545 34.1562 310.315C34.0071 310.672 33.8619 311.03 33.7136 311.387C33.6309 311.244 33.5448 311.105 33.457 310.972ZM34.8165 301.465C33.129 300.94 31.7169 301.096 30.8497 301.2C29.7623 301.331 26.7347 301.703 24.2409 304.113C23.4085 304.092 22.466 304.138 21.4618 304.264C21.9965 304.018 22.5499 303.7 23.1632 303.239C24.2496 302.422 25.4795 301.498 25.2789 300.859C25.1862 300.563 24.7791 300.318 24.1497 300.143C24.8587 299.673 25.7393 299.189 26.8671 298.826C29.272 298.051 31.4371 298.261 32.7224 298.386C35.5051 298.656 36.7186 299.454 38.7968 299.54C38.3399 300.571 37.8892 301.606 37.4382 302.641C36.4733 301.982 35.2809 301.609 34.8165 301.465ZM40.9354 296.055C40.9537 296.014 40.9716 295.973 40.9899 295.933C41.1338 295.916 41.2758 295.898 41.4144 295.878C41.4243 296.087 41.4511 296.275 41.4928 296.444C41.3195 296.315 41.1313 296.185 40.9354 296.055ZM45.3013 288.147C45.2884 288.155 45.2757 288.165 45.2629 288.174C45.2936 288.063 45.3224 287.957 45.3503 287.853C45.5873 287.82 45.8581 287.754 46.1602 287.661C45.8364 287.816 45.5529 287.981 45.3013 288.147Z" fill="#A05FD9"/>
<path d="M78.0034 394.976L86.2783 394.975L90.2145 363.057L78.0013 363.058L78.0034 394.976Z" fill="#FFB6B6"/>
<path d="M106.354 394.788C106.612 395.222 106.748 396.622 106.748 397.127C106.748 398.678 105.49 399.936 103.939 399.936H78.3126C77.2544 399.936 76.3966 399.078 76.3966 398.019V396.952C76.3966 396.952 75.1289 393.746 77.7389 389.793C77.7389 389.793 80.9827 392.888 85.8301 388.041L87.2593 385.452L97.6063 393.019L103.341 393.725C104.596 393.879 105.709 393.7 106.354 394.788Z" fill="#2F2E41"/>
<path d="M123.577 394.976L131.852 394.975L135.788 363.057L123.575 363.058L123.577 394.976Z" fill="#FFB6B6"/>
<path d="M151.928 394.788C152.186 395.222 152.322 396.622 152.322 397.127C152.322 398.678 151.064 399.936 149.513 399.936H123.887C122.828 399.936 121.971 399.078 121.971 398.019V396.952C121.971 396.952 120.703 393.746 123.313 389.793C123.313 389.793 126.557 392.888 131.404 388.041L132.833 385.452L143.18 393.019L148.915 393.725C150.17 393.879 151.282 393.7 151.928 394.788Z" fill="#2F2E41"/>
<path d="M120.253 140.895C120.253 140.895 129.783 136.555 135.869 140.895C141.954 145.236 147.38 184.299 140.869 190.81C134.359 197.32 123.508 182.671 123.508 182.671L120.253 140.895Z" fill="#FFB6B6"/>
<path d="M84.2324 141.413C84.2324 141.413 74.7015 137.072 68.6161 141.413C62.5305 145.753 57.1051 184.816 63.6156 191.327C70.126 197.837 80.9771 183.189 80.9771 183.189L84.2324 141.413Z" fill="#FFB6B6"/>
<path d="M84.5034 189.428C84.5034 189.428 81.2483 204.077 77.4505 210.587L105.12 226.863L126.822 212.757C126.822 212.757 116.514 195.938 118.141 191.055L84.5034 189.428Z" fill="#FFB6B6"/>
<path d="M273.024 393.349L262.397 393.348L257.341 352.359L273.026 352.36L273.024 393.349Z" fill="#FFB6B6"/>
<path d="M236.615 393.109C236.284 393.666 236.11 395.464 236.11 396.112C236.11 398.104 237.724 399.719 239.716 399.719H272.626C273.985 399.719 275.087 398.618 275.087 397.258V395.888C275.087 395.888 276.715 391.77 273.363 386.695C273.363 386.695 269.197 390.669 262.972 384.444L261.137 381.119L247.849 390.837L240.484 391.743C238.872 391.942 237.444 391.712 236.615 393.109Z" fill="#2F2E41"/>
<path d="M305.872 393.349L295.246 393.348L290.19 352.359L305.874 352.36L305.872 393.349Z" fill="#FFB6B6"/>
<path d="M269.464 393.109C269.133 393.666 268.958 395.464 268.958 396.112C268.958 398.104 270.574 399.719 272.565 399.719H305.475C306.834 399.719 307.935 398.618 307.935 397.258V395.888C307.935 395.888 309.563 391.77 306.212 386.695C306.212 386.695 302.046 390.669 295.821 384.444L293.985 381.119L280.698 390.837L273.333 391.743C271.721 391.942 270.293 391.712 269.464 393.109Z" fill="#2F2E41"/>
<path d="M250.916 156.894C250.916 156.894 249.377 166.8 251.159 173.193L224.985 219.606L235.167 227.027L269.169 184.247L273.881 163.11L250.916 156.894Z" fill="#FFB6B6"/>
<ellipse cx="239.979" cy="223.006" rx="13.2957" ry="8.21209" transform="rotate(-60.5803 239.979 223.006)" fill="#FFB6B6"/>
<path d="M261.126 204.115C261.126 204.115 248.612 212.945 252.914 226.127L249.395 270.593L257.216 362.099H274.062L276.768 296.402L287.718 254.951L289.138 362.099L310.008 361.708C310.008 361.708 311.181 308.134 309.617 305.005C308.053 301.877 309.617 304.386 309.617 304.386L322.521 241.646L320.566 198.639L261.126 204.115Z" fill="#2F2E41"/>
<path d="M292.019 95.0115L269.339 103.615L271.685 109.871L252.914 123.949L265.428 167.747L258.389 206.852L278.724 206.07L322.521 202.159L317.829 154.451L318.611 108.307L301.405 102.05L292.019 95.0115Z" fill="#C69AEC"/>
<path d="M258.78 122.776L252.914 123.949C252.914 123.949 250.177 125.905 250.177 132.944C250.177 139.982 250.177 144.675 250.959 148.586C250.959 148.586 246.266 161.099 247.83 164.228C249.394 167.356 268.947 167.356 268.947 167.356L258.78 122.776Z" fill="#C69AEC"/>
<path d="M291.102 76.8629C291.102 86.7093 283.12 94.6912 273.273 94.6912C263.427 94.6912 255.445 86.7093 255.445 76.8629C255.445 67.0167 263.427 59.0347 273.273 59.0347C283.12 59.0347 291.102 67.0167 291.102 76.8629Z" fill="#FFB6B6"/>
<path d="M284.415 89.2772C284.415 89.2772 287.574 77.1432 284.208 79.2828L278.985 78.7865L282.283 69.9649C282.283 69.9649 276.38 65.5392 274.026 68.1262C271.671 70.7133 272.236 72.1723 270.096 68.8068C267.957 65.4414 263.486 65.5051 259.391 67.9267C255.296 70.3483 252.096 70.7469 252.874 66.2534C253.653 61.7599 253.217 54.1245 255.647 54.9904C258.078 55.8563 257.412 56.345 258.723 53.2071C260.034 50.0693 260.199 48.3283 263.234 49.6707C266.268 51.013 273.894 44.7108 277.045 48.5237C280.196 52.3366 282.949 52.9495 285.701 53.5624C288.454 54.1753 299.513 52.4154 298.588 69.5433C298.588 69.5433 305.969 84.2985 292.673 91.1159C292.673 91.1159 289.065 87.5549 286.545 91.883L284.415 89.2772Z" fill="#2F2E41"/>
<path d="M113.259 127.578L95.8973 128.12L86.6741 139.514L76.3655 141.684C76.3655 141.684 73.1103 172.066 77.993 182.917C82.8761 193.768 80.706 197.024 80.706 197.024L119.769 196.481C119.769 196.481 118.684 189.112 125.195 182.759L128.46 170.676C130.205 164.216 129.611 157.347 126.781 151.283L119.769 136.258L113.801 134.088L113.259 127.578Z" fill="white"/>
<path d="M80.7056 203.534L78.2641 207.603C78.2641 207.603 70.6685 217.911 69.5835 247.209C68.4983 276.507 77.4503 371.309 77.4503 371.309H89.8392L103.232 243.046L121.125 371.452L137.131 371.724L135.774 240.699C135.774 240.699 132.519 210.858 123.838 204.348C123.838 204.348 95.8969 229.576 80.7056 203.534Z" fill="#6E7DD4"/>
<path d="M58.1104 139.26C58.1104 144.893 57.7711 149.084 51.6204 149.459C45.8434 149.811 45.1303 144.893 45.1303 139.26C45.1303 133.628 45.2648 129.107 51.6204 129.061C58.8562 129.009 58.1104 133.628 58.1104 139.26Z" fill="#F2F2F2"/>
<path d="M94.2693 139.26C94.2693 144.893 95.7495 149.084 87.7793 149.459C81.6478 149.747 81.2894 144.893 81.2894 139.26C81.2894 133.628 82.19 129.694 87.7793 129.061C93.0367 128.467 94.2693 133.628 94.2693 139.26Z" fill="#F2F2F2"/>
<rect x="52.5477" y="134.625" width="36.1588" height="8.34436" fill="#F2F2F2"/>
<path d="M120.503 137.633C120.503 143.265 120.164 147.456 114.013 147.831C108.236 148.183 107.523 143.265 107.523 137.633C107.523 132 107.658 127.48 114.013 127.434C121.249 127.382 120.503 132 120.503 137.633Z" fill="#F2F2F2"/>
<path d="M156.662 137.633C156.662 143.265 158.142 147.456 150.172 147.831C144.04 148.12 143.682 143.265 143.682 137.633C143.682 132 144.583 128.066 150.172 127.434C155.43 126.84 156.662 132 156.662 137.633Z" fill="#F2F2F2"/>
<rect x="114.94" y="132.997" width="36.1588" height="8.34436" fill="#F2F2F2"/>
<path d="M214.906 226.61C214.906 232.243 214.567 236.434 208.416 236.809C202.639 237.161 201.926 232.243 201.926 226.61C201.926 220.978 202.061 216.457 208.416 216.412C215.652 216.36 214.906 220.978 214.906 226.61Z" fill="#F2F2F2"/>
<path d="M251.066 226.61C251.066 232.243 252.546 236.434 244.576 236.809C238.444 237.097 238.086 232.243 238.086 226.61C238.086 220.978 238.986 217.044 244.576 216.412C249.833 215.817 251.066 220.978 251.066 226.61Z" fill="#F2F2F2"/>
<rect x="209.344" y="221.975" width="36.1588" height="8.34436" fill="#F2F2F2"/>
<ellipse cx="133.298" cy="139.035" rx="7.04903" ry="11.4127" fill="#FFB6B6"/>
<circle cx="99.9661" cy="101.807" r="19.2604" fill="#FFB6B6"/>
<path d="M96.099 107.859L100.555 100.767L102.562 91.1224C102.562 91.1224 122.863 96.0738 117.416 86.1711C111.97 76.2683 98.1058 73.7926 88.6982 81.2197L84.6436 85.1808C84.6436 85.1808 93.6497 76.7634 88.2031 73.7926C82.7565 70.8218 83.7469 68.8412 80.7761 71.3169C77.8052 73.7926 79.2906 75.7732 75.8247 74.2878C72.3587 72.8024 64.9316 70.8218 65.9219 73.2975C66.9121 75.7732 59.4423 82.21 62.1868 85.1808C64.9316 88.1517 62.4559 94.0934 67.4073 92.6079C72.3587 91.1225 69.883 98.5495 74.3393 95.5787C74.3393 95.5787 70.6816 100.24 73.6525 103.706C76.6232 107.172 81.2007 108.52 80.7054 113.472C80.2104 118.423 92.0991 119.44 92.0991 119.44L91.174 104.986C91.174 104.986 94.1184 102.572 96.099 107.859Z" fill="#2F2E41"/>
<path d="M292.189 141.093C292.189 141.093 289.349 150.708 290.268 157.28L258.169 199.811L267.276 208.517L306.652 170.626L314.126 150.3L292.189 141.093Z" fill="#FFB6B6"/>
<ellipse cx="268.848" cy="205.254" rx="13.2957" ry="8.21209" transform="rotate(-52.9571 268.848 205.254)" fill="#FFB6B6"/>
<path d="M315.451 105.738C315.451 105.738 325.451 109.365 324.179 116.244C322.907 123.123 322.424 127.658 322.424 127.658C322.424 127.658 323.508 131.415 322.094 133.288C320.681 135.161 313.424 157.12 313.424 157.12L287.324 148.199C287.324 148.199 302.624 105.855 315.451 105.738Z" fill="#C69AEC"/>
<path d="M78.2368 139.552C78.2368 145.855 75.0808 150.965 71.1877 150.965C67.2946 150.965 64.1386 145.855 64.1386 139.552C64.1386 133.249 67.2946 128.14 71.1877 128.14C75.0808 128.14 78.2368 133.249 78.2368 139.552Z" fill="#FFB6B6"/>
</svg>
